<?xml version="1.0" encoding="utf-8" standalone="no"?>
<!DOCTYPE svg PUBLIC "-//W3C//DTD SVG 1.1//EN"
  "http://www.w3.org/Graphics/SVG/1.1/DTD/svg11.dtd">
<!-- Created with matplotlib (http://matplotlib.org/) -->
<svg height="432pt" version="1.1" viewBox="0 0 432 432" width="432pt" xmlns="http://www.w3.org/2000/svg" xmlns:xlink="http://www.w3.org/1999/xlink">
 <defs>
  <style type="text/css">
*{stroke-linecap:butt;stroke-linejoin:round;}
  </style>
 </defs>
 <g id="figure_1">
  <g id="patch_1">
   <path d="M 0 432 
L 432 432 
L 432 0 
L 0 0 
z
" style="fill:#ffffff;"/>
  </g>
  <g id="axes_1">
   <g id="matplotlib.axis_1">
    <g id="xtick_1">
     <g id="text_1">
      <!-- 0.0 -->
      <defs>
       <path d="M 31.78125 66.40625 
Q 24.171875 66.40625 20.328125 58.90625 
Q 16.5 51.421875 16.5 36.375 
Q 16.5 21.390625 20.328125 13.890625 
Q 24.171875 6.390625 31.78125 6.390625 
Q 39.453125 6.390625 43.28125 13.890625 
Q 47.125 21.390625 47.125 36.375 
Q 47.125 51.421875 43.28125 58.90625 
Q 39.453125 66.40625 31.78125 66.40625 
M 31.78125 74.21875 
Q 44.046875 74.21875 50.515625 64.515625 
Q 56.984375 54.828125 56.984375 36.375 
Q 56.984375 17.96875 50.515625 8.265625 
Q 44.046875 -1.421875 31.78125 -1.421875 
Q 19.53125 -1.421875 13.0625 8.265625 
Q 6.59375 17.96875 6.59375 36.375 
Q 6.59375 54.828125 13.0625 64.515625 
Q 19.53125 74.21875 31.78125 74.21875 
" id="DejaVuSans-30"/>
       <path d="M 10.6875 12.40625 
L 21 12.40625 
L 21 0 
L 10.6875 0 
z
" id="DejaVuSans-2e"/>
      </defs>
      <g transform="translate(42.54975 402.42175)scale(0.144 -0.144)">
       <use xlink:href="#DejaVuSans-30"/>
       <use x="63.623047" xlink:href="#DejaVuSans-2e"/>
       <use x="95.410156" xlink:href="#DejaVuSans-30"/>
      </g>
     </g>
    </g>
    <g id="xtick_2">
     <g id="text_2">
      <!-- 0.2 -->
      <defs>
       <path d="M 19.1875 8.296875 
L 53.609375 8.296875 
L 53.609375 0 
L 7.328125 0 
L 7.328125 8.296875 
Q 12.9375 14.109375 22.625 23.890625 
Q 32.328125 33.6875 34.8125 36.53125 
Q 39.546875 41.84375 41.421875 45.53125 
Q 43.3125 49.21875 43.3125 52.78125 
Q 43.3125 58.59375 39.234375 62.25 
Q 35.15625 65.921875 28.609375 65.921875 
Q 23.96875 65.921875 18.8125 64.3125 
Q 13.671875 62.703125 7.8125 59.421875 
L 7.8125 69.390625 
Q 13.765625 71.78125 18.9375 73 
Q 24.125 74.21875 28.421875 74.21875 
Q 39.75 74.21875 46.484375 68.546875 
Q 53.21875 62.890625 53.21875 53.421875 
Q 53.21875 48.921875 51.53125 44.890625 
Q 49.859375 40.875 45.40625 35.40625 
Q 44.1875 33.984375 37.640625 27.21875 
Q 31.109375 20.453125 19.1875 8.296875 
" id="DejaVuSans-32"/>
      </defs>
      <g transform="translate(109.50975 402.42175)scale(0.144 -0.144)">
       <use xlink:href="#DejaVuSans-30"/>
       <use x="63.623047" xlink:href="#DejaVuSans-2e"/>
       <use x="95.410156" xlink:href="#DejaVuSans-32"/>
      </g>
     </g>
    </g>
    <g id="xtick_3">
     <g id="text_3">
      <!-- 0.4 -->
      <defs>
       <path d="M 37.796875 64.3125 
L 12.890625 25.390625 
L 37.796875 25.390625 
z
M 35.203125 72.90625 
L 47.609375 72.90625 
L 47.609375 25.390625 
L 58.015625 25.390625 
L 58.015625 17.1875 
L 47.609375 17.1875 
L 47.609375 0 
L 37.796875 0 
L 37.796875 17.1875 
L 4.890625 17.1875 
L 4.890625 26.703125 
z
" id="DejaVuSans-34"/>
      </defs>
      <g transform="translate(176.46975 402.42175)scale(0.144 -0.144)">
       <use xlink:href="#DejaVuSans-30"/>
       <use x="63.623047" xlink:href="#DejaVuSans-2e"/>
       <use x="95.410156" xlink:href="#DejaVuSans-34"/>
      </g>
     </g>
    </g>
    <g id="xtick_4">
     <g id="text_4">
      <!-- 0.6 -->
      <defs>
       <path d="M 33.015625 40.375 
Q 26.375 40.375 22.484375 35.828125 
Q 18.609375 31.296875 18.609375 23.390625 
Q 18.609375 15.53125 22.484375 10.953125 
Q 26.375 6.390625 33.015625 6.390625 
Q 39.65625 6.390625 43.53125 10.953125 
Q 47.40625 15.53125 47.40625 23.390625 
Q 47.40625 31.296875 43.53125 35.828125 
Q 39.65625 40.375 33.015625 40.375 
M 52.59375 71.296875 
L 52.59375 62.3125 
Q 48.875 64.0625 45.09375 64.984375 
Q 41.3125 65.921875 37.59375 65.921875 
Q 27.828125 65.921875 22.671875 59.328125 
Q 17.53125 52.734375 16.796875 39.40625 
Q 19.671875 43.65625 24.015625 45.921875 
Q 28.375 48.1875 33.59375 48.1875 
Q 44.578125 48.1875 50.953125 41.515625 
Q 57.328125 34.859375 57.328125 23.390625 
Q 57.328125 12.15625 50.6875 5.359375 
Q 44.046875 -1.421875 33.015625 -1.421875 
Q 20.359375 -1.421875 13.671875 8.265625 
Q 6.984375 17.96875 6.984375 36.375 
Q 6.984375 53.65625 15.1875 63.9375 
Q 23.390625 74.21875 37.203125 74.21875 
Q 40.921875 74.21875 44.703125 73.484375 
Q 48.484375 72.75 52.59375 71.296875 
" id="DejaVuSans-36"/>
      </defs>
      <g transform="translate(243.42975 402.42175)scale(0.144 -0.144)">
       <use xlink:href="#DejaVuSans-30"/>
       <use x="63.623047" xlink:href="#DejaVuSans-2e"/>
       <use x="95.410156" xlink:href="#DejaVuSans-36"/>
      </g>
     </g>
    </g>
    <g id="xtick_5">
     <g id="text_5">
      <!-- 0.8 -->
      <defs>
       <path d="M 31.78125 34.625 
Q 24.75 34.625 20.71875 30.859375 
Q 16.703125 27.09375 16.703125 20.515625 
Q 16.703125 13.921875 20.71875 10.15625 
Q 24.75 6.390625 31.78125 6.390625 
Q 38.8125 6.390625 42.859375 10.171875 
Q 46.921875 13.96875 46.921875 20.515625 
Q 46.921875 27.09375 42.890625 30.859375 
Q 38.875 34.625 31.78125 34.625 
M 21.921875 38.8125 
Q 15.578125 40.375 12.03125 44.71875 
Q 8.5 49.078125 8.5 55.328125 
Q 8.5 64.0625 14.71875 69.140625 
Q 20.953125 74.21875 31.78125 74.21875 
Q 42.671875 74.21875 48.875 69.140625 
Q 55.078125 64.0625 55.078125 55.328125 
Q 55.078125 49.078125 51.53125 44.71875 
Q 48 40.375 41.703125 38.8125 
Q 48.828125 37.15625 52.796875 32.3125 
Q 56.78125 27.484375 56.78125 20.515625 
Q 56.78125 9.90625 50.3125 4.234375 
Q 43.84375 -1.421875 31.78125 -1.421875 
Q 19.734375 -1.421875 13.25 4.234375 
Q 6.78125 9.90625 6.78125 20.515625 
Q 6.78125 27.484375 10.78125 32.3125 
Q 14.796875 37.15625 21.921875 38.8125 
M 18.3125 54.390625 
Q 18.3125 48.734375 21.84375 45.5625 
Q 25.390625 42.390625 31.78125 42.390625 
Q 38.140625 42.390625 41.71875 45.5625 
Q 45.3125 48.734375 45.3125 54.390625 
Q 45.3125 60.0625 41.71875 63.234375 
Q 38.140625 66.40625 31.78125 66.40625 
Q 25.390625 66.40625 21.84375 63.234375 
Q 18.3125 60.0625 18.3125 54.390625 
" id="DejaVuSans-38"/>
      </defs>
      <g transform="translate(310.38975 402.42175)scale(0.144 -0.144)">
       <use xlink:href="#DejaVuSans-30"/>
       <use x="63.623047" xlink:href="#DejaVuSans-2e"/>
       <use x="95.410156" xlink:href="#DejaVuSans-38"/>
      </g>
     </g>
    </g>
    <g id="xtick_6">
     <g id="text_6">
      <!-- 1.0 -->
      <defs>
       <path d="M 12.40625 8.296875 
L 28.515625 8.296875 
L 28.515625 63.921875 
L 10.984375 60.40625 
L 10.984375 69.390625 
L 28.421875 72.90625 
L 38.28125 72.90625 
L 38.28125 8.296875 
L 54.390625 8.296875 
L 54.390625 0 
L 12.40625 0 
z
" id="DejaVuSans-31"/>
      </defs>
      <g transform="translate(377.34975 402.42175)scale(0.144 -0.144)">
       <use xlink:href="#DejaVuSans-31"/>
       <use x="63.623047" xlink:href="#DejaVuSans-2e"/>
       <use x="95.410156" xlink:href="#DejaVuSans-30"/>
      </g>
     </g>
    </g>
    <g id="text_7">
     <!-- Frequency of Nucleotide [count] -->
     <defs>
      <path d="M 9.8125 72.90625 
L 51.703125 72.90625 
L 51.703125 64.59375 
L 19.671875 64.59375 
L 19.671875 43.109375 
L 48.578125 43.109375 
L 48.578125 34.8125 
L 19.671875 34.8125 
L 19.671875 0 
L 9.8125 0 
z
" id="DejaVuSans-46"/>
      <path d="M 41.109375 46.296875 
Q 39.59375 47.171875 37.8125 47.578125 
Q 36.03125 48 33.890625 48 
Q 26.265625 48 22.1875 43.046875 
Q 18.109375 38.09375 18.109375 28.8125 
L 18.109375 0 
L 9.078125 0 
L 9.078125 54.6875 
L 18.109375 54.6875 
L 18.109375 46.1875 
Q 20.953125 51.171875 25.484375 53.578125 
Q 30.03125 56 36.53125 56 
Q 37.453125 56 38.578125 55.875 
Q 39.703125 55.765625 41.0625 55.515625 
z
" id="DejaVuSans-72"/>
      <path d="M 56.203125 29.59375 
L 56.203125 25.203125 
L 14.890625 25.203125 
Q 15.484375 15.921875 20.484375 11.0625 
Q 25.484375 6.203125 34.421875 6.203125 
Q 39.59375 6.203125 44.453125 7.46875 
Q 49.3125 8.734375 54.109375 11.28125 
L 54.109375 2.78125 
Q 49.265625 0.734375 44.1875 -0.34375 
Q 39.109375 -1.421875 33.890625 -1.421875 
Q 20.796875 -1.421875 13.15625 6.1875 
Q 5.515625 13.8125 5.515625 26.8125 
Q 5.515625 40.234375 12.765625 48.109375 
Q 20.015625 56 32.328125 56 
Q 43.359375 56 49.78125 48.890625 
Q 56.203125 41.796875 56.203125 29.59375 
M 47.21875 32.234375 
Q 47.125 39.59375 43.09375 43.984375 
Q 39.0625 48.390625 32.421875 48.390625 
Q 24.90625 48.390625 20.390625 44.140625 
Q 15.875 39.890625 15.1875 32.171875 
z
" id="DejaVuSans-65"/>
      <path d="M 14.796875 27.296875 
Q 14.796875 17.390625 18.875 11.75 
Q 22.953125 6.109375 30.078125 6.109375 
Q 37.203125 6.109375 41.296875 11.75 
Q 45.40625 17.390625 45.40625 27.296875 
Q 45.40625 37.203125 41.296875 42.84375 
Q 37.203125 48.484375 30.078125 48.484375 
Q 22.953125 48.484375 18.875 42.84375 
Q 14.796875 37.203125 14.796875 27.296875 
M 45.40625 8.203125 
Q 42.578125 3.328125 38.25 0.953125 
Q 33.9375 -1.421875 27.875 -1.421875 
Q 17.96875 -1.421875 11.734375 6.484375 
Q 5.515625 14.40625 5.515625 27.296875 
Q 5.515625 40.1875 11.734375 48.09375 
Q 17.96875 56 27.875 56 
Q 33.9375 56 38.25 53.625 
Q 42.578125 51.265625 45.40625 46.390625 
L 45.40625 54.6875 
L 54.390625 54.6875 
L 54.390625 -20.796875 
L 45.40625 -20.796875 
z
" id="DejaVuSans-71"/>
      <path d="M 8.5 21.578125 
L 8.5 54.6875 
L 17.484375 54.6875 
L 17.484375 21.921875 
Q 17.484375 14.15625 20.5 10.265625 
Q 23.53125 6.390625 29.59375 6.390625 
Q 36.859375 6.390625 41.078125 11.03125 
Q 45.3125 15.671875 45.3125 23.6875 
L 45.3125 54.6875 
L 54.296875 54.6875 
L 54.296875 0 
L 45.3125 0 
L 45.3125 8.40625 
Q 42.046875 3.421875 37.71875 1 
Q 33.40625 -1.421875 27.6875 -1.421875 
Q 18.265625 -1.421875 13.375 4.4375 
Q 8.5 10.296875 8.5 21.578125 
M 31.109375 56 
z
" id="DejaVuSans-75"/>
      <path d="M 54.890625 33.015625 
L 54.890625 0 
L 45.90625 0 
L 45.90625 32.71875 
Q 45.90625 40.484375 42.875 44.328125 
Q 39.84375 48.1875 33.796875 48.1875 
Q 26.515625 48.1875 22.3125 43.546875 
Q 18.109375 38.921875 18.109375 30.90625 
L 18.109375 0 
L 9.078125 0 
L 9.078125 54.6875 
L 18.109375 54.6875 
L 18.109375 46.1875 
Q 21.34375 51.125 25.703125 53.5625 
Q 30.078125 56 35.796875 56 
Q 45.21875 56 50.046875 50.171875 
Q 54.890625 44.34375 54.890625 33.015625 
" id="DejaVuSans-6e"/>
      <path d="M 48.78125 52.59375 
L 48.78125 44.1875 
Q 44.96875 46.296875 41.140625 47.34375 
Q 37.3125 48.390625 33.40625 48.390625 
Q 24.65625 48.390625 19.8125 42.84375 
Q 14.984375 37.3125 14.984375 27.296875 
Q 14.984375 17.28125 19.8125 11.734375 
Q 24.65625 6.203125 33.40625 6.203125 
Q 37.3125 6.203125 41.140625 7.25 
Q 44.96875 8.296875 48.78125 10.40625 
L 48.78125 2.09375 
Q 45.015625 0.34375 40.984375 -0.53125 
Q 36.96875 -1.421875 32.421875 -1.421875 
Q 20.0625 -1.421875 12.78125 6.34375 
Q 5.515625 14.109375 5.515625 27.296875 
Q 5.515625 40.671875 12.859375 48.328125 
Q 20.21875 56 33.015625 56 
Q 37.15625 56 41.109375 55.140625 
Q 45.0625 54.296875 48.78125 52.59375 
" id="DejaVuSans-63"/>
      <path d="M 32.171875 -5.078125 
Q 28.375 -14.84375 24.75 -17.8125 
Q 21.140625 -20.796875 15.09375 -20.796875 
L 7.90625 -20.796875 
L 7.90625 -13.28125 
L 13.1875 -13.28125 
Q 16.890625 -13.28125 18.9375 -11.515625 
Q 21 -9.765625 23.484375 -3.21875 
L 25.09375 0.875 
L 2.984375 54.6875 
L 12.5 54.6875 
L 29.59375 11.921875 
L 46.6875 54.6875 
L 56.203125 54.6875 
z
" id="DejaVuSans-79"/>
      <path id="DejaVuSans-20"/>
      <path d="M 30.609375 48.390625 
Q 23.390625 48.390625 19.1875 42.75 
Q 14.984375 37.109375 14.984375 27.296875 
Q 14.984375 17.484375 19.15625 11.84375 
Q 23.34375 6.203125 30.609375 6.203125 
Q 37.796875 6.203125 41.984375 11.859375 
Q 46.1875 17.53125 46.1875 27.296875 
Q 46.1875 37.015625 41.984375 42.703125 
Q 37.796875 48.390625 30.609375 48.390625 
M 30.609375 56 
Q 42.328125 56 49.015625 48.375 
Q 55.71875 40.765625 55.71875 27.296875 
Q 55.71875 13.875 49.015625 6.21875 
Q 42.328125 -1.421875 30.609375 -1.421875 
Q 18.84375 -1.421875 12.171875 6.21875 
Q 5.515625 13.875 5.515625 27.296875 
Q 5.515625 40.765625 12.171875 48.375 
Q 18.84375 56 30.609375 56 
" id="DejaVuSans-6f"/>
      <path d="M 37.109375 75.984375 
L 37.109375 68.5 
L 28.515625 68.5 
Q 23.6875 68.5 21.796875 66.546875 
Q 19.921875 64.59375 19.921875 59.515625 
L 19.921875 54.6875 
L 34.71875 54.6875 
L 34.71875 47.703125 
L 19.921875 47.703125 
L 19.921875 0 
L 10.890625 0 
L 10.890625 47.703125 
L 2.296875 47.703125 
L 2.296875 54.6875 
L 10.890625 54.6875 
L 10.890625 58.5 
Q 10.890625 67.625 15.140625 71.796875 
Q 19.390625 75.984375 28.609375 75.984375 
z
" id="DejaVuSans-66"/>
      <path d="M 9.8125 72.90625 
L 23.09375 72.90625 
L 55.421875 11.921875 
L 55.421875 72.90625 
L 64.984375 72.90625 
L 64.984375 0 
L 51.703125 0 
L 19.390625 60.984375 
L 19.390625 0 
L 9.8125 0 
z
" id="DejaVuSans-4e"/>
      <path d="M 9.421875 75.984375 
L 18.40625 75.984375 
L 18.40625 0 
L 9.421875 0 
z
" id="DejaVuSans-6c"/>
      <path d="M 18.3125 70.21875 
L 18.3125 54.6875 
L 36.8125 54.6875 
L 36.8125 47.703125 
L 18.3125 47.703125 
L 18.3125 18.015625 
Q 18.3125 11.328125 20.140625 9.421875 
Q 21.96875 7.515625 27.59375 7.515625 
L 36.8125 7.515625 
L 36.8125 0 
L 27.59375 0 
Q 17.1875 0 13.234375 3.875 
Q 9.28125 7.765625 9.28125 18.015625 
L 9.28125 47.703125 
L 2.6875 47.703125 
L 2.6875 54.6875 
L 9.28125 54.6875 
L 9.28125 70.21875 
z
" id="DejaVuSans-74"/>
      <path d="M 9.421875 54.6875 
L 18.40625 54.6875 
L 18.40625 0 
L 9.421875 0 
z
M 9.421875 75.984375 
L 18.40625 75.984375 
L 18.40625 64.59375 
L 9.421875 64.59375 
z
" id="DejaVuSans-69"/>
      <path d="M 45.40625 46.390625 
L 45.40625 75.984375 
L 54.390625 75.984375 
L 54.390625 0 
L 45.40625 0 
L 45.40625 8.203125 
Q 42.578125 3.328125 38.25 0.953125 
Q 33.9375 -1.421875 27.875 -1.421875 
Q 17.96875 -1.421875 11.734375 6.484375 
Q 5.515625 14.40625 5.515625 27.296875 
Q 5.515625 40.1875 11.734375 48.09375 
Q 17.96875 56 27.875 56 
Q 33.9375 56 38.25 53.625 
Q 42.578125 51.265625 45.40625 46.390625 
M 14.796875 27.296875 
Q 14.796875 17.390625 18.875 11.75 
Q 22.953125 6.109375 30.078125 6.109375 
Q 37.203125 6.109375 41.296875 11.75 
Q 45.40625 17.390625 45.40625 27.296875 
Q 45.40625 37.203125 41.296875 42.84375 
Q 37.203125 48.484375 30.078125 48.484375 
Q 22.953125 48.484375 18.875 42.84375 
Q 14.796875 37.203125 14.796875 27.296875 
" id="DejaVuSans-64"/>
      <path d="M 8.59375 75.984375 
L 29.296875 75.984375 
L 29.296875 69 
L 17.578125 69 
L 17.578125 -6.203125 
L 29.296875 -6.203125 
L 29.296875 -13.1875 
L 8.59375 -13.1875 
z
" id="DejaVuSans-5b"/>
      <path d="M 30.421875 75.984375 
L 30.421875 -13.1875 
L 9.71875 -13.1875 
L 9.71875 -6.203125 
L 21.390625 -6.203125 
L 21.390625 69 
L 9.71875 69 
L 9.71875 75.984375 
z
" id="DejaVuSans-5d"/>
     </defs>
     <g transform="translate(105.226875 420.35825)scale(0.144 -0.144)">
      <use xlink:href="#DejaVuSans-46"/>
      <use x="57.410156" xlink:href="#DejaVuSans-72"/>
      <use x="98.492188" xlink:href="#DejaVuSans-65"/>
      <use x="160.015625" xlink:href="#DejaVuSans-71"/>
      <use x="223.492188" xlink:href="#DejaVuSans-75"/>
      <use x="286.871094" xlink:href="#DejaVuSans-65"/>
      <use x="348.394531" xlink:href="#DejaVuSans-6e"/>
      <use x="411.773438" xlink:href="#DejaVuSans-63"/>
      <use x="466.753906" xlink:href="#DejaVuSans-79"/>
      <use x="525.933594" xlink:href="#DejaVuSans-20"/>
      <use x="557.720703" xlink:href="#DejaVuSans-6f"/>
      <use x="618.902344" xlink:href="#DejaVuSans-66"/>
      <use x="654.107422" xlink:href="#DejaVuSans-20"/>
      <use x="685.894531" xlink:href="#DejaVuSans-4e"/>
      <use x="760.699219" xlink:href="#DejaVuSans-75"/>
      <use x="824.078125" xlink:href="#DejaVuSans-63"/>
      <use x="879.058594" xlink:href="#DejaVuSans-6c"/>
      <use x="906.841797" xlink:href="#DejaVuSans-65"/>
      <use x="968.365234" xlink:href="#DejaVuSans-6f"/>
      <use x="1029.546875" xlink:href="#DejaVuSans-74"/>
      <use x="1068.755859" xlink:href="#DejaVuSans-69"/>
      <use x="1096.539062" xlink:href="#DejaVuSans-64"/>
      <use x="1160.015625" xlink:href="#DejaVuSans-65"/>
      <use x="1221.539062" xlink:href="#DejaVuSans-20"/>
      <use x="1253.326172" xlink:href="#DejaVuSans-5b"/>
      <use x="1292.339844" xlink:href="#DejaVuSans-63"/>
      <use x="1347.320312" xlink:href="#DejaVuSans-6f"/>
      <use x="1408.501953" xlink:href="#DejaVuSans-75"/>
      <use x="1471.880859" xlink:href="#DejaVuSans-6e"/>
      <use x="1535.259766" xlink:href="#DejaVuSans-74"/>
      <use x="1574.46875" xlink:href="#DejaVuSans-5d"/>
     </g>
    </g>
   </g>
   <g id="matplotlib.axis_2">
    <g id="ytick_1">
     <g id="text_8">
      <!-- 0.0 -->
      <g transform="translate(24.0995 389.950875)scale(0.144 -0.144)">
       <use xlink:href="#DejaVuSans-30"/>
       <use x="63.623047" xlink:href="#DejaVuSans-2e"/>
       <use x="95.410156" xlink:href="#DejaVuSans-30"/>
      </g>
     </g>
    </g>
    <g id="ytick_2">
     <g id="text_9">
      <!-- 0.2 -->
      <g transform="translate(24.0995 323.422875)scale(0.144 -0.144)">
       <use xlink:href="#DejaVuSans-30"/>
       <use x="63.623047" xlink:href="#DejaVuSans-2e"/>
       <use x="95.410156" xlink:href="#DejaVuSans-32"/>
      </g>
     </g>
    </g>
    <g id="ytick_3">
     <g id="text_10">
      <!-- 0.4 -->
      <g transform="translate(24.0995 256.894875)scale(0.144 -0.144)">
       <use xlink:href="#DejaVuSans-30"/>
       <use x="63.623047" xlink:href="#DejaVuSans-2e"/>
       <use x="95.410156" xlink:href="#DejaVuSans-34"/>
      </g>
     </g>
    </g>
    <g id="ytick_4">
     <g id="text_11">
      <!-- 0.6 -->
      <g transform="translate(24.0995 190.366875)scale(0.144 -0.144)">
       <use xlink:href="#DejaVuSans-30"/>
       <use x="63.623047" xlink:href="#DejaVuSans-2e"/>
       <use x="95.410156" xlink:href="#DejaVuSans-36"/>
      </g>
     </g>
    </g>
    <g id="ytick_5">
     <g id="text_12">
      <!-- 0.8 -->
      <g transform="translate(24.0995 123.838875)scale(0.144 -0.144)">
       <use xlink:href="#DejaVuSans-30"/>
       <use x="63.623047" xlink:href="#DejaVuSans-2e"/>
       <use x="95.410156" xlink:href="#DejaVuSans-38"/>
      </g>
     </g>
    </g>
    <g id="ytick_6">
     <g id="text_13">
      <!-- 1.0 -->
      <g transform="translate(24.0995 57.310875)scale(0.144 -0.144)">
       <use xlink:href="#DejaVuSans-31"/>
       <use x="63.623047" xlink:href="#DejaVuSans-2e"/>
       <use x="95.410156" xlink:href="#DejaVuSans-30"/>
      </g>
     </g>
    </g>
    <g id="text_14">
     <!-- Relative Frequency (%) -->
     <defs>
      <path d="M 44.390625 34.1875 
Q 47.5625 33.109375 50.5625 29.59375 
Q 53.5625 26.078125 56.59375 19.921875 
L 66.609375 0 
L 56 0 
L 46.6875 18.703125 
Q 43.0625 26.03125 39.671875 28.421875 
Q 36.28125 30.8125 30.421875 30.8125 
L 19.671875 30.8125 
L 19.671875 0 
L 9.8125 0 
L 9.8125 72.90625 
L 32.078125 72.90625 
Q 44.578125 72.90625 50.734375 67.671875 
Q 56.890625 62.453125 56.890625 51.90625 
Q 56.890625 45.015625 53.6875 40.46875 
Q 50.484375 35.9375 44.390625 34.1875 
M 19.671875 64.796875 
L 19.671875 38.921875 
L 32.078125 38.921875 
Q 39.203125 38.921875 42.84375 42.21875 
Q 46.484375 45.515625 46.484375 51.90625 
Q 46.484375 58.296875 42.84375 61.546875 
Q 39.203125 64.796875 32.078125 64.796875 
z
" id="DejaVuSans-52"/>
      <path d="M 34.28125 27.484375 
Q 23.390625 27.484375 19.1875 25 
Q 14.984375 22.515625 14.984375 16.5 
Q 14.984375 11.71875 18.140625 8.90625 
Q 21.296875 6.109375 26.703125 6.109375 
Q 34.1875 6.109375 38.703125 11.40625 
Q 43.21875 16.703125 43.21875 25.484375 
L 43.21875 27.484375 
z
M 52.203125 31.203125 
L 52.203125 0 
L 43.21875 0 
L 43.21875 8.296875 
Q 40.140625 3.328125 35.546875 0.953125 
Q 30.953125 -1.421875 24.3125 -1.421875 
Q 15.921875 -1.421875 10.953125 3.296875 
Q 6 8.015625 6 15.921875 
Q 6 25.140625 12.171875 29.828125 
Q 18.359375 34.515625 30.609375 34.515625 
L 43.21875 34.515625 
L 43.21875 35.40625 
Q 43.21875 41.609375 39.140625 45 
Q 35.0625 48.390625 27.6875 48.390625 
Q 23 48.390625 18.546875 47.265625 
Q 14.109375 46.140625 10.015625 43.890625 
L 10.015625 52.203125 
Q 14.9375 54.109375 19.578125 55.046875 
Q 24.21875 56 28.609375 56 
Q 40.484375 56 46.34375 49.84375 
Q 52.203125 43.703125 52.203125 31.203125 
" id="DejaVuSans-61"/>
      <path d="M 2.984375 54.6875 
L 12.5 54.6875 
L 29.59375 8.796875 
L 46.6875 54.6875 
L 56.203125 54.6875 
L 35.6875 0 
L 23.484375 0 
z
" id="DejaVuSans-76"/>
      <path d="M 31 75.875 
Q 24.46875 64.65625 21.28125 53.65625 
Q 18.109375 42.671875 18.109375 31.390625 
Q 18.109375 20.125 21.3125 9.0625 
Q 24.515625 -2 31 -13.1875 
L 23.1875 -13.1875 
Q 15.875 -1.703125 12.234375 9.375 
Q 8.59375 20.453125 8.59375 31.390625 
Q 8.59375 42.28125 12.203125 53.3125 
Q 15.828125 64.359375 23.1875 75.875 
z
" id="DejaVuSans-28"/>
      <path d="M 72.703125 32.078125 
Q 68.453125 32.078125 66.03125 28.46875 
Q 63.625 24.859375 63.625 18.40625 
Q 63.625 12.0625 66.03125 8.421875 
Q 68.453125 4.78125 72.703125 4.78125 
Q 76.859375 4.78125 79.265625 8.421875 
Q 81.6875 12.0625 81.6875 18.40625 
Q 81.6875 24.8125 79.265625 28.4375 
Q 76.859375 32.078125 72.703125 32.078125 
M 72.703125 38.28125 
Q 80.421875 38.28125 84.953125 32.90625 
Q 89.5 27.546875 89.5 18.40625 
Q 89.5 9.28125 84.9375 3.921875 
Q 80.375 -1.421875 72.703125 -1.421875 
Q 64.890625 -1.421875 60.34375 3.921875 
Q 55.8125 9.28125 55.8125 18.40625 
Q 55.8125 27.59375 60.375 32.9375 
Q 64.9375 38.28125 72.703125 38.28125 
M 22.3125 68.015625 
Q 18.109375 68.015625 15.6875 64.375 
Q 13.28125 60.75 13.28125 54.390625 
Q 13.28125 47.953125 15.671875 44.328125 
Q 18.0625 40.71875 22.3125 40.71875 
Q 26.5625 40.71875 28.96875 44.328125 
Q 31.390625 47.953125 31.390625 54.390625 
Q 31.390625 60.6875 28.953125 64.34375 
Q 26.515625 68.015625 22.3125 68.015625 
M 66.40625 74.21875 
L 74.21875 74.21875 
L 28.609375 -1.421875 
L 20.796875 -1.421875 
z
M 22.3125 74.21875 
Q 30.03125 74.21875 34.609375 68.875 
Q 39.203125 63.53125 39.203125 54.390625 
Q 39.203125 45.171875 34.640625 39.84375 
Q 30.078125 34.515625 22.3125 34.515625 
Q 14.546875 34.515625 10.03125 39.859375 
Q 5.515625 45.21875 5.515625 54.390625 
Q 5.515625 63.484375 10.046875 68.84375 
Q 14.59375 74.21875 22.3125 74.21875 
" id="DejaVuSans-25"/>
      <path d="M 8.015625 75.875 
L 15.828125 75.875 
Q 23.140625 64.359375 26.78125 53.3125 
Q 30.421875 42.28125 30.421875 31.390625 
Q 30.421875 20.453125 26.78125 9.375 
Q 23.140625 -1.703125 15.828125 -13.1875 
L 8.015625 -13.1875 
Q 14.5 -2 17.703125 9.0625 
Q 20.90625 20.125 20.90625 31.390625 
Q 20.90625 42.671875 17.703125 53.65625 
Q 14.5 64.65625 8.015625 75.875 
" id="DejaVuSans-29"/>
     </defs>
     <g transform="translate(17.10475 302.42025)rotate(-90)scale(0.144 -0.144)">
      <use xlink:href="#DejaVuSans-52"/>
      <use x="69.419922" xlink:href="#DejaVuSans-65"/>
      <use x="130.943359" xlink:href="#DejaVuSans-6c"/>
      <use x="158.726562" xlink:href="#DejaVuSans-61"/>
      <use x="220.005859" xlink:href="#DejaVuSans-74"/>
      <use x="259.214844" xlink:href="#DejaVuSans-69"/>
      <use x="286.998047" xlink:href="#DejaVuSans-76"/>
      <use x="346.177734" xlink:href="#DejaVuSans-65"/>
      <use x="407.701172" xlink:href="#DejaVuSans-20"/>
      <use x="439.488281" xlink:href="#DejaVuSans-46"/>
      <use x="496.898438" xlink:href="#DejaVuSans-72"/>
      <use x="537.980469" xlink:href="#DejaVuSans-65"/>
      <use x="599.503906" xlink:href="#DejaVuSans-71"/>
      <use x="662.980469" xlink:href="#DejaVuSans-75"/>
      <use x="726.359375" xlink:href="#DejaVuSans-65"/>
      <use x="787.882812" xlink:href="#DejaVuSans-6e"/>
      <use x="851.261719" xlink:href="#DejaVuSans-63"/>
      <use x="906.242188" xlink:href="#DejaVuSans-79"/>
      <use x="965.421875" xlink:href="#DejaVuSans-20"/>
      <use x="997.208984" xlink:href="#DejaVuSans-28"/>
      <use x="1036.222656" xlink:href="#DejaVuSans-25"/>
      <use x="1131.242188" xlink:href="#DejaVuSans-29"/>
     </g>
    </g>
   </g>
  </g>
  <g id="axes_2">
   <g id="patch_2">
    <path d="M 54 203.04 
L 388.8 203.04 
L 388.8 51.84 
L 54 51.84 
z
" style="fill:#ffffff;"/>
   </g>
   <g id="patch_3">
    <path clip-path="url(#p2c26b95304)" d="M 69.218182 203.04 
L 85.237321 203.04 
L 85.237321 203.04 
L 69.218182 203.04 
z
" style="fill:#440154;opacity:0.5;"/>
   </g>
   <g id="patch_4">
    <path clip-path="url(#p2c26b95304)" d="M 85.237321 203.04 
L 101.256459 203.04 
L 101.256459 203.04 
L 85.237321 203.04 
z
" style="fill:#440154;opacity:0.5;"/>
   </g>
   <g id="patch_5">
    <path clip-path="url(#p2c26b95304)" d="M 101.256459 203.04 
L 117.275598 203.04 
L 117.275598 203.04 
L 101.256459 203.04 
z
" style="fill:#440154;opacity:0.5;"/>
   </g>
   <g id="patch_6">
    <path clip-path="url(#p2c26b95304)" d="M 117.275598 203.04 
L 133.294737 203.04 
L 133.294737 203.04 
L 117.275598 203.04 
z
" style="fill:#440154;opacity:0.5;"/>
   </g>
   <g id="patch_7">
    <path clip-path="url(#p2c26b95304)" d="M 133.294737 203.04 
L 149.313876 203.04 
L 149.313876 203.04 
L 133.294737 203.04 
z
" style="fill:#440154;opacity:0.5;"/>
   </g>
   <g id="patch_8">
    <path clip-path="url(#p2c26b95304)" d="M 149.313876 203.04 
L 165.333014 203.04 
L 165.333014 203.04 
L 149.313876 203.04 
z
" style="fill:#440154;opacity:0.5;"/>
   </g>
   <g id="patch_9">
    <path clip-path="url(#p2c26b95304)" d="M 165.333014 203.04 
L 181.352153 203.04 
L 181.352153 203.04 
L 165.333014 203.04 
z
" style="fill:#440154;opacity:0.5;"/>
   </g>
   <g id="patch_10">
    <path clip-path="url(#p2c26b95304)" d="M 181.352153 203.04 
L 197.371292 203.04 
L 197.371292 203.04 
L 181.352153 203.04 
z
" style="fill:#440154;opacity:0.5;"/>
   </g>
   <g id="patch_11">
    <path clip-path="url(#p2c26b95304)" d="M 197.371292 203.04 
L 213.390431 203.04 
L 213.390431 203.04 
L 197.371292 203.04 
z
" style="fill:#440154;opacity:0.5;"/>
   </g>
   <g id="patch_12">
    <path clip-path="url(#p2c26b95304)" d="M 213.390431 203.04 
L 229.409569 203.04 
L 229.409569 93.15 
L 213.390431 93.15 
z
" style="fill:#440154;opacity:0.5;"/>
   </g>
   <g id="patch_13">
    <path clip-path="url(#p2c26b95304)" d="M 229.409569 203.04 
L 245.428708 203.04 
L 245.428708 192.24 
L 229.409569 192.24 
z
" style="fill:#440154;opacity:0.5;"/>
   </g>
   <g id="patch_14">
    <path clip-path="url(#p2c26b95304)" d="M 245.428708 203.04 
L 261.447847 203.04 
L 261.447847 202.77 
L 245.428708 202.77 
z
" style="fill:#440154;opacity:0.5;"/>
   </g>
   <g id="patch_15">
    <path clip-path="url(#p2c26b95304)" d="M 261.447847 203.04 
L 277.466986 203.04 
L 277.466986 203.04 
L 261.447847 203.04 
z
" style="fill:#440154;opacity:0.5;"/>
   </g>
   <g id="patch_16">
    <path clip-path="url(#p2c26b95304)" d="M 277.466986 203.04 
L 293.486124 203.04 
L 293.486124 203.04 
L 277.466986 203.04 
z
" style="fill:#440154;opacity:0.5;"/>
   </g>
   <g id="patch_17">
    <path clip-path="url(#p2c26b95304)" d="M 293.486124 203.04 
L 309.505263 203.04 
L 309.505263 203.04 
L 293.486124 203.04 
z
" style="fill:#440154;opacity:0.5;"/>
   </g>
   <g id="patch_18">
    <path clip-path="url(#p2c26b95304)" d="M 309.505263 203.04 
L 325.524402 203.04 
L 325.524402 203.04 
L 309.505263 203.04 
z
" style="fill:#440154;opacity:0.5;"/>
   </g>
   <g id="patch_19">
    <path clip-path="url(#p2c26b95304)" d="M 325.524402 203.04 
L 341.543541 203.04 
L 341.543541 203.04 
L 325.524402 203.04 
z
" style="fill:#440154;opacity:0.5;"/>
   </g>
   <g id="patch_20">
    <path clip-path="url(#p2c26b95304)" d="M 341.543541 203.04 
L 357.562679 203.04 
L 357.562679 203.04 
L 341.543541 203.04 
z
" style="fill:#440154;opacity:0.5;"/>
   </g>
   <g id="patch_21">
    <path clip-path="url(#p2c26b95304)" d="M 357.562679 203.04 
L 373.581818 203.04 
L 373.581818 203.04 
L 357.562679 203.04 
z
" style="fill:#440154;opacity:0.5;"/>
   </g>
   <g id="patch_22">
    <path clip-path="url(#p2c26b95304)" d="M 69.218182 203.04 
L 85.237321 203.04 
L 85.237321 203.04 
L 69.218182 203.04 
z
" style="fill:#414487;opacity:0.5;"/>
   </g>
   <g id="patch_23">
    <path clip-path="url(#p2c26b95304)" d="M 85.237321 203.04 
L 101.256459 203.04 
L 101.256459 202.31424 
L 85.237321 202.31424 
z
" style="fill:#414487;opacity:0.5;"/>
   </g>
   <g id="patch_24">
    <path clip-path="url(#p2c26b95304)" d="M 101.256459 203.04 
L 117.275598 203.04 
L 117.275598 172.31616 
L 101.256459 172.31616 
z
" style="fill:#414487;opacity:0.5;"/>
   </g>
   <g id="patch_25">
    <path clip-path="url(#p2c26b95304)" d="M 117.275598 203.04 
L 133.294737 203.04 
L 133.294737 149.45472 
L 117.275598 149.45472 
z
" style="fill:#414487;opacity:0.5;"/>
   </g>
   <g id="patch_26">
    <path clip-path="url(#p2c26b95304)" d="M 133.294737 203.04 
L 149.313876 203.04 
L 149.313876 170.50176 
L 133.294737 170.50176 
z
" style="fill:#414487;opacity:0.5;"/>
   </g>
   <g id="patch_27">
    <path clip-path="url(#p2c26b95304)" d="M 149.313876 203.04 
L 165.333014 203.04 
L 165.333014 199.65312 
L 149.313876 199.65312 
z
" style="fill:#414487;opacity:0.5;"/>
   </g>
   <g id="patch_28">
    <path clip-path="url(#p2c26b95304)" d="M 165.333014 203.04 
L 181.352153 203.04 
L 181.352153 203.04 
L 165.333014 203.04 
z
" style="fill:#414487;opacity:0.5;"/>
   </g>
   <g id="patch_29">
    <path clip-path="url(#p2c26b95304)" d="M 181.352153 203.04 
L 197.371292 203.04 
L 197.371292 203.04 
L 181.352153 203.04 
z
" style="fill:#414487;opacity:0.5;"/>
   </g>
   <g id="patch_30">
    <path clip-path="url(#p2c26b95304)" d="M 197.371292 203.04 
L 213.390431 203.04 
L 213.390431 203.04 
L 197.371292 203.04 
z
" style="fill:#414487;opacity:0.5;"/>
   </g>
   <g id="patch_31">
    <path clip-path="url(#p2c26b95304)" d="M 213.390431 203.04 
L 229.409569 203.04 
L 229.409569 203.04 
L 213.390431 203.04 
z
" style="fill:#414487;opacity:0.5;"/>
   </g>
   <g id="patch_32">
    <path clip-path="url(#p2c26b95304)" d="M 229.409569 203.04 
L 245.428708 203.04 
L 245.428708 203.04 
L 229.409569 203.04 
z
" style="fill:#414487;opacity:0.5;"/>
   </g>
   <g id="patch_33">
    <path clip-path="url(#p2c26b95304)" d="M 245.428708 203.04 
L 261.447847 203.04 
L 261.447847 203.04 
L 245.428708 203.04 
z
" style="fill:#414487;opacity:0.5;"/>
   </g>
   <g id="patch_34">
    <path clip-path="url(#p2c26b95304)" d="M 261.447847 203.04 
L 277.466986 203.04 
L 277.466986 203.04 
L 261.447847 203.04 
z
" style="fill:#414487;opacity:0.5;"/>
   </g>
   <g id="patch_35">
    <path clip-path="url(#p2c26b95304)" d="M 277.466986 203.04 
L 293.486124 203.04 
L 293.486124 203.04 
L 277.466986 203.04 
z
" style="fill:#414487;opacity:0.5;"/>
   </g>
   <g id="patch_36">
    <path clip-path="url(#p2c26b95304)" d="M 293.486124 203.04 
L 309.505263 203.04 
L 309.505263 203.04 
L 293.486124 203.04 
z
" style="fill:#414487;opacity:0.5;"/>
   </g>
   <g id="patch_37">
    <path clip-path="url(#p2c26b95304)" d="M 309.505263 203.04 
L 325.524402 203.04 
L 325.524402 203.04 
L 309.505263 203.04 
z
" style="fill:#414487;opacity:0.5;"/>
   </g>
   <g id="patch_38">
    <path clip-path="url(#p2c26b95304)" d="M 325.524402 203.04 
L 341.543541 203.04 
L 341.543541 203.04 
L 325.524402 203.04 
z
" style="fill:#414487;opacity:0.5;"/>
   </g>
   <g id="patch_39">
    <path clip-path="url(#p2c26b95304)" d="M 341.543541 203.04 
L 357.562679 203.04 
L 357.562679 203.04 
L 341.543541 203.04 
z
" style="fill:#414487;opacity:0.5;"/>
   </g>
   <g id="patch_40">
    <path clip-path="url(#p2c26b95304)" d="M 357.562679 203.04 
L 373.581818 203.04 
L 373.581818 203.04 
L 357.562679 203.04 
z
" style="fill:#414487;opacity:0.5;"/>
   </g>
   <g id="patch_41">
    <path clip-path="url(#p2c26b95304)" d="M 69.218182 203.04 
L 85.237321 203.04 
L 85.237321 203.04 
L 69.218182 203.04 
z
" style="fill:#2a788e;opacity:0.5;"/>
   </g>
   <g id="patch_42">
    <path clip-path="url(#p2c26b95304)" d="M 85.237321 203.04 
L 101.256459 203.04 
L 101.256459 203.04 
L 85.237321 203.04 
z
" style="fill:#2a788e;opacity:0.5;"/>
   </g>
   <g id="patch_43">
    <path clip-path="url(#p2c26b95304)" d="M 101.256459 203.04 
L 117.275598 203.04 
L 117.275598 203.04 
L 101.256459 203.04 
z
" style="fill:#2a788e;opacity:0.5;"/>
   </g>
   <g id="patch_44">
    <path clip-path="url(#p2c26b95304)" d="M 117.275598 203.04 
L 133.294737 203.04 
L 133.294737 203.04 
L 117.275598 203.04 
z
" style="fill:#2a788e;opacity:0.5;"/>
   </g>
   <g id="patch_45">
    <path clip-path="url(#p2c26b95304)" d="M 133.294737 203.04 
L 149.313876 203.04 
L 149.313876 203.04 
L 133.294737 203.04 
z
" style="fill:#2a788e;opacity:0.5;"/>
   </g>
   <g id="patch_46">
    <path clip-path="url(#p2c26b95304)" d="M 149.313876 203.04 
L 165.333014 203.04 
L 165.333014 203.04 
L 149.313876 203.04 
z
" style="fill:#2a788e;opacity:0.5;"/>
   </g>
   <g id="patch_47">
    <path clip-path="url(#p2c26b95304)" d="M 165.333014 203.04 
L 181.352153 203.04 
L 181.352153 203.04 
L 165.333014 203.04 
z
" style="fill:#2a788e;opacity:0.5;"/>
   </g>
   <g id="patch_48">
    <path clip-path="url(#p2c26b95304)" d="M 181.352153 203.04 
L 197.371292 203.04 
L 197.371292 203.04 
L 181.352153 203.04 
z
" style="fill:#2a788e;opacity:0.5;"/>
   </g>
   <g id="patch_49">
    <path clip-path="url(#p2c26b95304)" d="M 197.371292 203.04 
L 213.390431 203.04 
L 213.390431 203.04 
L 197.371292 203.04 
z
" style="fill:#2a788e;opacity:0.5;"/>
   </g>
   <g id="patch_50">
    <path clip-path="url(#p2c26b95304)" d="M 213.390431 203.04 
L 229.409569 203.04 
L 229.409569 82.08 
L 213.390431 82.08 
z
" style="fill:#2a788e;opacity:0.5;"/>
   </g>
   <g id="patch_51">
    <path clip-path="url(#p2c26b95304)" d="M 229.409569 203.04 
L 245.428708 203.04 
L 245.428708 203.04 
L 229.409569 203.04 
z
" style="fill:#2a788e;opacity:0.5;"/>
   </g>
   <g id="patch_52">
    <path clip-path="url(#p2c26b95304)" d="M 245.428708 203.04 
L 261.447847 203.04 
L 261.447847 203.04 
L 245.428708 203.04 
z
" style="fill:#2a788e;opacity:0.5;"/>
   </g>
   <g id="patch_53">
    <path clip-path="url(#p2c26b95304)" d="M 261.447847 203.04 
L 277.466986 203.04 
L 277.466986 203.04 
L 261.447847 203.04 
z
" style="fill:#2a788e;opacity:0.5;"/>
   </g>
   <g id="patch_54">
    <path clip-path="url(#p2c26b95304)" d="M 277.466986 203.04 
L 293.486124 203.04 
L 293.486124 203.04 
L 277.466986 203.04 
z
" style="fill:#2a788e;opacity:0.5;"/>
   </g>
   <g id="patch_55">
    <path clip-path="url(#p2c26b95304)" d="M 293.486124 203.04 
L 309.505263 203.04 
L 309.505263 203.04 
L 293.486124 203.04 
z
" style="fill:#2a788e;opacity:0.5;"/>
   </g>
   <g id="patch_56">
    <path clip-path="url(#p2c26b95304)" d="M 309.505263 203.04 
L 325.524402 203.04 
L 325.524402 203.04 
L 309.505263 203.04 
z
" style="fill:#2a788e;opacity:0.5;"/>
   </g>
   <g id="patch_57">
    <path clip-path="url(#p2c26b95304)" d="M 325.524402 203.04 
L 341.543541 203.04 
L 341.543541 203.04 
L 325.524402 203.04 
z
" style="fill:#2a788e;opacity:0.5;"/>
   </g>
   <g id="patch_58">
    <path clip-path="url(#p2c26b95304)" d="M 341.543541 203.04 
L 357.562679 203.04 
L 357.562679 203.04 
L 341.543541 203.04 
z
" style="fill:#2a788e;opacity:0.5;"/>
   </g>
   <g id="patch_59">
    <path clip-path="url(#p2c26b95304)" d="M 357.562679 203.04 
L 373.581818 203.04 
L 373.581818 203.04 
L 357.562679 203.04 
z
" style="fill:#2a788e;opacity:0.5;"/>
   </g>
   <g id="patch_60">
    <path clip-path="url(#p2c26b95304)" d="M 69.218182 203.04 
L 85.237321 203.04 
L 85.237321 203.04 
L 69.218182 203.04 
z
" style="fill:#22a884;opacity:0.5;"/>
   </g>
   <g id="patch_61">
    <path clip-path="url(#p2c26b95304)" d="M 85.237321 203.04 
L 101.256459 203.04 
L 101.256459 203.04 
L 85.237321 203.04 
z
" style="fill:#22a884;opacity:0.5;"/>
   </g>
   <g id="patch_62">
    <path clip-path="url(#p2c26b95304)" d="M 101.256459 203.04 
L 117.275598 203.04 
L 117.275598 203.04 
L 101.256459 203.04 
z
" style="fill:#22a884;opacity:0.5;"/>
   </g>
   <g id="patch_63">
    <path clip-path="url(#p2c26b95304)" d="M 117.275598 203.04 
L 133.294737 203.04 
L 133.294737 203.04 
L 117.275598 203.04 
z
" style="fill:#22a884;opacity:0.5;"/>
   </g>
   <g id="patch_64">
    <path clip-path="url(#p2c26b95304)" d="M 133.294737 203.04 
L 149.313876 203.04 
L 149.313876 203.04 
L 133.294737 203.04 
z
" style="fill:#22a884;opacity:0.5;"/>
   </g>
   <g id="patch_65">
    <path clip-path="url(#p2c26b95304)" d="M 149.313876 203.04 
L 165.333014 203.04 
L 165.333014 203.04 
L 149.313876 203.04 
z
" style="fill:#22a884;opacity:0.5;"/>
   </g>
   <g id="patch_66">
    <path clip-path="url(#p2c26b95304)" d="M 165.333014 203.04 
L 181.352153 203.04 
L 181.352153 201.95136 
L 165.333014 201.95136 
z
" style="fill:#22a884;opacity:0.5;"/>
   </g>
   <g id="patch_67">
    <path clip-path="url(#p2c26b95304)" d="M 181.352153 203.04 
L 197.371292 203.04 
L 197.371292 199.04832 
L 181.352153 199.04832 
z
" style="fill:#22a884;opacity:0.5;"/>
   </g>
   <g id="patch_68">
    <path clip-path="url(#p2c26b95304)" d="M 197.371292 203.04 
L 213.390431 203.04 
L 213.390431 185.37984 
L 197.371292 185.37984 
z
" style="fill:#22a884;opacity:0.5;"/>
   </g>
   <g id="patch_69">
    <path clip-path="url(#p2c26b95304)" d="M 213.390431 203.04 
L 229.409569 203.04 
L 229.409569 169.29216 
L 213.390431 169.29216 
z
" style="fill:#22a884;opacity:0.5;"/>
   </g>
   <g id="patch_70">
    <path clip-path="url(#p2c26b95304)" d="M 229.409569 203.04 
L 245.428708 203.04 
L 245.428708 164.69568 
L 229.409569 164.69568 
z
" style="fill:#22a884;opacity:0.5;"/>
   </g>
   <g id="patch_71">
    <path clip-path="url(#p2c26b95304)" d="M 245.428708 203.04 
L 261.447847 203.04 
L 261.447847 180.90432 
L 245.428708 180.90432 
z
" style="fill:#22a884;opacity:0.5;"/>
   </g>
   <g id="patch_72">
    <path clip-path="url(#p2c26b95304)" d="M 261.447847 203.04 
L 277.466986 203.04 
L 277.466986 199.65312 
L 261.447847 199.65312 
z
" style="fill:#22a884;opacity:0.5;"/>
   </g>
   <g id="patch_73">
    <path clip-path="url(#p2c26b95304)" d="M 277.466986 203.04 
L 293.486124 203.04 
L 293.486124 202.4352 
L 277.466986 202.4352 
z
" style="fill:#22a884;opacity:0.5;"/>
   </g>
   <g id="patch_74">
    <path clip-path="url(#p2c26b95304)" d="M 293.486124 203.04 
L 309.505263 203.04 
L 309.505263 203.04 
L 293.486124 203.04 
z
" style="fill:#22a884;opacity:0.5;"/>
   </g>
   <g id="patch_75">
    <path clip-path="url(#p2c26b95304)" d="M 309.505263 203.04 
L 325.524402 203.04 
L 325.524402 203.04 
L 309.505263 203.04 
z
" style="fill:#22a884;opacity:0.5;"/>
   </g>
   <g id="patch_76">
    <path clip-path="url(#p2c26b95304)" d="M 325.524402 203.04 
L 341.543541 203.04 
L 341.543541 203.04 
L 325.524402 203.04 
z
" style="fill:#22a884;opacity:0.5;"/>
   </g>
   <g id="patch_77">
    <path clip-path="url(#p2c26b95304)" d="M 341.543541 203.04 
L 357.562679 203.04 
L 357.562679 203.04 
L 341.543541 203.04 
z
" style="fill:#22a884;opacity:0.5;"/>
   </g>
   <g id="patch_78">
    <path clip-path="url(#p2c26b95304)" d="M 357.562679 203.04 
L 373.581818 203.04 
L 373.581818 203.04 
L 357.562679 203.04 
z
" style="fill:#22a884;opacity:0.5;"/>
   </g>
   <g id="matplotlib.axis_3">
    <g id="xtick_7">
     <g id="line2d_1">
      <defs>
       <path d="M 0 0 
L 0 3.5 
" id="m72e4f67f62" style="stroke:#000000;stroke-width:0.8;"/>
      </defs>
      <g>
       <use style="stroke:#000000;stroke-width:0.8;" x="69.218182" xlink:href="#m72e4f67f62" y="203.04"/>
      </g>
     </g>
     <g id="text_15">
      <!-- 0.0 -->
      <g transform="translate(57.767932 220.98175)scale(0.144 -0.144)">
       <use xlink:href="#DejaVuSans-30"/>
       <use x="63.623047" xlink:href="#DejaVuSans-2e"/>
       <use x="95.410156" xlink:href="#DejaVuSans-30"/>
      </g>
     </g>
    </g>
    <g id="xtick_8">
     <g id="line2d_2">
      <g>
       <use style="stroke:#000000;stroke-width:0.8;" x="133.294737" xlink:href="#m72e4f67f62" y="203.04"/>
      </g>
     </g>
     <g id="text_16">
      <!-- 0.2 -->
      <g transform="translate(121.844487 220.98175)scale(0.144 -0.144)">
       <use xlink:href="#DejaVuSans-30"/>
       <use x="63.623047" xlink:href="#DejaVuSans-2e"/>
       <use x="95.410156" xlink:href="#DejaVuSans-32"/>
      </g>
     </g>
    </g>
    <g id="xtick_9">
     <g id="line2d_3">
      <g>
       <use style="stroke:#000000;stroke-width:0.8;" x="197.371292" xlink:href="#m72e4f67f62" y="203.04"/>
      </g>
     </g>
     <g id="text_17">
      <!-- 0.4 -->
      <g transform="translate(185.921042 220.98175)scale(0.144 -0.144)">
       <use xlink:href="#DejaVuSans-30"/>
       <use x="63.623047" xlink:href="#DejaVuSans-2e"/>
       <use x="95.410156" xlink:href="#DejaVuSans-34"/>
      </g>
     </g>
    </g>
    <g id="xtick_10">
     <g id="line2d_4">
      <g>
       <use style="stroke:#000000;stroke-width:0.8;" x="261.447847" xlink:href="#m72e4f67f62" y="203.04"/>
      </g>
     </g>
     <g id="text_18">
      <!-- 0.6 -->
      <g transform="translate(249.997597 220.98175)scale(0.144 -0.144)">
       <use xlink:href="#DejaVuSans-30"/>
       <use x="63.623047" xlink:href="#DejaVuSans-2e"/>
       <use x="95.410156" xlink:href="#DejaVuSans-36"/>
      </g>
     </g>
    </g>
    <g id="xtick_11">
     <g id="line2d_5">
      <g>
       <use style="stroke:#000000;stroke-width:0.8;" x="325.524402" xlink:href="#m72e4f67f62" y="203.04"/>
      </g>
     </g>
     <g id="text_19">
      <!-- 0.8 -->
      <g transform="translate(314.074152 220.98175)scale(0.144 -0.144)">
       <use xlink:href="#DejaVuSans-30"/>
       <use x="63.623047" xlink:href="#DejaVuSans-2e"/>
       <use x="95.410156" xlink:href="#DejaVuSans-38"/>
      </g>
     </g>
    </g>
   </g>
   <g id="matplotlib.axis_4">
    <g id="ytick_7">
     <g id="line2d_6">
      <defs>
       <path d="M 0 0 
L -3.5 0 
" id="m03e9b3c2fc" style="stroke:#000000;stroke-width:0.8;"/>
      </defs>
      <g>
       <use style="stroke:#000000;stroke-width:0.8;" x="54" xlink:href="#m03e9b3c2fc" y="203.04"/>
      </g>
     </g>
     <g id="text_20">
      <!-- 0 -->
      <g transform="translate(37.838 208.510875)scale(0.144 -0.144)">
       <use xlink:href="#DejaVuSans-30"/>
      </g>
     </g>
    </g>
    <g id="ytick_8">
     <g id="line2d_7">
      <g>
       <use style="stroke:#000000;stroke-width:0.8;" x="54" xlink:href="#m03e9b3c2fc" y="172.8"/>
      </g>
     </g>
     <g id="text_21">
      <!-- 5 -->
      <defs>
       <path d="M 10.796875 72.90625 
L 49.515625 72.90625 
L 49.515625 64.59375 
L 19.828125 64.59375 
L 19.828125 46.734375 
Q 21.96875 47.46875 24.109375 47.828125 
Q 26.265625 48.1875 28.421875 48.1875 
Q 40.625 48.1875 47.75 41.5 
Q 54.890625 34.8125 54.890625 23.390625 
Q 54.890625 11.625 47.5625 5.09375 
Q 40.234375 -1.421875 26.90625 -1.421875 
Q 22.3125 -1.421875 17.546875 -0.640625 
Q 12.796875 0.140625 7.71875 1.703125 
L 7.71875 11.625 
Q 12.109375 9.234375 16.796875 8.0625 
Q 21.484375 6.890625 26.703125 6.890625 
Q 35.15625 6.890625 40.078125 11.328125 
Q 45.015625 15.765625 45.015625 23.390625 
Q 45.015625 31 40.078125 35.4375 
Q 35.15625 39.890625 26.703125 39.890625 
Q 22.75 39.890625 18.8125 39.015625 
Q 14.890625 38.140625 10.796875 36.28125 
z
" id="DejaVuSans-35"/>
      </defs>
      <g transform="translate(37.838 178.270875)scale(0.144 -0.144)">
       <use xlink:href="#DejaVuSans-35"/>
      </g>
     </g>
    </g>
    <g id="ytick_9">
     <g id="line2d_8">
      <g>
       <use style="stroke:#000000;stroke-width:0.8;" x="54" xlink:href="#m03e9b3c2fc" y="142.56"/>
      </g>
     </g>
     <g id="text_22">
      <!-- 10 -->
      <g transform="translate(28.676 148.030875)scale(0.144 -0.144)">
       <use xlink:href="#DejaVuSans-31"/>
       <use x="63.623047" xlink:href="#DejaVuSans-30"/>
      </g>
     </g>
    </g>
    <g id="ytick_10">
     <g id="line2d_9">
      <g>
       <use style="stroke:#000000;stroke-width:0.8;" x="54" xlink:href="#m03e9b3c2fc" y="112.32"/>
      </g>
     </g>
     <g id="text_23">
      <!-- 15 -->
      <g transform="translate(28.676 117.790875)scale(0.144 -0.144)">
       <use xlink:href="#DejaVuSans-31"/>
       <use x="63.623047" xlink:href="#DejaVuSans-35"/>
      </g>
     </g>
    </g>
    <g id="ytick_11">
     <g id="line2d_10">
      <g>
       <use style="stroke:#000000;stroke-width:0.8;" x="54" xlink:href="#m03e9b3c2fc" y="82.08"/>
      </g>
     </g>
     <g id="text_24">
      <!-- 20 -->
      <g transform="translate(28.676 87.550875)scale(0.144 -0.144)">
       <use xlink:href="#DejaVuSans-32"/>
       <use x="63.623047" xlink:href="#DejaVuSans-30"/>
      </g>
     </g>
    </g>
    <g id="ytick_12">
     <g id="line2d_11">
      <g>
       <use style="stroke:#000000;stroke-width:0.8;" x="54" xlink:href="#m03e9b3c2fc" y="51.84"/>
      </g>
     </g>
     <g id="text_25">
      <!-- 25 -->
      <g transform="translate(28.676 57.310875)scale(0.144 -0.144)">
       <use xlink:href="#DejaVuSans-32"/>
       <use x="63.623047" xlink:href="#DejaVuSans-35"/>
      </g>
     </g>
    </g>
   </g>
   <g id="line2d_12">
    <path clip-path="url(#p2c26b95304)" d="M 213.390431 126.782152 
L 216.594258 88.289763 
L 216.594258 88.289763 
L 216.594258 88.289763 
L 219.798086 73.615609 
L 219.798086 73.615609 
L 219.798086 73.615609 
L 223.001914 93.626186 
L 223.001914 93.626186 
L 223.001914 93.626186 
L 226.205742 133.709923 
L 226.205742 133.709923 
L 226.205742 133.709923 
L 229.409569 170.11205 
L 229.409569 170.11205 
L 229.409569 170.11205 
L 232.613397 191.318014 
L 232.613397 191.318014 
L 232.613397 191.318014 
L 235.817225 199.912256 
L 235.817225 199.912256 
L 235.817225 199.912256 
L 239.021053 202.414461 
L 239.021053 202.414461 
L 239.021053 202.414461 
L 242.22488 202.946228 
L 245.428708 203.029464 
L 245.428708 203.029464 
" style="fill:none;stroke:#440154;stroke-linecap:square;stroke-width:1.5;"/>
   </g>
   <g id="line2d_13">
    <path clip-path="url(#p2c26b95304)" d="M 88.441148 202.780814 
L 94.848804 201.544719 
L 98.052632 199.865178 
L 98.052632 199.865178 
L 101.256459 196.831172 
L 101.256459 196.831172 
L 104.460287 191.856086 
L 104.460287 191.856086 
L 107.664115 184.484531 
L 107.664115 184.484531 
L 110.867943 174.684066 
L 110.867943 174.684066 
L 117.275598 151.294841 
L 117.275598 151.294841 
L 120.479426 141.249249 
L 120.479426 141.249249 
L 123.683254 135.077221 
L 123.683254 135.077221 
L 126.887081 134.188614 
L 126.887081 134.188614 
L 130.090909 138.793694 
L 130.090909 138.793694 
L 133.294737 147.822399 
L 133.294737 147.822399 
L 139.702392 171.167361 
L 139.702392 171.167361 
L 142.90622 181.634315 
L 142.90622 181.634315 
L 146.110048 189.798593 
L 146.110048 189.798593 
L 149.313876 195.495455 
L 149.313876 195.495455 
L 152.517703 199.080632 
L 152.517703 199.080632 
L 155.721531 201.126129 
L 155.721531 201.126129 
L 158.925359 202.187895 
L 158.925359 202.187895 
L 162.129187 202.690564 
L 162.129187 202.690564 
" style="fill:none;stroke:#414487;stroke-linecap:square;stroke-width:1.5;"/>
   </g>
   <g id="line2d_14">
    <path clip-path="url(#p2c26b95304)" d="M 216.591281 -1 
L 216.594258 -0.851516 
L 216.594258 -0.851516 
L 216.594258 -0.851516 
L 219.798086 197.576794 
L 219.798086 197.576794 
L 219.798086 197.576794 
L 223.001914 203.033004 
L 223.001914 203.033004 
" style="fill:none;stroke:#2a788e;stroke-linecap:square;stroke-width:1.5;"/>
   </g>
   <g id="line2d_15">
    <path clip-path="url(#p2c26b95304)" d="M 168.536842 202.81743 
L 178.148325 202.01058 
L 178.148325 202.01058 
L 178.148325 202.01058 
L 181.352153 201.422911 
L 181.352153 201.422911 
L 181.352153 201.422911 
L 184.555981 200.573441 
L 184.555981 200.573441 
L 184.555981 200.573441 
L 187.759809 199.38687 
L 187.759809 199.38687 
L 187.759809 199.38687 
L 190.963636 197.786422 
L 190.963636 197.786422 
L 190.963636 197.786422 
L 194.167464 195.703965 
L 194.167464 195.703965 
L 194.167464 195.703965 
L 197.371292 193.093189 
L 197.371292 193.093189 
L 197.371292 193.093189 
L 200.57512 189.944486 
L 200.57512 189.944486 
L 200.57512 189.944486 
L 203.778947 186.299151 
L 203.778947 186.299151 
L 203.778947 186.299151 
L 206.982775 182.259851 
L 206.982775 182.259851 
L 206.982775 182.259851 
L 210.186603 177.994133 
L 210.186603 177.994133 
L 210.186603 177.994133 
L 213.390431 173.728387 
L 213.390431 173.728387 
L 213.390431 173.728387 
L 216.594258 169.731154 
L 216.594258 169.731154 
L 216.594258 169.731154 
L 219.798086 166.286753 
L 219.798086 166.286753 
L 219.798086 166.286753 
L 223.001914 163.662506 
L 223.001914 163.662506 
L 223.001914 163.662506 
L 226.205742 162.074651 
L 226.205742 162.074651 
L 226.205742 162.074651 
L 229.409569 161.658951 
L 229.409569 161.658951 
L 229.409569 161.658951 
L 232.613397 162.451541 
L 232.613397 162.451541 
L 232.613397 162.451541 
L 235.817225 164.383737 
L 235.817225 164.383737 
L 235.817225 164.383737 
L 239.021053 167.291863 
L 239.021053 167.291863 
L 239.021053 167.291863 
L 242.22488 170.940136 
L 242.22488 170.940136 
L 242.22488 170.940136 
L 245.428708 175.052172 
L 245.428708 175.052172 
L 245.428708 175.052172 
L 248.632536 179.345287 
L 248.632536 179.345287 
L 248.632536 179.345287 
L 251.836364 183.56175 
L 251.836364 183.56175 
L 251.836364 183.56175 
L 255.040191 187.492353 
L 255.040191 187.492353 
L 255.040191 187.492353 
L 258.244019 190.989762 
L 258.244019 190.989762 
L 258.244019 190.989762 
L 261.447847 193.971346 
L 261.447847 193.971346 
L 261.447847 193.971346 
L 264.651675 196.413163 
L 264.651675 196.413163 
L 264.651675 196.413163 
L 267.855502 198.337964 
L 267.855502 198.337964 
L 267.855502 198.337964 
L 271.05933 199.800471 
L 271.05933 199.800471 
L 271.05933 199.800471 
L 274.263158 200.872825 
L 274.263158 200.872825 
L 274.263158 200.872825 
L 277.466986 201.63226 
L 277.466986 201.63226 
L 277.466986 201.63226 
L 280.670813 202.152094 
L 280.670813 202.152094 
L 280.670813 202.152094 
L 293.486124 202.935309 
L 293.486124 202.935309 
" style="fill:none;stroke:#22a884;stroke-linecap:square;stroke-width:1.5;"/>
   </g>
   <g id="patch_79">
    <path d="M 54 203.04 
L 54 51.84 
" style="fill:none;stroke:#000000;stroke-linecap:square;stroke-linejoin:miter;stroke-width:0.8;"/>
   </g>
   <g id="patch_80">
    <path d="M 388.8 203.04 
L 388.8 51.84 
" style="fill:none;stroke:#000000;stroke-linecap:square;stroke-linejoin:miter;stroke-width:0.8;"/>
   </g>
   <g id="patch_81">
    <path d="M 54 203.04 
L 388.8 203.04 
" style="fill:none;stroke:#000000;stroke-linecap:square;stroke-linejoin:miter;stroke-width:0.8;"/>
   </g>
   <g id="patch_82">
    <path d="M 54 51.84 
L 388.8 51.84 
" style="fill:none;stroke:#000000;stroke-linecap:square;stroke-linejoin:miter;stroke-width:0.8;"/>
   </g>
   <g id="text_26">
    <!-- AU -->
    <defs>
     <path d="M 34.1875 63.1875 
L 20.796875 26.90625 
L 47.609375 26.90625 
z
M 28.609375 72.90625 
L 39.796875 72.90625 
L 67.578125 0 
L 57.328125 0 
L 50.6875 18.703125 
L 17.828125 18.703125 
L 11.1875 0 
L 0.78125 0 
z
" id="DejaVuSans-41"/>
     <path d="M 8.6875 72.90625 
L 18.609375 72.90625 
L 18.609375 28.609375 
Q 18.609375 16.890625 22.84375 11.734375 
Q 27.09375 6.59375 36.625 6.59375 
Q 46.09375 6.59375 50.34375 11.734375 
Q 54.59375 16.890625 54.59375 28.609375 
L 54.59375 72.90625 
L 64.5 72.90625 
L 64.5 27.390625 
Q 64.5 13.140625 57.4375 5.859375 
Q 50.390625 -1.421875 36.625 -1.421875 
Q 22.796875 -1.421875 15.734375 5.859375 
Q 8.6875 13.140625 8.6875 27.390625 
z
" id="DejaVuSans-55"/>
    </defs>
    <g transform="translate(211.20525 45.84)scale(0.144 -0.144)">
     <use xlink:href="#DejaVuSans-41"/>
     <use x="68.408203" xlink:href="#DejaVuSans-55"/>
    </g>
   </g>
   <g id="legend_1">
    <g id="patch_83">
     <path d="M 252.92925 147.906 
L 378.72 147.906 
Q 381.6 147.906 381.6 145.026 
L 381.6 61.92 
Q 381.6 59.04 378.72 59.04 
L 252.92925 59.04 
Q 250.04925 59.04 250.04925 61.92 
L 250.04925 145.026 
Q 250.04925 147.906 252.92925 147.906 
z
" style="fill:#ffffff;opacity:0.8;stroke:#cccccc;stroke-linejoin:miter;"/>
    </g>
    <g id="patch_84">
     <path d="M 255.80925 75.74175 
L 284.60925 75.74175 
L 284.60925 65.66175 
L 255.80925 65.66175 
z
" style="fill:#440154;opacity:0.5;"/>
    </g>
    <g id="text_27">
     <!-- -20,-20,-20 -->
     <defs>
      <path d="M 4.890625 31.390625 
L 31.203125 31.390625 
L 31.203125 23.390625 
L 4.890625 23.390625 
z
" id="DejaVuSans-2d"/>
      <path d="M 11.71875 12.40625 
L 22.015625 12.40625 
L 22.015625 4 
L 14.015625 -11.625 
L 7.71875 -11.625 
L 11.71875 4 
z
" id="DejaVuSans-2c"/>
     </defs>
     <g transform="translate(296.12925 75.74175)scale(0.144 -0.144)">
      <use xlink:href="#DejaVuSans-2d"/>
      <use x="36.083984" xlink:href="#DejaVuSans-32"/>
      <use x="99.707031" xlink:href="#DejaVuSans-30"/>
      <use x="163.330078" xlink:href="#DejaVuSans-2c"/>
      <use x="195.117188" xlink:href="#DejaVuSans-2d"/>
      <use x="231.201172" xlink:href="#DejaVuSans-32"/>
      <use x="294.824219" xlink:href="#DejaVuSans-30"/>
      <use x="358.447266" xlink:href="#DejaVuSans-2c"/>
      <use x="390.234375" xlink:href="#DejaVuSans-2d"/>
      <use x="426.318359" xlink:href="#DejaVuSans-32"/>
      <use x="489.941406" xlink:href="#DejaVuSans-30"/>
     </g>
    </g>
    <g id="patch_85">
     <path d="M 255.80925 96.87825 
L 284.60925 96.87825 
L 284.60925 86.79825 
L 255.80925 86.79825 
z
" style="fill:#414487;opacity:0.5;"/>
    </g>
    <g id="text_28">
     <!-- boltzmann -->
     <defs>
      <path d="M 48.6875 27.296875 
Q 48.6875 37.203125 44.609375 42.84375 
Q 40.53125 48.484375 33.40625 48.484375 
Q 26.265625 48.484375 22.1875 42.84375 
Q 18.109375 37.203125 18.109375 27.296875 
Q 18.109375 17.390625 22.1875 11.75 
Q 26.265625 6.109375 33.40625 6.109375 
Q 40.53125 6.109375 44.609375 11.75 
Q 48.6875 17.390625 48.6875 27.296875 
M 18.109375 46.390625 
Q 20.953125 51.265625 25.265625 53.625 
Q 29.59375 56 35.59375 56 
Q 45.5625 56 51.78125 48.09375 
Q 58.015625 40.1875 58.015625 27.296875 
Q 58.015625 14.40625 51.78125 6.484375 
Q 45.5625 -1.421875 35.59375 -1.421875 
Q 29.59375 -1.421875 25.265625 0.953125 
Q 20.953125 3.328125 18.109375 8.203125 
L 18.109375 0 
L 9.078125 0 
L 9.078125 75.984375 
L 18.109375 75.984375 
z
" id="DejaVuSans-62"/>
      <path d="M 5.515625 54.6875 
L 48.1875 54.6875 
L 48.1875 46.484375 
L 14.40625 7.171875 
L 48.1875 7.171875 
L 48.1875 0 
L 4.296875 0 
L 4.296875 8.203125 
L 38.09375 47.515625 
L 5.515625 47.515625 
z
" id="DejaVuSans-7a"/>
      <path d="M 52 44.1875 
Q 55.375 50.25 60.0625 53.125 
Q 64.75 56 71.09375 56 
Q 79.640625 56 84.28125 50.015625 
Q 88.921875 44.046875 88.921875 33.015625 
L 88.921875 0 
L 79.890625 0 
L 79.890625 32.71875 
Q 79.890625 40.578125 77.09375 44.375 
Q 74.3125 48.1875 68.609375 48.1875 
Q 61.625 48.1875 57.5625 43.546875 
Q 53.515625 38.921875 53.515625 30.90625 
L 53.515625 0 
L 44.484375 0 
L 44.484375 32.71875 
Q 44.484375 40.625 41.703125 44.40625 
Q 38.921875 48.1875 33.109375 48.1875 
Q 26.21875 48.1875 22.15625 43.53125 
Q 18.109375 38.875 18.109375 30.90625 
L 18.109375 0 
L 9.078125 0 
L 9.078125 54.6875 
L 18.109375 54.6875 
L 18.109375 46.1875 
Q 21.1875 51.21875 25.484375 53.609375 
Q 29.78125 56 35.6875 56 
Q 41.65625 56 45.828125 52.96875 
Q 50 49.953125 52 44.1875 
" id="DejaVuSans-6d"/>
     </defs>
     <g transform="translate(296.12925 96.87825)scale(0.144 -0.144)">
      <use xlink:href="#DejaVuSans-62"/>
      <use x="63.476562" xlink:href="#DejaVuSans-6f"/>
      <use x="124.658203" xlink:href="#DejaVuSans-6c"/>
      <use x="152.441406" xlink:href="#DejaVuSans-74"/>
      <use x="191.650391" xlink:href="#DejaVuSans-7a"/>
      <use x="244.140625" xlink:href="#DejaVuSans-6d"/>
      <use x="341.552734" xlink:href="#DejaVuSans-61"/>
      <use x="402.832031" xlink:href="#DejaVuSans-6e"/>
      <use x="466.210938" xlink:href="#DejaVuSans-6e"/>
     </g>
    </g>
    <g id="patch_86">
     <path d="M 255.80925 118.01475 
L 284.60925 118.01475 
L 284.60925 107.93475 
L 255.80925 107.93475 
z
" style="fill:#2a788e;opacity:0.5;"/>
    </g>
    <g id="text_29">
     <!-- -40,-40,-20 -->
     <g transform="translate(296.12925 118.01475)scale(0.144 -0.144)">
      <use xlink:href="#DejaVuSans-2d"/>
      <use x="36.083984" xlink:href="#DejaVuSans-34"/>
      <use x="99.707031" xlink:href="#DejaVuSans-30"/>
      <use x="163.330078" xlink:href="#DejaVuSans-2c"/>
      <use x="195.117188" xlink:href="#DejaVuSans-2d"/>
      <use x="231.201172" xlink:href="#DejaVuSans-34"/>
      <use x="294.824219" xlink:href="#DejaVuSans-30"/>
      <use x="358.447266" xlink:href="#DejaVuSans-2c"/>
      <use x="390.234375" xlink:href="#DejaVuSans-2d"/>
      <use x="426.318359" xlink:href="#DejaVuSans-32"/>
      <use x="489.941406" xlink:href="#DejaVuSans-30"/>
     </g>
    </g>
    <g id="patch_87">
     <path d="M 255.80925 139.15125 
L 284.60925 139.15125 
L 284.60925 129.07125 
L 255.80925 129.07125 
z
" style="fill:#22a884;opacity:0.5;"/>
    </g>
    <g id="text_30">
     <!-- uniform -->
     <g transform="translate(296.12925 139.15125)scale(0.144 -0.144)">
      <use xlink:href="#DejaVuSans-75"/>
      <use x="63.378906" xlink:href="#DejaVuSans-6e"/>
      <use x="126.757812" xlink:href="#DejaVuSans-69"/>
      <use x="154.541016" xlink:href="#DejaVuSans-66"/>
      <use x="189.746094" xlink:href="#DejaVuSans-6f"/>
      <use x="250.927734" xlink:href="#DejaVuSans-72"/>
      <use x="292.025391" xlink:href="#DejaVuSans-6d"/>
     </g>
    </g>
   </g>
  </g>
  <g id="axes_3">
   <g id="patch_88">
    <path d="M 54 384.48 
L 388.8 384.48 
L 388.8 233.28 
L 54 233.28 
z
" style="fill:#ffffff;"/>
   </g>
   <g id="patch_89">
    <path clip-path="url(#p8b4085450a)" d="M 69.218182 384.48 
L 85.237321 384.48 
L 85.237321 384.48 
L 69.218182 384.48 
z
" style="fill:#440154;opacity:0.5;"/>
   </g>
   <g id="patch_90">
    <path clip-path="url(#p8b4085450a)" d="M 85.237321 384.48 
L 101.256459 384.48 
L 101.256459 384.48 
L 85.237321 384.48 
z
" style="fill:#440154;opacity:0.5;"/>
   </g>
   <g id="patch_91">
    <path clip-path="url(#p8b4085450a)" d="M 101.256459 384.48 
L 117.275598 384.48 
L 117.275598 384.48 
L 101.256459 384.48 
z
" style="fill:#440154;opacity:0.5;"/>
   </g>
   <g id="patch_92">
    <path clip-path="url(#p8b4085450a)" d="M 117.275598 384.48 
L 133.294737 384.48 
L 133.294737 384.48 
L 117.275598 384.48 
z
" style="fill:#440154;opacity:0.5;"/>
   </g>
   <g id="patch_93">
    <path clip-path="url(#p8b4085450a)" d="M 133.294737 384.48 
L 149.313876 384.48 
L 149.313876 384.48 
L 133.294737 384.48 
z
" style="fill:#440154;opacity:0.5;"/>
   </g>
   <g id="patch_94">
    <path clip-path="url(#p8b4085450a)" d="M 149.313876 384.48 
L 165.333014 384.48 
L 165.333014 384.48 
L 149.313876 384.48 
z
" style="fill:#440154;opacity:0.5;"/>
   </g>
   <g id="patch_95">
    <path clip-path="url(#p8b4085450a)" d="M 165.333014 384.48 
L 181.352153 384.48 
L 181.352153 384.48 
L 165.333014 384.48 
z
" style="fill:#440154;opacity:0.5;"/>
   </g>
   <g id="patch_96">
    <path clip-path="url(#p8b4085450a)" d="M 181.352153 384.48 
L 197.371292 384.48 
L 197.371292 384.48 
L 181.352153 384.48 
z
" style="fill:#440154;opacity:0.5;"/>
   </g>
   <g id="patch_97">
    <path clip-path="url(#p8b4085450a)" d="M 197.371292 384.48 
L 213.390431 384.48 
L 213.390431 384.48 
L 197.371292 384.48 
z
" style="fill:#440154;opacity:0.5;"/>
   </g>
   <g id="patch_98">
    <path clip-path="url(#p8b4085450a)" d="M 213.390431 384.48 
L 229.409569 384.48 
L 229.409569 378.27 
L 213.390431 378.27 
z
" style="fill:#440154;opacity:0.5;"/>
   </g>
   <g id="patch_99">
    <path clip-path="url(#p8b4085450a)" d="M 229.409569 384.48 
L 245.428708 384.48 
L 245.428708 301.59 
L 229.409569 301.59 
z
" style="fill:#440154;opacity:0.5;"/>
   </g>
   <g id="patch_100">
    <path clip-path="url(#p8b4085450a)" d="M 245.428708 384.48 
L 261.447847 384.48 
L 261.447847 352.62 
L 245.428708 352.62 
z
" style="fill:#440154;opacity:0.5;"/>
   </g>
   <g id="patch_101">
    <path clip-path="url(#p8b4085450a)" d="M 261.447847 384.48 
L 277.466986 384.48 
L 277.466986 384.48 
L 261.447847 384.48 
z
" style="fill:#440154;opacity:0.5;"/>
   </g>
   <g id="patch_102">
    <path clip-path="url(#p8b4085450a)" d="M 277.466986 384.48 
L 293.486124 384.48 
L 293.486124 384.48 
L 277.466986 384.48 
z
" style="fill:#440154;opacity:0.5;"/>
   </g>
   <g id="patch_103">
    <path clip-path="url(#p8b4085450a)" d="M 293.486124 384.48 
L 309.505263 384.48 
L 309.505263 384.48 
L 293.486124 384.48 
z
" style="fill:#440154;opacity:0.5;"/>
   </g>
   <g id="patch_104">
    <path clip-path="url(#p8b4085450a)" d="M 309.505263 384.48 
L 325.524402 384.48 
L 325.524402 384.48 
L 309.505263 384.48 
z
" style="fill:#440154;opacity:0.5;"/>
   </g>
   <g id="patch_105">
    <path clip-path="url(#p8b4085450a)" d="M 325.524402 384.48 
L 341.543541 384.48 
L 341.543541 384.48 
L 325.524402 384.48 
z
" style="fill:#440154;opacity:0.5;"/>
   </g>
   <g id="patch_106">
    <path clip-path="url(#p8b4085450a)" d="M 341.543541 384.48 
L 357.562679 384.48 
L 357.562679 384.48 
L 341.543541 384.48 
z
" style="fill:#440154;opacity:0.5;"/>
   </g>
   <g id="patch_107">
    <path clip-path="url(#p8b4085450a)" d="M 357.562679 384.48 
L 373.581818 384.48 
L 373.581818 384.48 
L 357.562679 384.48 
z
" style="fill:#440154;opacity:0.5;"/>
   </g>
   <g id="patch_108">
    <path clip-path="url(#p8b4085450a)" d="M 69.218182 384.48 
L 85.237321 384.48 
L 85.237321 384.48 
L 69.218182 384.48 
z
" style="fill:#414487;opacity:0.5;"/>
   </g>
   <g id="patch_109">
    <path clip-path="url(#p8b4085450a)" d="M 85.237321 384.48 
L 101.256459 384.48 
L 101.256459 384.48 
L 85.237321 384.48 
z
" style="fill:#414487;opacity:0.5;"/>
   </g>
   <g id="patch_110">
    <path clip-path="url(#p8b4085450a)" d="M 101.256459 384.48 
L 117.275598 384.48 
L 117.275598 384.48 
L 101.256459 384.48 
z
" style="fill:#414487;opacity:0.5;"/>
   </g>
   <g id="patch_111">
    <path clip-path="url(#p8b4085450a)" d="M 117.275598 384.48 
L 133.294737 384.48 
L 133.294737 384.48 
L 117.275598 384.48 
z
" style="fill:#414487;opacity:0.5;"/>
   </g>
   <g id="patch_112">
    <path clip-path="url(#p8b4085450a)" d="M 133.294737 384.48 
L 149.313876 384.48 
L 149.313876 384.48 
L 133.294737 384.48 
z
" style="fill:#414487;opacity:0.5;"/>
   </g>
   <g id="patch_113">
    <path clip-path="url(#p8b4085450a)" d="M 149.313876 384.48 
L 165.333014 384.48 
L 165.333014 384.48 
L 149.313876 384.48 
z
" style="fill:#414487;opacity:0.5;"/>
   </g>
   <g id="patch_114">
    <path clip-path="url(#p8b4085450a)" d="M 165.333014 384.48 
L 181.352153 384.48 
L 181.352153 384.48 
L 165.333014 384.48 
z
" style="fill:#414487;opacity:0.5;"/>
   </g>
   <g id="patch_115">
    <path clip-path="url(#p8b4085450a)" d="M 181.352153 384.48 
L 197.371292 384.48 
L 197.371292 384.48 
L 181.352153 384.48 
z
" style="fill:#414487;opacity:0.5;"/>
   </g>
   <g id="patch_116">
    <path clip-path="url(#p8b4085450a)" d="M 197.371292 384.48 
L 213.390431 384.48 
L 213.390431 384.48 
L 197.371292 384.48 
z
" style="fill:#414487;opacity:0.5;"/>
   </g>
   <g id="patch_117">
    <path clip-path="url(#p8b4085450a)" d="M 213.390431 384.48 
L 229.409569 384.48 
L 229.409569 384.48 
L 213.390431 384.48 
z
" style="fill:#414487;opacity:0.5;"/>
   </g>
   <g id="patch_118">
    <path clip-path="url(#p8b4085450a)" d="M 229.409569 384.48 
L 245.428708 384.48 
L 245.428708 384.48 
L 229.409569 384.48 
z
" style="fill:#414487;opacity:0.5;"/>
   </g>
   <g id="patch_119">
    <path clip-path="url(#p8b4085450a)" d="M 245.428708 384.48 
L 261.447847 384.48 
L 261.447847 384.48 
L 245.428708 384.48 
z
" style="fill:#414487;opacity:0.5;"/>
   </g>
   <g id="patch_120">
    <path clip-path="url(#p8b4085450a)" d="M 261.447847 384.48 
L 277.466986 384.48 
L 277.466986 384.48 
L 261.447847 384.48 
z
" style="fill:#414487;opacity:0.5;"/>
   </g>
   <g id="patch_121">
    <path clip-path="url(#p8b4085450a)" d="M 277.466986 384.48 
L 293.486124 384.48 
L 293.486124 384.48 
L 277.466986 384.48 
z
" style="fill:#414487;opacity:0.5;"/>
   </g>
   <g id="patch_122">
    <path clip-path="url(#p8b4085450a)" d="M 293.486124 384.48 
L 309.505263 384.48 
L 309.505263 382.78656 
L 293.486124 382.78656 
z
" style="fill:#414487;opacity:0.5;"/>
   </g>
   <g id="patch_123">
    <path clip-path="url(#p8b4085450a)" d="M 309.505263 384.48 
L 325.524402 384.48 
L 325.524402 361.25568 
L 309.505263 361.25568 
z
" style="fill:#414487;opacity:0.5;"/>
   </g>
   <g id="patch_124">
    <path clip-path="url(#p8b4085450a)" d="M 325.524402 384.48 
L 341.543541 384.48 
L 341.543541 310.21056 
L 325.524402 310.21056 
z
" style="fill:#414487;opacity:0.5;"/>
   </g>
   <g id="patch_125">
    <path clip-path="url(#p8b4085450a)" d="M 341.543541 384.48 
L 357.562679 384.48 
L 357.562679 365.00544 
L 341.543541 365.00544 
z
" style="fill:#414487;opacity:0.5;"/>
   </g>
   <g id="patch_126">
    <path clip-path="url(#p8b4085450a)" d="M 357.562679 384.48 
L 373.581818 384.48 
L 373.581818 382.18176 
L 357.562679 382.18176 
z
" style="fill:#414487;opacity:0.5;"/>
   </g>
   <g id="patch_127">
    <path clip-path="url(#p8b4085450a)" d="M 69.218182 384.48 
L 85.237321 384.48 
L 85.237321 384.48 
L 69.218182 384.48 
z
" style="fill:#2a788e;opacity:0.5;"/>
   </g>
   <g id="patch_128">
    <path clip-path="url(#p8b4085450a)" d="M 85.237321 384.48 
L 101.256459 384.48 
L 101.256459 384.48 
L 85.237321 384.48 
z
" style="fill:#2a788e;opacity:0.5;"/>
   </g>
   <g id="patch_129">
    <path clip-path="url(#p8b4085450a)" d="M 101.256459 384.48 
L 117.275598 384.48 
L 117.275598 384.48 
L 101.256459 384.48 
z
" style="fill:#2a788e;opacity:0.5;"/>
   </g>
   <g id="patch_130">
    <path clip-path="url(#p8b4085450a)" d="M 117.275598 384.48 
L 133.294737 384.48 
L 133.294737 384.48 
L 117.275598 384.48 
z
" style="fill:#2a788e;opacity:0.5;"/>
   </g>
   <g id="patch_131">
    <path clip-path="url(#p8b4085450a)" d="M 133.294737 384.48 
L 149.313876 384.48 
L 149.313876 384.48 
L 133.294737 384.48 
z
" style="fill:#2a788e;opacity:0.5;"/>
   </g>
   <g id="patch_132">
    <path clip-path="url(#p8b4085450a)" d="M 149.313876 384.48 
L 165.333014 384.48 
L 165.333014 384.48 
L 149.313876 384.48 
z
" style="fill:#2a788e;opacity:0.5;"/>
   </g>
   <g id="patch_133">
    <path clip-path="url(#p8b4085450a)" d="M 165.333014 384.48 
L 181.352153 384.48 
L 181.352153 384.48 
L 165.333014 384.48 
z
" style="fill:#2a788e;opacity:0.5;"/>
   </g>
   <g id="patch_134">
    <path clip-path="url(#p8b4085450a)" d="M 181.352153 384.48 
L 197.371292 384.48 
L 197.371292 384.48 
L 181.352153 384.48 
z
" style="fill:#2a788e;opacity:0.5;"/>
   </g>
   <g id="patch_135">
    <path clip-path="url(#p8b4085450a)" d="M 197.371292 384.48 
L 213.390431 384.48 
L 213.390431 384.48 
L 197.371292 384.48 
z
" style="fill:#2a788e;opacity:0.5;"/>
   </g>
   <g id="patch_136">
    <path clip-path="url(#p8b4085450a)" d="M 213.390431 384.48 
L 229.409569 384.48 
L 229.409569 384.48 
L 213.390431 384.48 
z
" style="fill:#2a788e;opacity:0.5;"/>
   </g>
   <g id="patch_137">
    <path clip-path="url(#p8b4085450a)" d="M 229.409569 384.48 
L 245.428708 384.48 
L 245.428708 353.437168 
L 229.409569 353.437168 
z
" style="fill:#2a788e;opacity:0.5;"/>
   </g>
   <g id="patch_138">
    <path clip-path="url(#p8b4085450a)" d="M 245.428708 384.48 
L 261.447847 384.48 
L 261.447847 294.562832 
L 245.428708 294.562832 
z
" style="fill:#2a788e;opacity:0.5;"/>
   </g>
   <g id="patch_139">
    <path clip-path="url(#p8b4085450a)" d="M 261.447847 384.48 
L 277.466986 384.48 
L 277.466986 384.48 
L 261.447847 384.48 
z
" style="fill:#2a788e;opacity:0.5;"/>
   </g>
   <g id="patch_140">
    <path clip-path="url(#p8b4085450a)" d="M 277.466986 384.48 
L 293.486124 384.48 
L 293.486124 384.48 
L 277.466986 384.48 
z
" style="fill:#2a788e;opacity:0.5;"/>
   </g>
   <g id="patch_141">
    <path clip-path="url(#p8b4085450a)" d="M 293.486124 384.48 
L 309.505263 384.48 
L 309.505263 384.48 
L 293.486124 384.48 
z
" style="fill:#2a788e;opacity:0.5;"/>
   </g>
   <g id="patch_142">
    <path clip-path="url(#p8b4085450a)" d="M 309.505263 384.48 
L 325.524402 384.48 
L 325.524402 384.48 
L 309.505263 384.48 
z
" style="fill:#2a788e;opacity:0.5;"/>
   </g>
   <g id="patch_143">
    <path clip-path="url(#p8b4085450a)" d="M 325.524402 384.48 
L 341.543541 384.48 
L 341.543541 384.48 
L 325.524402 384.48 
z
" style="fill:#2a788e;opacity:0.5;"/>
   </g>
   <g id="patch_144">
    <path clip-path="url(#p8b4085450a)" d="M 341.543541 384.48 
L 357.562679 384.48 
L 357.562679 384.48 
L 341.543541 384.48 
z
" style="fill:#2a788e;opacity:0.5;"/>
   </g>
   <g id="patch_145">
    <path clip-path="url(#p8b4085450a)" d="M 357.562679 384.48 
L 373.581818 384.48 
L 373.581818 384.48 
L 357.562679 384.48 
z
" style="fill:#2a788e;opacity:0.5;"/>
   </g>
   <g id="patch_146">
    <path clip-path="url(#p8b4085450a)" d="M 69.218182 384.48 
L 85.237321 384.48 
L 85.237321 384.48 
L 69.218182 384.48 
z
" style="fill:#22a884;opacity:0.5;"/>
   </g>
   <g id="patch_147">
    <path clip-path="url(#p8b4085450a)" d="M 85.237321 384.48 
L 101.256459 384.48 
L 101.256459 384.48 
L 85.237321 384.48 
z
" style="fill:#22a884;opacity:0.5;"/>
   </g>
   <g id="patch_148">
    <path clip-path="url(#p8b4085450a)" d="M 101.256459 384.48 
L 117.275598 384.48 
L 117.275598 384.48 
L 101.256459 384.48 
z
" style="fill:#22a884;opacity:0.5;"/>
   </g>
   <g id="patch_149">
    <path clip-path="url(#p8b4085450a)" d="M 117.275598 384.48 
L 133.294737 384.48 
L 133.294737 384.48 
L 117.275598 384.48 
z
" style="fill:#22a884;opacity:0.5;"/>
   </g>
   <g id="patch_150">
    <path clip-path="url(#p8b4085450a)" d="M 133.294737 384.48 
L 149.313876 384.48 
L 149.313876 384.48 
L 133.294737 384.48 
z
" style="fill:#22a884;opacity:0.5;"/>
   </g>
   <g id="patch_151">
    <path clip-path="url(#p8b4085450a)" d="M 149.313876 384.48 
L 165.333014 384.48 
L 165.333014 384.35904 
L 149.313876 384.35904 
z
" style="fill:#22a884;opacity:0.5;"/>
   </g>
   <g id="patch_152">
    <path clip-path="url(#p8b4085450a)" d="M 165.333014 384.48 
L 181.352153 384.48 
L 181.352153 383.99616 
L 165.333014 383.99616 
z
" style="fill:#22a884;opacity:0.5;"/>
   </g>
   <g id="patch_153">
    <path clip-path="url(#p8b4085450a)" d="M 181.352153 384.48 
L 197.371292 384.48 
L 197.371292 381.09312 
L 181.352153 381.09312 
z
" style="fill:#22a884;opacity:0.5;"/>
   </g>
   <g id="patch_154">
    <path clip-path="url(#p8b4085450a)" d="M 197.371292 384.48 
L 213.390431 384.48 
L 213.390431 368.27136 
L 197.371292 368.27136 
z
" style="fill:#22a884;opacity:0.5;"/>
   </g>
   <g id="patch_155">
    <path clip-path="url(#p8b4085450a)" d="M 213.390431 384.48 
L 229.409569 384.48 
L 229.409569 347.10336 
L 213.390431 347.10336 
z
" style="fill:#22a884;opacity:0.5;"/>
   </g>
   <g id="patch_156">
    <path clip-path="url(#p8b4085450a)" d="M 229.409569 384.48 
L 245.428708 384.48 
L 245.428708 348.7968 
L 229.409569 348.7968 
z
" style="fill:#22a884;opacity:0.5;"/>
   </g>
   <g id="patch_157">
    <path clip-path="url(#p8b4085450a)" d="M 245.428708 384.48 
L 261.447847 384.48 
L 261.447847 361.86048 
L 245.428708 361.86048 
z
" style="fill:#22a884;opacity:0.5;"/>
   </g>
   <g id="patch_158">
    <path clip-path="url(#p8b4085450a)" d="M 261.447847 384.48 
L 277.466986 384.48 
L 277.466986 380.48832 
L 261.447847 380.48832 
z
" style="fill:#22a884;opacity:0.5;"/>
   </g>
   <g id="patch_159">
    <path clip-path="url(#p8b4085450a)" d="M 277.466986 384.48 
L 293.486124 384.48 
L 293.486124 383.39136 
L 277.466986 383.39136 
z
" style="fill:#22a884;opacity:0.5;"/>
   </g>
   <g id="patch_160">
    <path clip-path="url(#p8b4085450a)" d="M 293.486124 384.48 
L 309.505263 384.48 
L 309.505263 384.48 
L 293.486124 384.48 
z
" style="fill:#22a884;opacity:0.5;"/>
   </g>
   <g id="patch_161">
    <path clip-path="url(#p8b4085450a)" d="M 309.505263 384.48 
L 325.524402 384.48 
L 325.524402 384.48 
L 309.505263 384.48 
z
" style="fill:#22a884;opacity:0.5;"/>
   </g>
   <g id="patch_162">
    <path clip-path="url(#p8b4085450a)" d="M 325.524402 384.48 
L 341.543541 384.48 
L 341.543541 384.48 
L 325.524402 384.48 
z
" style="fill:#22a884;opacity:0.5;"/>
   </g>
   <g id="patch_163">
    <path clip-path="url(#p8b4085450a)" d="M 341.543541 384.48 
L 357.562679 384.48 
L 357.562679 384.48 
L 341.543541 384.48 
z
" style="fill:#22a884;opacity:0.5;"/>
   </g>
   <g id="patch_164">
    <path clip-path="url(#p8b4085450a)" d="M 357.562679 384.48 
L 373.581818 384.48 
L 373.581818 384.48 
L 357.562679 384.48 
z
" style="fill:#22a884;opacity:0.5;"/>
   </g>
   <g id="matplotlib.axis_5">
    <g id="xtick_12">
     <g id="line2d_16">
      <g>
       <use style="stroke:#000000;stroke-width:0.8;" x="69.218182" xlink:href="#m72e4f67f62" y="384.48"/>
      </g>
     </g>
     <g id="text_31">
      <!-- 0.0 -->
      <g transform="translate(57.767932 402.42175)scale(0.144 -0.144)">
       <use xlink:href="#DejaVuSans-30"/>
       <use x="63.623047" xlink:href="#DejaVuSans-2e"/>
       <use x="95.410156" xlink:href="#DejaVuSans-30"/>
      </g>
     </g>
    </g>
    <g id="xtick_13">
     <g id="line2d_17">
      <g>
       <use style="stroke:#000000;stroke-width:0.8;" x="133.294737" xlink:href="#m72e4f67f62" y="384.48"/>
      </g>
     </g>
     <g id="text_32">
      <!-- 0.2 -->
      <g transform="translate(121.844487 402.42175)scale(0.144 -0.144)">
       <use xlink:href="#DejaVuSans-30"/>
       <use x="63.623047" xlink:href="#DejaVuSans-2e"/>
       <use x="95.410156" xlink:href="#DejaVuSans-32"/>
      </g>
     </g>
    </g>
    <g id="xtick_14">
     <g id="line2d_18">
      <g>
       <use style="stroke:#000000;stroke-width:0.8;" x="197.371292" xlink:href="#m72e4f67f62" y="384.48"/>
      </g>
     </g>
     <g id="text_33">
      <!-- 0.4 -->
      <g transform="translate(185.921042 402.42175)scale(0.144 -0.144)">
       <use xlink:href="#DejaVuSans-30"/>
       <use x="63.623047" xlink:href="#DejaVuSans-2e"/>
       <use x="95.410156" xlink:href="#DejaVuSans-34"/>
      </g>
     </g>
    </g>
    <g id="xtick_15">
     <g id="line2d_19">
      <g>
       <use style="stroke:#000000;stroke-width:0.8;" x="261.447847" xlink:href="#m72e4f67f62" y="384.48"/>
      </g>
     </g>
     <g id="text_34">
      <!-- 0.6 -->
      <g transform="translate(249.997597 402.42175)scale(0.144 -0.144)">
       <use xlink:href="#DejaVuSans-30"/>
       <use x="63.623047" xlink:href="#DejaVuSans-2e"/>
       <use x="95.410156" xlink:href="#DejaVuSans-36"/>
      </g>
     </g>
    </g>
    <g id="xtick_16">
     <g id="line2d_20">
      <g>
       <use style="stroke:#000000;stroke-width:0.8;" x="325.524402" xlink:href="#m72e4f67f62" y="384.48"/>
      </g>
     </g>
     <g id="text_35">
      <!-- 0.8 -->
      <g transform="translate(314.074152 402.42175)scale(0.144 -0.144)">
       <use xlink:href="#DejaVuSans-30"/>
       <use x="63.623047" xlink:href="#DejaVuSans-2e"/>
       <use x="95.410156" xlink:href="#DejaVuSans-38"/>
      </g>
     </g>
    </g>
   </g>
   <g id="matplotlib.axis_6">
    <g id="ytick_13">
     <g id="line2d_21">
      <g>
       <use style="stroke:#000000;stroke-width:0.8;" x="54" xlink:href="#m03e9b3c2fc" y="384.48"/>
      </g>
     </g>
     <g id="text_36">
      <!-- 0 -->
      <g transform="translate(37.838 389.950875)scale(0.144 -0.144)">
       <use xlink:href="#DejaVuSans-30"/>
      </g>
     </g>
    </g>
    <g id="ytick_14">
     <g id="line2d_22">
      <g>
       <use style="stroke:#000000;stroke-width:0.8;" x="54" xlink:href="#m03e9b3c2fc" y="354.24"/>
      </g>
     </g>
     <g id="text_37">
      <!-- 5 -->
      <g transform="translate(37.838 359.710875)scale(0.144 -0.144)">
       <use xlink:href="#DejaVuSans-35"/>
      </g>
     </g>
    </g>
    <g id="ytick_15">
     <g id="line2d_23">
      <g>
       <use style="stroke:#000000;stroke-width:0.8;" x="54" xlink:href="#m03e9b3c2fc" y="324"/>
      </g>
     </g>
     <g id="text_38">
      <!-- 10 -->
      <g transform="translate(28.676 329.470875)scale(0.144 -0.144)">
       <use xlink:href="#DejaVuSans-31"/>
       <use x="63.623047" xlink:href="#DejaVuSans-30"/>
      </g>
     </g>
    </g>
    <g id="ytick_16">
     <g id="line2d_24">
      <g>
       <use style="stroke:#000000;stroke-width:0.8;" x="54" xlink:href="#m03e9b3c2fc" y="293.76"/>
      </g>
     </g>
     <g id="text_39">
      <!-- 15 -->
      <g transform="translate(28.676 299.230875)scale(0.144 -0.144)">
       <use xlink:href="#DejaVuSans-31"/>
       <use x="63.623047" xlink:href="#DejaVuSans-35"/>
      </g>
     </g>
    </g>
    <g id="ytick_17">
     <g id="line2d_25">
      <g>
       <use style="stroke:#000000;stroke-width:0.8;" x="54" xlink:href="#m03e9b3c2fc" y="263.52"/>
      </g>
     </g>
     <g id="text_40">
      <!-- 20 -->
      <g transform="translate(28.676 268.990875)scale(0.144 -0.144)">
       <use xlink:href="#DejaVuSans-32"/>
       <use x="63.623047" xlink:href="#DejaVuSans-30"/>
      </g>
     </g>
    </g>
    <g id="ytick_18">
     <g id="line2d_26">
      <g>
       <use style="stroke:#000000;stroke-width:0.8;" x="54" xlink:href="#m03e9b3c2fc" y="233.28"/>
      </g>
     </g>
     <g id="text_41">
      <!-- 25 -->
      <g transform="translate(28.676 238.750875)scale(0.144 -0.144)">
       <use xlink:href="#DejaVuSans-32"/>
       <use x="63.623047" xlink:href="#DejaVuSans-35"/>
      </g>
     </g>
    </g>
   </g>
   <g id="line2d_27">
    <path clip-path="url(#p8b4085450a)" d="M 213.390431 384.469464 
L 216.594258 384.386228 
L 219.798086 383.854461 
L 219.798086 383.854461 
L 223.001914 381.352256 
L 223.001914 381.352256 
L 226.205742 372.758014 
L 226.205742 372.758014 
L 229.409569 351.55205 
L 229.409569 351.55205 
L 232.613397 315.149923 
L 232.613397 315.149923 
L 235.817225 275.066186 
L 235.817225 275.066186 
L 239.021053 255.055609 
L 239.021053 255.055609 
L 242.22488 269.729763 
L 242.22488 269.729763 
L 245.428708 308.222152 
L 245.428708 308.222152 
" style="fill:none;stroke:#440154;stroke-linecap:square;stroke-width:1.5;"/>
   </g>
   <g id="line2d_28">
    <path clip-path="url(#p8b4085450a)" d="M 296.689952 384.130564 
L 299.89378 383.627895 
L 299.89378 383.627895 
L 299.89378 383.627895 
L 303.097608 382.566129 
L 303.097608 382.566129 
L 303.097608 382.566129 
L 306.301435 380.520632 
L 306.301435 380.520632 
L 306.301435 380.520632 
L 309.505263 376.935455 
L 309.505263 376.935455 
L 309.505263 376.935455 
L 312.709091 371.238593 
L 312.709091 371.238593 
L 312.709091 371.238593 
L 315.912919 363.074315 
L 315.912919 363.074315 
L 315.912919 363.074315 
L 319.116746 352.607361 
L 319.116746 352.607361 
L 319.116746 352.607361 
L 322.320574 340.767985 
L 322.320574 340.767985 
L 322.320574 340.767985 
L 325.524402 329.262399 
L 325.524402 329.262399 
L 325.524402 329.262399 
L 328.72823 320.233694 
L 328.72823 320.233694 
L 328.72823 320.233694 
L 331.932057 315.628614 
L 331.932057 315.628614 
L 331.932057 315.628614 
L 335.135885 316.517221 
L 335.135885 316.517221 
L 335.135885 316.517221 
L 338.339713 322.689249 
L 338.339713 322.689249 
L 338.339713 322.689249 
L 341.543541 332.734841 
L 341.543541 332.734841 
L 341.543541 332.734841 
L 344.747368 344.567412 
L 344.747368 344.567412 
L 344.747368 344.567412 
L 347.951196 356.124066 
L 347.951196 356.124066 
L 347.951196 356.124066 
L 351.155024 365.924531 
L 351.155024 365.924531 
L 351.155024 365.924531 
L 354.358852 373.296086 
L 354.358852 373.296086 
L 354.358852 373.296086 
L 357.562679 378.271172 
L 357.562679 378.271172 
L 357.562679 378.271172 
L 360.766507 381.305178 
L 360.766507 381.305178 
L 360.766507 381.305178 
L 363.970335 382.984719 
L 370.37799 384.220814 
L 370.37799 384.220814 
" style="fill:none;stroke:#414487;stroke-linecap:square;stroke-width:1.5;"/>
   </g>
   <g id="line2d_29">
    <path clip-path="url(#p8b4085450a)" d="M 235.817225 384.473004 
L 239.021053 379.016794 
L 239.021053 379.016794 
L 239.021053 379.016794 
L 242.22488 180.588484 
L 242.22488 180.588484 
L 242.22488 180.588484 
L 245.428708 20.834968 
L 245.428708 20.834968 
L 245.428708 20.834968 
L 245.428708 20.834968 
" style="fill:none;stroke:#2a788e;stroke-linecap:square;stroke-width:1.5;"/>
   </g>
   <g id="line2d_30">
    <path clip-path="url(#p8b4085450a)" d="M 165.333014 384.375309 
L 178.148325 383.592094 
L 178.148325 383.592094 
L 178.148325 383.592094 
L 181.352153 383.07226 
L 181.352153 383.07226 
L 181.352153 383.07226 
L 184.555981 382.312825 
L 184.555981 382.312825 
L 184.555981 382.312825 
L 187.759809 381.240471 
L 187.759809 381.240471 
L 187.759809 381.240471 
L 190.963636 379.777964 
L 190.963636 379.777964 
L 190.963636 379.777964 
L 194.167464 377.853163 
L 194.167464 377.853163 
L 194.167464 377.853163 
L 197.371292 375.411346 
L 197.371292 375.411346 
L 197.371292 375.411346 
L 200.57512 372.429762 
L 200.57512 372.429762 
L 200.57512 372.429762 
L 203.778947 368.932353 
L 203.778947 368.932353 
L 203.778947 368.932353 
L 206.982775 365.00175 
L 206.982775 365.00175 
L 206.982775 365.00175 
L 210.186603 360.785287 
L 210.186603 360.785287 
L 210.186603 360.785287 
L 213.390431 356.492172 
L 213.390431 356.492172 
L 213.390431 356.492172 
L 216.594258 352.380136 
L 216.594258 352.380136 
L 216.594258 352.380136 
L 219.798086 348.731863 
L 219.798086 348.731863 
L 219.798086 348.731863 
L 223.001914 345.823737 
L 223.001914 345.823737 
L 223.001914 345.823737 
L 226.205742 343.891541 
L 226.205742 343.891541 
L 226.205742 343.891541 
L 229.409569 343.098951 
L 229.409569 343.098951 
L 229.409569 343.098951 
L 232.613397 343.514651 
L 232.613397 343.514651 
L 232.613397 343.514651 
L 235.817225 345.102506 
L 235.817225 345.102506 
L 235.817225 345.102506 
L 239.021053 347.726753 
L 239.021053 347.726753 
L 239.021053 347.726753 
L 242.22488 351.171154 
L 242.22488 351.171154 
L 242.22488 351.171154 
L 245.428708 355.168387 
L 245.428708 355.168387 
L 245.428708 355.168387 
L 248.632536 359.434133 
L 248.632536 359.434133 
L 248.632536 359.434133 
L 251.836364 363.699851 
L 251.836364 363.699851 
L 251.836364 363.699851 
L 255.040191 367.739151 
L 255.040191 367.739151 
L 255.040191 367.739151 
L 258.244019 371.384486 
L 258.244019 371.384486 
L 258.244019 371.384486 
L 261.447847 374.533189 
L 261.447847 374.533189 
L 261.447847 374.533189 
L 264.651675 377.143965 
L 264.651675 377.143965 
L 264.651675 377.143965 
L 267.855502 379.226422 
L 267.855502 379.226422 
L 267.855502 379.226422 
L 271.05933 380.82687 
L 271.05933 380.82687 
L 271.05933 380.82687 
L 274.263158 382.013441 
L 274.263158 382.013441 
L 274.263158 382.013441 
L 277.466986 382.862911 
L 277.466986 382.862911 
L 277.466986 382.862911 
L 280.670813 383.45058 
L 280.670813 383.45058 
L 280.670813 383.45058 
L 290.282297 384.25743 
L 290.282297 384.25743 
" style="fill:none;stroke:#22a884;stroke-linecap:square;stroke-width:1.5;"/>
   </g>
   <g id="patch_165">
    <path d="M 54 384.48 
L 54 233.28 
" style="fill:none;stroke:#000000;stroke-linecap:square;stroke-linejoin:miter;stroke-width:0.8;"/>
   </g>
   <g id="patch_166">
    <path d="M 388.8 384.48 
L 388.8 233.28 
" style="fill:none;stroke:#000000;stroke-linecap:square;stroke-linejoin:miter;stroke-width:0.8;"/>
   </g>
   <g id="patch_167">
    <path d="M 54 384.48 
L 388.8 384.48 
" style="fill:none;stroke:#000000;stroke-linecap:square;stroke-linejoin:miter;stroke-width:0.8;"/>
   </g>
   <g id="patch_168">
    <path d="M 54 233.28 
L 388.8 233.28 
" style="fill:none;stroke:#000000;stroke-linecap:square;stroke-linejoin:miter;stroke-width:0.8;"/>
   </g>
   <g id="text_42">
    <!-- CG -->
    <defs>
     <path d="M 64.40625 67.28125 
L 64.40625 56.890625 
Q 59.421875 61.53125 53.78125 63.8125 
Q 48.140625 66.109375 41.796875 66.109375 
Q 29.296875 66.109375 22.65625 58.46875 
Q 16.015625 50.828125 16.015625 36.375 
Q 16.015625 21.96875 22.65625 14.328125 
Q 29.296875 6.6875 41.796875 6.6875 
Q 48.140625 6.6875 53.78125 8.984375 
Q 59.421875 11.28125 64.40625 15.921875 
L 64.40625 5.609375 
Q 59.234375 2.09375 53.4375 0.328125 
Q 47.65625 -1.421875 41.21875 -1.421875 
Q 24.65625 -1.421875 15.125 8.703125 
Q 5.609375 18.84375 5.609375 36.375 
Q 5.609375 53.953125 15.125 64.078125 
Q 24.65625 74.21875 41.21875 74.21875 
Q 47.75 74.21875 53.53125 72.484375 
Q 59.328125 70.75 64.40625 67.28125 
" id="DejaVuSans-43"/>
     <path d="M 59.515625 10.40625 
L 59.515625 29.984375 
L 43.40625 29.984375 
L 43.40625 38.09375 
L 69.28125 38.09375 
L 69.28125 6.78125 
Q 63.578125 2.734375 56.6875 0.65625 
Q 49.8125 -1.421875 42 -1.421875 
Q 24.90625 -1.421875 15.25 8.5625 
Q 5.609375 18.5625 5.609375 36.375 
Q 5.609375 54.25 15.25 64.234375 
Q 24.90625 74.21875 42 74.21875 
Q 49.125 74.21875 55.546875 72.453125 
Q 61.96875 70.703125 67.390625 67.28125 
L 67.390625 56.78125 
Q 61.921875 61.421875 55.765625 63.765625 
Q 49.609375 66.109375 42.828125 66.109375 
Q 29.4375 66.109375 22.71875 58.640625 
Q 16.015625 51.171875 16.015625 36.375 
Q 16.015625 21.625 22.71875 14.15625 
Q 29.4375 6.6875 42.828125 6.6875 
Q 48.046875 6.6875 52.140625 7.59375 
Q 56.25 8.5 59.515625 10.40625 
" id="DejaVuSans-47"/>
    </defs>
    <g transform="translate(210.7935 227.28)scale(0.144 -0.144)">
     <use xlink:href="#DejaVuSans-43"/>
     <use x="69.824219" xlink:href="#DejaVuSans-47"/>
    </g>
   </g>
  </g>
 </g>
 <defs>
  <clipPath id="p2c26b95304">
   <rect height="151.2" width="334.8" x="54" y="51.84"/>
  </clipPath>
  <clipPath id="p8b4085450a">
   <rect height="151.2" width="334.8" x="54" y="233.28"/>
  </clipPath>
 </defs>
</svg>
