<?xml version="1.0" encoding="UTF-8" standalone="no"?>
<!-- Created with matplotlib (http://matplotlib.org/) -->

<svg
   xmlns:dc="http://purl.org/dc/elements/1.1/"
   xmlns:cc="http://creativecommons.org/ns#"
   xmlns:rdf="http://www.w3.org/1999/02/22-rdf-syntax-ns#"
   xmlns:svg="http://www.w3.org/2000/svg"
   xmlns="http://www.w3.org/2000/svg"
   xmlns:xlink="http://www.w3.org/1999/xlink"
   xmlns:sodipodi="http://sodipodi.sourceforge.net/DTD/sodipodi-0.dtd"
   xmlns:inkscape="http://www.inkscape.org/namespaces/inkscape"
   height="204.12225pt"
   version="1.1"
   viewBox="0 0 383.15802 204.12225"
   width="383.15802pt"
   id="svg666"
   sodipodi:docname="PKB00211_PKB00239_0_GC_content.svg"
   inkscape:version="0.92.3 (2405546, 2018-03-11)">
  <metadata
     id="metadata670">
    <rdf:RDF>
      <cc:Work
         rdf:about="">
        <dc:format>image/svg+xml</dc:format>
        <dc:type
           rdf:resource="http://purl.org/dc/dcmitype/StillImage" />
      </cc:Work>
    </rdf:RDF>
  </metadata>
  <sodipodi:namedview
     pagecolor="#ffffff"
     bordercolor="#666666"
     borderopacity="1"
     objecttolerance="10"
     gridtolerance="10"
     guidetolerance="10"
     inkscape:pageopacity="0"
     inkscape:pageshadow="2"
     inkscape:window-width="1920"
     inkscape:window-height="1136"
     id="namedview668"
     showgrid="false"
     inkscape:zoom="1.1588694"
     inkscape:cx="317.26914"
     inkscape:cy="144.156"
     inkscape:window-x="0"
     inkscape:window-y="27"
     inkscape:window-maximized="1"
     inkscape:current-layer="svg666" />
  <defs
     id="defs4"
     style="stroke-linecap:butt;stroke-linejoin:round">
    <style
       type="text/css"
       id="style2">
*{stroke-linecap:butt;stroke-linejoin:round;}
  </style>
    <defs
       id="defs608">
      <path
         d="m 44.390625,34.1875 q 3.171875,-1.078125 6.171875,-4.59375 3,-3.515625 6.03125,-9.671875 L 66.609375,0 H 56 l -9.3125,18.703125 q -3.625,7.328125 -7.015625,9.71875 -3.390625,2.390625 -9.25,2.390625 h -10.75 V 0 H 9.8125 v 72.90625 h 22.265625 q 12.5,0 18.65625,-5.234375 6.15625,-5.21875 6.15625,-15.765625 0,-6.890625 -3.203125,-11.4375 -3.203125,-4.53125 -9.296875,-6.28125 z m -24.71875,30.609375 v -25.875 h 12.40625 q 7.125,0 10.765625,3.296875 3.640625,3.296875 3.640625,9.6875 0,6.390625 -3.640625,9.640625 -3.640625,3.25 -10.765625,3.25 z"
         id="DejaVuSans-52"
         inkscape:connector-curvature="0"
         style="stroke-linecap:butt;stroke-linejoin:round" />
      <path
         d="M 2.984375,54.6875 H 12.5 L 29.59375,8.796875 46.6875,54.6875 h 9.515625 L 35.6875,0 H 23.484375 Z"
         id="DejaVuSans-76"
         inkscape:connector-curvature="0"
         style="stroke-linecap:butt;stroke-linejoin:round" />
      <path
         d="M 31,75.875 Q 24.46875,64.65625 21.28125,53.65625 18.109375,42.671875 18.109375,31.390625 18.109375,20.125 21.3125,9.0625 24.515625,-2 31,-13.1875 H 23.1875 Q 15.875,-1.703125 12.234375,9.375 8.59375,20.453125 8.59375,31.390625 q 0,10.890625 3.609375,21.921875 3.625,11.046875 10.984375,22.5625 z"
         id="DejaVuSans-28"
         inkscape:connector-curvature="0"
         style="stroke-linecap:butt;stroke-linejoin:round" />
      <path
         d="m 72.703125,32.078125 q -4.25,0 -6.671875,-3.609375 -2.40625,-3.609375 -2.40625,-10.0625 0,-6.34375 2.40625,-9.984375 2.421875,-3.640625 6.671875,-3.640625 4.15625,0 6.5625,3.640625 2.421875,3.640625 2.421875,9.984375 0,6.40625 -2.421875,10.03125 -2.40625,3.640625 -6.5625,3.640625 z m 0,6.203125 q 7.71875,0 12.25,-5.375 Q 89.5,27.546875 89.5,18.40625 q 0,-9.125 -4.5625,-14.484375 -4.5625,-5.34375 -12.234375,-5.34375 -7.8125,0 -12.359375,5.34375 -4.53125,5.359375 -4.53125,14.484375 0,9.1875 4.5625,14.53125 4.5625,5.34375 12.328125,5.34375 z M 22.3125,68.015625 q -4.203125,0 -6.625,-3.640625 -2.40625,-3.625 -2.40625,-9.984375 0,-6.4375 2.390625,-10.0625 2.390625,-3.609375 6.640625,-3.609375 4.25,0 6.65625,3.609375 2.421875,3.625 2.421875,10.0625 0,6.296875 -2.4375,9.953125 -2.4375,3.671875 -6.640625,3.671875 z m 44.09375,6.203125 h 7.8125 L 28.609375,-1.421875 h -7.8125 z m -44.09375,0 q 7.71875,0 12.296875,-5.34375 4.59375,-5.34375 4.59375,-14.484375 0,-9.21875 -4.5625,-14.546875 -4.5625,-5.328125 -12.328125,-5.328125 -7.765625,0 -12.28125,5.34375 -4.515625,5.359375 -4.515625,14.53125 0,9.09375 4.53125,14.453125 4.546875,5.375 12.265625,5.375 z"
         id="DejaVuSans-25"
         inkscape:connector-curvature="0"
         style="stroke-linecap:butt;stroke-linejoin:round" />
      <path
         d="m 8.015625,75.875 h 7.8125 q 7.3125,-11.515625 10.953125,-22.5625 3.640625,-11.03125 3.640625,-21.921875 0,-10.9375 -3.640625,-22.015625 -3.640625,-11.078125 -10.953125,-22.5625 h -7.8125 Q 14.5,-2 17.703125,9.0625 20.90625,20.125 20.90625,31.390625 q 0,11.28125 -3.203125,22.265625 -3.203125,11 -9.6875,22.21875 z"
         id="DejaVuSans-29"
         inkscape:connector-curvature="0"
         style="stroke-linecap:butt;stroke-linejoin:round" />
    </defs>
    <defs
       id="defs536">
      <path
         d="m 9.8125,72.90625 h 41.890625 v -8.3125 H 19.671875 V 43.109375 h 28.90625 V 34.8125 H 19.671875 V 0 H 9.8125 Z"
         id="DejaVuSans-46"
         inkscape:connector-curvature="0"
         style="stroke-linecap:butt;stroke-linejoin:round" />
      <path
         d="m 56.203125,29.59375 v -4.390625 h -41.3125 q 0.59375,-9.28125 5.59375,-14.140625 5,-4.859375 13.9375,-4.859375 5.171875,0 10.03125,1.265625 4.859375,1.265625 9.65625,3.8125 v -8.5 q -4.84375,-2.046875 -9.921875,-3.125 -5.078125,-1.078125 -10.296875,-1.078125 -13.09375,0 -20.734375,7.609375 -7.640625,7.625 -7.640625,20.625 0,13.421875 7.25,21.296875 Q 20.015625,56 32.328125,56 q 11.03125,0 17.453125,-7.109375 6.421875,-7.09375 6.421875,-19.296875 z m -8.984375,2.640625 q -0.09375,7.359375 -4.125,11.75 -4.03125,4.40625 -10.671875,4.40625 -7.515625,0 -12.03125,-4.25 -4.515625,-4.25 -5.203125,-11.96875 z"
         id="DejaVuSans-65"
         inkscape:connector-curvature="0"
         style="stroke-linecap:butt;stroke-linejoin:round" />
      <path
         d="m 14.796875,27.296875 q 0,-9.90625 4.078125,-15.546875 4.078125,-5.640625 11.203125,-5.640625 7.125,0 11.21875,5.640625 4.109375,5.640625 4.109375,15.546875 0,9.90625 -4.109375,15.546875 -4.09375,5.640625 -11.21875,5.640625 -7.125,0 -11.203125,-5.640625 -4.078125,-5.640625 -4.078125,-15.546875 z M 45.40625,8.203125 q -2.828125,-4.875 -7.15625,-7.25 -4.3125,-2.375 -10.375,-2.375 -9.90625,0 -16.140625,7.90625 -6.21875,7.921875 -6.21875,20.8125 0,12.890625 6.21875,20.796875 Q 17.96875,56 27.875,56 q 6.0625,0 10.375,-2.375 4.328125,-2.359375 7.15625,-7.234375 V 54.6875 h 8.984375 V -20.796875 H 45.40625 Z"
         id="DejaVuSans-71"
         inkscape:connector-curvature="0"
         style="stroke-linecap:butt;stroke-linejoin:round" />
      <path
         d="M 48.78125,52.59375 V 44.1875 q -3.8125,2.109375 -7.640625,3.15625 -3.828125,1.046875 -7.734375,1.046875 -8.75,0 -13.59375,-5.546875 -4.828125,-5.53125 -4.828125,-15.546875 0,-10.015625 4.828125,-15.5625 4.84375,-5.53125 13.59375,-5.53125 3.90625,0 7.734375,1.046875 3.828125,1.046875 7.640625,3.15625 v -8.3125 q -3.765625,-1.75 -7.796875,-2.625 -4.015625,-0.890625 -8.5625,-0.890625 -12.359375,0 -19.640625,7.765625 -7.265625,7.765625 -7.265625,20.953125 0,13.375 7.34375,21.03125 Q 20.21875,56 33.015625,56 q 4.140625,0 8.09375,-0.859375 3.953125,-0.84375 7.671875,-2.546875 z"
         id="DejaVuSans-63"
         inkscape:connector-curvature="0"
         style="stroke-linecap:butt;stroke-linejoin:round" />
      <path
         d="M 32.171875,-5.078125 Q 28.375,-14.84375 24.75,-17.8125 q -3.609375,-2.984375 -9.65625,-2.984375 h -7.1875 v 7.515625 h 5.28125 q 3.703125,0 5.75,1.765625 2.0625,1.75 4.546875,8.296875 L 25.09375,0.875 2.984375,54.6875 H 12.5 L 29.59375,11.921875 46.6875,54.6875 h 9.515625 z"
         id="DejaVuSans-79"
         inkscape:connector-curvature="0"
         style="stroke-linecap:butt;stroke-linejoin:round" />
      <path
         id="DejaVuSans-20"
         d=""
         inkscape:connector-curvature="0"
         style="stroke-linecap:butt;stroke-linejoin:round" />
      <path
         d="M 9.8125,72.90625 H 23.09375 L 55.421875,11.921875 V 72.90625 h 9.5625 V 0 h -13.28125 l -32.3125,60.984375 V 0 H 9.8125 Z"
         id="DejaVuSans-4e"
         inkscape:connector-curvature="0"
         style="stroke-linecap:butt;stroke-linejoin:round" />
      <path
         d="m 45.40625,46.390625 v 29.59375 h 8.984375 V 0 H 45.40625 v 8.203125 q -2.828125,-4.875 -7.15625,-7.25 -4.3125,-2.375 -10.375,-2.375 -9.90625,0 -16.140625,7.90625 -6.21875,7.921875 -6.21875,20.8125 0,12.890625 6.21875,20.796875 Q 17.96875,56 27.875,56 q 6.0625,0 10.375,-2.375 4.328125,-2.359375 7.15625,-7.234375 z M 14.796875,27.296875 q 0,-9.90625 4.078125,-15.546875 4.078125,-5.640625 11.203125,-5.640625 7.125,0 11.21875,5.640625 4.109375,5.640625 4.109375,15.546875 0,9.90625 -4.109375,15.546875 -4.09375,5.640625 -11.21875,5.640625 -7.125,0 -11.203125,-5.640625 -4.078125,-5.640625 -4.078125,-15.546875 z"
         id="DejaVuSans-64"
         inkscape:connector-curvature="0"
         style="stroke-linecap:butt;stroke-linejoin:round" />
      <path
         d="M 8.59375,75.984375 H 29.296875 V 69 H 17.578125 V -6.203125 h 11.71875 V -13.1875 H 8.59375 Z"
         id="DejaVuSans-5b"
         inkscape:connector-curvature="0"
         style="stroke-linecap:butt;stroke-linejoin:round" />
      <path
         d="M 30.421875,75.984375 V -13.1875 H 9.71875 v 6.984375 H 21.390625 V 69 H 9.71875 v 6.984375 z"
         id="DejaVuSans-5d"
         inkscape:connector-curvature="0"
         style="stroke-linecap:butt;stroke-linejoin:round" />
    </defs>
  </defs>
  <g
     id="text_24"
     style="stroke-linecap:butt;stroke-linejoin:round"
     transform="translate(-6.041985,-216.5925)">
    <!-- CG -->
    <defs
       id="defs516">
      <path
         d="M 64.40625,67.28125 V 56.890625 q -4.984375,4.640625 -10.625,6.921875 -5.640625,2.296875 -11.984375,2.296875 -12.5,0 -19.140625,-7.640625 -6.640625,-7.640625 -6.640625,-22.09375 0,-14.40625 6.640625,-22.046875 Q 29.296875,6.6875 41.796875,6.6875 q 6.34375,0 11.984375,2.296875 5.640625,2.296875 10.625,6.9375 V 5.609375 Q 59.234375,2.09375 53.4375,0.328125 q -5.78125,-1.75 -12.21875,-1.75 -16.5625,0 -26.09375,10.125 Q 5.609375,18.84375 5.609375,36.375 q 0,17.578125 9.515625,27.703125 9.53125,10.140625 26.09375,10.140625 6.53125,0 12.3125,-1.734375 5.796875,-1.734375 10.875,-5.203125 z"
         id="DejaVuSans-43"
         inkscape:connector-curvature="0"
         style="stroke-linecap:butt;stroke-linejoin:round" />
      <path
         d="M 59.515625,10.40625 V 29.984375 H 43.40625 v 8.109375 h 25.875 V 6.78125 Q 63.578125,2.734375 56.6875,0.65625 49.8125,-1.421875 42,-1.421875 q -17.09375,0 -26.75,9.984375 -9.640625,10 -9.640625,27.8125 0,17.875 9.640625,27.859375 9.65625,9.984375 26.75,9.984375 7.125,0 13.546875,-1.765625 6.421875,-1.75 11.84375,-5.171875 v -10.5 q -5.46875,4.640625 -11.625,6.984375 -6.15625,2.34375 -12.9375,2.34375 -13.390625,0 -20.109375,-7.46875 -6.703125,-7.46875 -6.703125,-22.265625 0,-14.75 6.703125,-22.21875 6.71875,-7.46875 20.109375,-7.46875 5.21875,0 9.3125,0.90625 4.109375,0.90625 7.375,2.8125 z"
         id="DejaVuSans-47"
         inkscape:connector-curvature="0"
         style="stroke-linecap:butt;stroke-linejoin:round" />
    </defs>
    <g
       transform="matrix(0.144,0,0,-0.144,210.7935,227.28)"
       id="g522"
       style="stroke-linecap:butt;stroke-linejoin:round">
      <use
         xlink:href="#DejaVuSans-43"
         id="use518"
         style="stroke-linecap:butt;stroke-linejoin:round"
         x="0"
         y="0"
         width="100%"
         height="100%" />
      <use
         x="69.824219"
         xlink:href="#DejaVuSans-47"
         id="use520"
         style="stroke-linecap:butt;stroke-linejoin:round"
         y="0"
         width="100%"
         height="100%" />
    </g>
  </g>
  <g
     transform="matrix(0.144,0,0,-0.144,93.78489,201.1275)"
     id="g600"
     style="stroke-linecap:butt;stroke-linejoin:round">
    <use
       xlink:href="#DejaVuSans-46"
       id="use538"
       style="stroke-linecap:butt;stroke-linejoin:round"
       x="0"
       y="0"
       width="100%"
       height="100%" />
    <use
       x="57.410156"
       xlink:href="#DejaVuSans-72"
       id="use540"
       style="stroke-linecap:butt;stroke-linejoin:round"
       y="0"
       width="100%"
       height="100%" />
    <use
       x="98.492188"
       xlink:href="#DejaVuSans-65"
       id="use542"
       style="stroke-linecap:butt;stroke-linejoin:round"
       y="0"
       width="100%"
       height="100%" />
    <use
       x="160.01562"
       xlink:href="#DejaVuSans-71"
       id="use544"
       style="stroke-linecap:butt;stroke-linejoin:round"
       y="0"
       width="100%"
       height="100%" />
    <use
       x="223.49219"
       xlink:href="#DejaVuSans-75"
       id="use546"
       style="stroke-linecap:butt;stroke-linejoin:round"
       y="0"
       width="100%"
       height="100%" />
    <use
       x="286.87109"
       xlink:href="#DejaVuSans-65"
       id="use548"
       style="stroke-linecap:butt;stroke-linejoin:round"
       y="0"
       width="100%"
       height="100%" />
    <use
       x="348.39453"
       xlink:href="#DejaVuSans-6e"
       id="use550"
       style="stroke-linecap:butt;stroke-linejoin:round"
       y="0"
       width="100%"
       height="100%" />
    <use
       x="411.77344"
       xlink:href="#DejaVuSans-63"
       id="use552"
       style="stroke-linecap:butt;stroke-linejoin:round"
       y="0"
       width="100%"
       height="100%" />
    <use
       x="466.75391"
       xlink:href="#DejaVuSans-79"
       id="use554"
       style="stroke-linecap:butt;stroke-linejoin:round"
       y="0"
       width="100%"
       height="100%" />
    <use
       x="525.93359"
       xlink:href="#DejaVuSans-20"
       id="use556"
       style="stroke-linecap:butt;stroke-linejoin:round"
       y="0"
       width="100%"
       height="100%" />
    <use
       x="557.7207"
       xlink:href="#DejaVuSans-6f"
       id="use558"
       style="stroke-linecap:butt;stroke-linejoin:round"
       y="0"
       width="100%"
       height="100%" />
    <use
       x="618.90234"
       xlink:href="#DejaVuSans-66"
       id="use560"
       style="stroke-linecap:butt;stroke-linejoin:round"
       y="0"
       width="100%"
       height="100%" />
    <use
       x="654.10742"
       xlink:href="#DejaVuSans-20"
       id="use562"
       style="stroke-linecap:butt;stroke-linejoin:round"
       y="0"
       width="100%"
       height="100%" />
    <use
       x="685.89453"
       xlink:href="#DejaVuSans-4e"
       id="use564"
       style="stroke-linecap:butt;stroke-linejoin:round"
       y="0"
       width="100%"
       height="100%" />
    <use
       x="760.69922"
       xlink:href="#DejaVuSans-75"
       id="use566"
       style="stroke-linecap:butt;stroke-linejoin:round"
       y="0"
       width="100%"
       height="100%" />
    <use
       x="824.07812"
       xlink:href="#DejaVuSans-63"
       id="use568"
       style="stroke-linecap:butt;stroke-linejoin:round"
       y="0"
       width="100%"
       height="100%" />
    <use
       x="879.05859"
       xlink:href="#DejaVuSans-6c"
       id="use570"
       style="stroke-linecap:butt;stroke-linejoin:round"
       y="0"
       width="100%"
       height="100%" />
    <use
       x="906.8418"
       xlink:href="#DejaVuSans-65"
       id="use572"
       style="stroke-linecap:butt;stroke-linejoin:round"
       y="0"
       width="100%"
       height="100%" />
    <use
       x="968.36523"
       xlink:href="#DejaVuSans-6f"
       id="use574"
       style="stroke-linecap:butt;stroke-linejoin:round"
       y="0"
       width="100%"
       height="100%" />
    <use
       x="1029.5469"
       xlink:href="#DejaVuSans-74"
       id="use576"
       style="stroke-linecap:butt;stroke-linejoin:round"
       y="0"
       width="100%"
       height="100%" />
    <use
       x="1068.7559"
       xlink:href="#DejaVuSans-69"
       id="use578"
       style="stroke-linecap:butt;stroke-linejoin:round"
       y="0"
       width="100%"
       height="100%" />
    <use
       x="1096.5391"
       xlink:href="#DejaVuSans-64"
       id="use580"
       style="stroke-linecap:butt;stroke-linejoin:round"
       y="0"
       width="100%"
       height="100%" />
    <use
       x="1160.0156"
       xlink:href="#DejaVuSans-65"
       id="use582"
       style="stroke-linecap:butt;stroke-linejoin:round"
       y="0"
       width="100%"
       height="100%" />
    <use
       x="1221.5391"
       xlink:href="#DejaVuSans-20"
       id="use584"
       style="stroke-linecap:butt;stroke-linejoin:round"
       y="0"
       width="100%"
       height="100%" />
    <use
       x="1253.3262"
       xlink:href="#DejaVuSans-5b"
       id="use586"
       style="stroke-linecap:butt;stroke-linejoin:round"
       y="0"
       width="100%"
       height="100%" />
    <use
       x="1292.3398"
       xlink:href="#DejaVuSans-63"
       id="use588"
       style="stroke-linecap:butt;stroke-linejoin:round"
       y="0"
       width="100%"
       height="100%" />
    <use
       x="1347.3203"
       xlink:href="#DejaVuSans-6f"
       id="use590"
       style="stroke-linecap:butt;stroke-linejoin:round"
       y="0"
       width="100%"
       height="100%" />
    <use
       x="1408.502"
       xlink:href="#DejaVuSans-75"
       id="use592"
       style="stroke-linecap:butt;stroke-linejoin:round"
       y="0"
       width="100%"
       height="100%" />
    <use
       x="1471.8809"
       xlink:href="#DejaVuSans-6e"
       id="use594"
       style="stroke-linecap:butt;stroke-linejoin:round"
       y="0"
       width="100%"
       height="100%" />
    <use
       x="1535.2598"
       xlink:href="#DejaVuSans-74"
       id="use596"
       style="stroke-linecap:butt;stroke-linejoin:round"
       y="0"
       width="100%"
       height="100%" />
    <use
       x="1574.4688"
       xlink:href="#DejaVuSans-5d"
       id="use598"
       style="stroke-linecap:butt;stroke-linejoin:round"
       y="0"
       width="100%"
       height="100%" />
  </g>
  <g
     id="g2916"
     style="stroke-linecap:butt;stroke-linejoin:round"
     transform="translate(-6.041985,-216.5925)">
    <g
       style="stroke-linecap:butt;stroke-linejoin:round"
       id="patch_20">
      <path
         inkscape:connector-curvature="0"
         id="path320"
         style="fill:#ffffff;stroke-linecap:butt;stroke-linejoin:round"
         d="M 54,384.48 H 388.8 V 233.28 H 54 Z" />
    </g>
    <g
       style="stroke-linecap:butt;stroke-linejoin:round"
       id="patch_21">
      <path
         inkscape:connector-curvature="0"
         id="path323"
         style="opacity:0.5;fill:#440154;stroke-linecap:butt;stroke-linejoin:round"
         d="m 69.218182,384.48 v 0 h 3.852704 v 0 h 3.852704 v 0 h 3.852705 v 0 h 3.852704 v 0 h 3.852704 v 0 h 3.852704 v 0 h 3.852705 v 0 h 3.852708 v 0 h 3.8527 v 0 h 3.8527 v 0 h 3.85271 v 0 h 3.8527 v 0 h 3.85271 v 0 h 3.8527 v 0 h 3.85271 v 0 h 3.8527 v 0 h 3.8527 v 0 h 3.85271 v 0 h 3.8527 v 0 h 3.85271 v 0 h 3.8527 v 0 h 3.8527 v 0 h 3.85271 v 0 h 3.8527 v 0 h 3.85271 v 0 h 3.8527 v 0 h 3.85271 v 0 h 3.8527 v 0 h 3.8527 v 0 h 3.85271 v 0 h 3.8527 v 0 h 3.85271 v 0 h 3.8527 v 0 h 3.85271 v 0 h 3.8527 v 0 h 3.8527 v 0 h 3.85271 v 0 h 3.8527 v -0.0247 h 3.85271 v 0.0247 h 3.8527 v -2.98956 h 3.85271 V 384.48 h 3.8527 v -13.41597 h 3.8527 v -25.12716 h 3.85271 v -56.18402 h 3.8527 V 384.48 h 3.85271 v 0 h 3.8527 v 0 h 3.85271 v 0 h 3.8527 v 0 h 3.8527 v 0 h 3.85271 v 0 h 3.8527 v 0 h 3.85271 v 0 h 3.8527 v 0 h 3.85271 v 0 h 3.8527 v 0 h 3.8527 v 0 h 3.85271 v 0 h 3.8527 v 0 h 3.85271 v 0 h 3.8527 v 0 h 3.85271 v 0 h 3.8527 v 0 h 3.8527 v 0 h 3.85271 v 0 h 3.8527 v 0 h 3.85271 v 0 h 3.8527 v 0 h 3.85271 v 0 h 3.8527 v 0 h 3.8527 v 0 h 3.85271 v 0 h 3.8527 v 0 h 3.85271 v 0 h 3.8527 v 0 h 3.8527 v 0 h 3.85271 v 0 h 3.8527 v 0 h 3.85271 v 0 h -3.85271 v 0 h -3.8527 v 0 h -3.85271 v 0 h -3.8527 v 0 h -3.8527 v 0 h -3.85271 v 0 h -3.8527 v 0 h -3.85271 v 0 h -3.8527 v 0 h -3.8527 v 0 h -3.85271 v 0 h -3.8527 v 0 h -3.85271 v 0 h -3.8527 v 0 h -3.85271 v 0 h -3.8527 v 0 h -3.8527 v 0 h -3.85271 v 0 h -3.8527 v 0 h -3.85271 v 0 h -3.8527 v 0 h -3.85271 v 0 h -3.8527 v 0 h -3.8527 v 0 h -3.85271 v 0 h -3.8527 v 0 h -3.85271 v 0 h -3.8527 v 0 h -3.85271 v 0 h -3.8527 v 0 h -3.8527 v 0 h -3.85271 v 0 h -3.8527 v 0 h -3.85271 v 0 h -3.8527 v 0 h -3.85271 v 0 h -3.8527 v 0 h -3.8527 v 0 h -3.85271 v 0 h -3.8527 v 0 h -3.85271 v 0 h -3.8527 v 0 h -3.85271 v 0 h -3.8527 v 0 h -3.8527 v 0 h -3.85271 v 0 h -3.8527 v 0 h -3.85271 v 0 h -3.8527 v 0 h -3.85271 v 0 h -3.8527 v 0 h -3.8527 v 0 h -3.85271 v 0 h -3.8527 v 0 h -3.85271 v 0 h -3.8527 v 0 h -3.85271 v 0 h -3.8527 v 0 h -3.8527 v 0 h -3.85271 v 0 h -3.8527 v 0 h -3.85271 v 0 h -3.8527 v 0 h -3.8527 v 0 h -3.85271 v 0 h -3.8527 v 0 h -3.85271 v 0 h -3.8527 v 0 h -3.85271 v 0 h -3.8527 v 0 h -3.8527 v 0 h -3.852708 v 0 h -3.852705 v 0 h -3.852704 v 0 h -3.852704 v 0 h -3.852704 v 0 H 76.92359 v 0 h -3.852704 v 0 z"
         clip-path="url(#p15a097b377)" />
    </g>
    <g
       style="stroke-linecap:butt;stroke-linejoin:round"
       id="patch_22">
      <path
         inkscape:connector-curvature="0"
         id="path326"
         style="opacity:0.5;fill:#414487;stroke-linecap:butt;stroke-linejoin:round"
         d="m 69.218182,384.48 v 0 h 3.852704 v 0 h 3.852704 v 0 h 3.852705 v 0 h 3.852704 v 0 h 3.852704 v 0 h 3.852704 v 0 h 3.852705 v 0 h 3.852708 v 0 h 3.8527 v 0 h 3.8527 v 0 h 3.85271 v 0 h 3.8527 v 0 h 3.85271 v 0 h 3.8527 v 0 h 3.85271 v 0 h 3.8527 v 0 h 3.8527 v 0 h 3.85271 v 0 h 3.8527 v 0 h 3.85271 v 0 h 3.8527 v 0 h 3.8527 v -0.0898 h 3.85271 v 0.0599 h 3.8527 v 0.0299 h 3.85271 v -0.17964 h 3.8527 v -0.23952 h 3.85271 v -1.01797 h 3.8527 v -0.17964 h 3.8527 V 384.48 h 3.85271 v -2.06587 h 3.8527 v -0.4491 h 3.85271 v -6.28742 h 3.8527 v 2.18563 h 3.85271 V 384.48 h 3.8527 v -7.12574 h 3.8527 v -1.49701 h 3.85271 v -11.91616 h 3.8527 v 9.99999 h 3.85271 V 384.48 h 3.8527 v -21.16765 h 3.85271 V 384.48 h 3.8527 v -10.32934 h 3.8527 v 0.62875 h 3.85271 v 1.16766 h 3.8527 v -3.35329 h 3.85271 V 384.48 h 3.8527 v -8.26347 h 3.85271 V 384.48 h 3.8527 v -2.57485 h 3.8527 v -1.43712 h 3.85271 V 384.48 h 3.8527 v -1.76647 h 3.85271 V 384.48 h 3.8527 v -0.47904 h 3.85271 v 0.20958 h 3.8527 V 384.48 h 3.8527 v -0.0599 h 3.85271 v 0.0599 h 3.8527 v 0 h 3.85271 v -0.0599 h 3.8527 v 0.0599 h 3.85271 v 0 h 3.8527 v 0 h 3.8527 v 0 h 3.85271 v 0 h 3.8527 v 0 h 3.85271 v 0 h 3.8527 v 0 h 3.85271 v 0 h 3.8527 v 0 h 3.8527 v 0 h 3.85271 v 0 h 3.8527 v 0 h 3.85271 v 0 h 3.8527 v 0 h 3.8527 v 0 h 3.85271 v 0 h 3.8527 v 0 h 3.85271 v 0 h -3.85271 v 0 h -3.8527 v 0 h -3.85271 v 0 h -3.8527 v 0 h -3.8527 v 0 h -3.85271 v 0 h -3.8527 v 0 h -3.85271 v 0 h -3.8527 v 0 h -3.8527 v 0 h -3.85271 v 0 h -3.8527 v 0 h -3.85271 v 0 h -3.8527 v 0 h -3.85271 v 0 h -3.8527 v 0 h -3.8527 v 0 h -3.85271 v 0 h -3.8527 v 0 h -3.85271 v 0 h -3.8527 v 0 h -3.85271 v 0 h -3.8527 v 0 h -3.8527 v 0 h -3.85271 v 0 h -3.8527 v 0 h -3.85271 v 0 h -3.8527 v 0 h -3.85271 v 0 h -3.8527 v 0 h -3.8527 v 0 h -3.85271 v 0 h -3.8527 v 0 h -3.85271 v 0 h -3.8527 v 0 h -3.85271 v 0 h -3.8527 v 0 h -3.8527 v 0 h -3.85271 v 0 h -3.8527 v 0 h -3.85271 v 0 h -3.8527 v 0 h -3.85271 v 0 h -3.8527 v 0 h -3.8527 v 0 h -3.85271 v 0 h -3.8527 v 0 h -3.85271 v 0 h -3.8527 v 0 h -3.85271 v 0 h -3.8527 v 0 h -3.8527 v 0 h -3.85271 v 0 h -3.8527 v 0 h -3.85271 v 0 h -3.8527 v 0 h -3.85271 v 0 h -3.8527 v 0 h -3.8527 v 0 h -3.85271 v 0 h -3.8527 v 0 h -3.85271 v 0 h -3.8527 v 0 h -3.8527 v 0 h -3.85271 v 0 h -3.8527 v 0 h -3.85271 v 0 h -3.8527 v 0 h -3.85271 v 0 h -3.8527 v 0 h -3.8527 v 0 h -3.852708 v 0 h -3.852705 v 0 h -3.852704 v 0 h -3.852704 v 0 h -3.852704 v 0 H 76.92359 v 0 h -3.852704 v 0 z"
         clip-path="url(#p15a097b377)" />
    </g>
    <g
       style="stroke-linecap:butt;stroke-linejoin:round"
       id="patch_23">
      <path
         inkscape:connector-curvature="0"
         id="path329"
         style="opacity:0.5;fill:#2a788e;stroke-linecap:butt;stroke-linejoin:round"
         d="m 69.218182,384.48 v 0 h 3.852704 v 0 h 3.852704 v 0 h 3.852705 v 0 h 3.852704 v 0 h 3.852704 v 0 h 3.852704 v 0 h 3.852705 v 0 h 3.852708 v 0 h 3.8527 v 0 h 3.8527 v 0 h 3.85271 v 0 h 3.8527 v 0 h 3.85271 v 0 h 3.8527 v 0 h 3.85271 v 0 h 3.8527 v 0 h 3.8527 v 0 h 3.85271 v 0 h 3.8527 v 0 h 3.85271 v 0 h 3.8527 v 0 h 3.8527 v 0 h 3.85271 v 0 h 3.8527 v 0 h 3.85271 v 0 h 3.8527 v 0 h 3.85271 v 0 h 3.8527 v 0 h 3.8527 v 0 h 3.85271 v 0 h 3.8527 v 0 h 3.85271 v 0 h 3.8527 v 0 h 3.85271 v 0 h 3.8527 v 0 h 3.8527 v 0 h 3.85271 v 0 h 3.8527 v 0 h 3.85271 v 0 h 3.8527 v 0 h 3.85271 v 0 h 3.8527 v 0 h 3.8527 v 0 h 3.85271 v 0 h 3.8527 v 0 h 3.85271 v 0 h 3.8527 v 0 h 3.85271 v 0 h 3.8527 v 0 h 3.8527 v 0 h 3.85271 v 0 h 3.8527 v 0 h 3.85271 v 0 h 3.8527 v 0 h 3.85271 v -0.0299 h 3.8527 v 0.0299 h 3.8527 v -0.11976 h 3.85271 V 384.48 h 3.8527 v -0.20958 h 3.85271 v -1.16767 h 3.8527 V 384.48 h 3.85271 v -4.43114 h 3.8527 V 384.48 h 3.8527 v -5.26946 h 3.85271 v -14.76047 h 3.8527 V 384.48 h 3.85271 v -33.32334 h 3.8527 V 384.48 h 3.85271 v -21.04789 h 3.8527 v -16.10778 h 3.8527 V 384.48 h 3.85271 v -19.40119 h 3.8527 V 384.48 h 3.85271 v -4.5509 h 3.8527 v 2.03593 h 3.8527 V 384.48 h 3.85271 v -0.23952 h 3.8527 V 384.48 h 3.85271 v 0 h -3.85271 v 0 h -3.8527 v 0 h -3.85271 v 0 h -3.8527 v 0 h -3.8527 v 0 h -3.85271 v 0 h -3.8527 v 0 h -3.85271 v 0 h -3.8527 v 0 h -3.8527 v 0 h -3.85271 v 0 h -3.8527 v 0 h -3.85271 v 0 h -3.8527 v 0 h -3.85271 v 0 h -3.8527 v 0 h -3.8527 v 0 h -3.85271 v 0 h -3.8527 v 0 h -3.85271 v 0 h -3.8527 v 0 h -3.85271 v 0 h -3.8527 v 0 h -3.8527 v 0 h -3.85271 v 0 h -3.8527 v 0 h -3.85271 v 0 h -3.8527 v 0 h -3.85271 v 0 h -3.8527 v 0 h -3.8527 v 0 h -3.85271 v 0 h -3.8527 v 0 h -3.85271 v 0 h -3.8527 v 0 h -3.85271 v 0 h -3.8527 v 0 h -3.8527 v 0 h -3.85271 v 0 h -3.8527 v 0 h -3.85271 v 0 h -3.8527 v 0 h -3.85271 v 0 h -3.8527 v 0 h -3.8527 v 0 h -3.85271 v 0 h -3.8527 v 0 h -3.85271 v 0 h -3.8527 v 0 h -3.85271 v 0 h -3.8527 v 0 h -3.8527 v 0 h -3.85271 v 0 h -3.8527 v 0 h -3.85271 v 0 h -3.8527 v 0 h -3.85271 v 0 h -3.8527 v 0 h -3.8527 v 0 h -3.85271 v 0 h -3.8527 v 0 h -3.85271 v 0 h -3.8527 v 0 h -3.8527 v 0 h -3.85271 v 0 h -3.8527 v 0 h -3.85271 v 0 h -3.8527 v 0 h -3.85271 v 0 h -3.8527 v 0 h -3.8527 v 0 h -3.852708 v 0 h -3.852705 v 0 h -3.852704 v 0 h -3.852704 v 0 h -3.852704 v 0 H 76.92359 v 0 h -3.852704 v 0 z"
         clip-path="url(#p15a097b377)" />
    </g>
    <g
       style="stroke-linecap:butt;stroke-linejoin:round"
       id="patch_24">
      <path
         inkscape:connector-curvature="0"
         id="path332"
         style="opacity:0.5;fill:#22a884;stroke-linecap:butt;stroke-linejoin:round"
         d="m 69.218182,384.48 v 0 h 3.852704 v 0 h 3.852704 v 0 h 3.852705 v 0 h 3.852704 v 0 h 3.852704 v 0 h 3.852704 v 0 h 3.852705 v 0 h 3.852708 v 0 h 3.8527 v 0 h 3.8527 v 0 h 3.85271 v 0 h 3.8527 v 0 h 3.85271 v 0 h 3.8527 v 0 h 3.85271 v 0 h 3.8527 v 0 h 3.8527 v 0 h 3.85271 v 0 h 3.8527 v 0 h 3.85271 v 0 h 3.8527 v 0 h 3.8527 v 0 h 3.85271 v 0 h 3.8527 v 0 h 3.85271 v 0 h 3.8527 v 0 h 3.85271 v 0 h 3.8527 v 0 h 3.8527 v 0 h 3.85271 v 0 h 3.8527 v 0 h 3.85271 v 0 h 3.8527 v 0 h 3.85271 v 0 h 3.8527 v 0 h 3.8527 v 0 h 3.85271 v 0 h 3.8527 v -0.0842 h 3.85271 v 0.0842 h 3.8527 v -3.53424 h 3.85271 V 384.48 h 3.8527 v -13.29549 h 3.8527 v -26.17024 h 3.85271 V 291.1591 h 3.8527 V 384.48 h 3.85271 v 0 h 3.8527 v 0 h 3.85271 v 0 h 3.8527 v 0 h 3.8527 v 0 h 3.85271 v 0 h 3.8527 v 0 h 3.85271 v 0 h 3.8527 v 0 h 3.85271 v 0 h 3.8527 v 0 h 3.8527 v 0 h 3.85271 v 0 h 3.8527 v 0 h 3.85271 v 0 h 3.8527 v 0 h 3.85271 v 0 h 3.8527 v 0 h 3.8527 v 0 h 3.85271 v 0 h 3.8527 v 0 h 3.85271 v 0 h 3.8527 v 0 h 3.85271 v 0 h 3.8527 v 0 h 3.8527 v 0 h 3.85271 v 0 h 3.8527 v 0 h 3.85271 v 0 h 3.8527 v 0 h 3.8527 v 0 h 3.85271 v 0 h 3.8527 v 0 h 3.85271 v 0 h -3.85271 v 0 h -3.8527 v 0 h -3.85271 v 0 h -3.8527 v 0 h -3.8527 v 0 h -3.85271 v 0 h -3.8527 v 0 h -3.85271 v 0 h -3.8527 v 0 h -3.8527 v 0 h -3.85271 v 0 h -3.8527 v 0 h -3.85271 v 0 h -3.8527 v 0 h -3.85271 v 0 h -3.8527 v 0 h -3.8527 v 0 h -3.85271 v 0 h -3.8527 v 0 h -3.85271 v 0 h -3.8527 v 0 h -3.85271 v 0 h -3.8527 v 0 h -3.8527 v 0 h -3.85271 v 0 h -3.8527 v 0 h -3.85271 v 0 h -3.8527 v 0 h -3.85271 v 0 h -3.8527 v 0 h -3.8527 v 0 h -3.85271 v 0 h -3.8527 v 0 h -3.85271 v 0 h -3.8527 v 0 h -3.85271 v 0 h -3.8527 v 0 h -3.8527 v 0 h -3.85271 v 0 h -3.8527 v 0 h -3.85271 v 0 h -3.8527 v 0 h -3.85271 v 0 h -3.8527 v 0 h -3.8527 v 0 h -3.85271 v 0 h -3.8527 v 0 h -3.85271 v 0 h -3.8527 v 0 h -3.85271 v 0 h -3.8527 v 0 h -3.8527 v 0 h -3.85271 v 0 h -3.8527 v 0 h -3.85271 v 0 h -3.8527 v 0 h -3.85271 v 0 h -3.8527 v 0 h -3.8527 v 0 h -3.85271 v 0 h -3.8527 v 0 h -3.85271 v 0 h -3.8527 v 0 h -3.8527 v 0 h -3.85271 v 0 h -3.8527 v 0 h -3.85271 v 0 h -3.8527 v 0 h -3.85271 v 0 h -3.8527 v 0 h -3.8527 v 0 h -3.852708 v 0 h -3.852705 v 0 h -3.852704 v 0 h -3.852704 v 0 h -3.852704 v 0 H 76.92359 v 0 h -3.852704 v 0 z"
         clip-path="url(#p15a097b377)" />
    </g>
    <g
       style="stroke-linecap:butt;stroke-linejoin:round"
       id="patch_25">
      <path
         inkscape:connector-curvature="0"
         id="path335"
         style="opacity:0.5;fill:#7ad151;stroke-linecap:butt;stroke-linejoin:round"
         d="m 69.218182,384.48 v 0 h 3.852704 v 0 h 3.852704 v 0 h 3.852705 v 0 h 3.852704 v 0 h 3.852704 v 0 h 3.852704 v 0 h 3.852705 v 0 h 3.852708 v 0 h 3.8527 v 0 h 3.8527 v 0 h 3.85271 v 0 h 3.8527 v 0 h 3.85271 v 0 h 3.8527 v 0 h 3.85271 v 0 h 3.8527 v 0 h 3.8527 v 0 h 3.85271 v 0 h 3.8527 v 0 h 3.85271 v 0 h 3.8527 v 0 h 3.8527 v 0 h 3.85271 v 0 h 3.8527 v 0 h 3.85271 v 0 h 3.8527 v 0 h 3.85271 v 0 h 3.8527 v 0 h 3.8527 v 0 h 3.85271 v 0 h 3.8527 v 0 h 3.85271 v 0 h 3.8527 v 0 h 3.85271 v 0 h 3.8527 v 0 h 3.8527 v 0 h 3.85271 v 0 h 3.8527 v 0 h 3.85271 v 0 h 3.8527 v 0 h 3.85271 v 0 h 3.8527 v 0 h 3.8527 v -5.70052 h 3.85271 V 240.48 h 3.8527 v 144 h 3.85271 v 0 h 3.8527 v 0 h 3.85271 v 0 h 3.8527 v 0 h 3.8527 v 0 h 3.85271 v 0 h 3.8527 v 0 h 3.85271 v 0 h 3.8527 v 0 h 3.85271 v 0 h 3.8527 v 0 h 3.8527 v 0 h 3.85271 v 0 h 3.8527 v 0 h 3.85271 v 0 h 3.8527 v 0 h 3.85271 v 0 h 3.8527 v 0 h 3.8527 v 0 h 3.85271 v 0 h 3.8527 v 0 h 3.85271 v 0 h 3.8527 v 0 h 3.85271 v 0 h 3.8527 v 0 h 3.8527 v 0 h 3.85271 v 0 h 3.8527 v 0 h 3.85271 v 0 h 3.8527 v 0 h 3.8527 v 0 h 3.85271 v 0 h 3.8527 v 0 h 3.85271 v 0 h -3.85271 v 0 h -3.8527 v 0 h -3.85271 v 0 h -3.8527 v 0 h -3.8527 v 0 h -3.85271 v 0 h -3.8527 v 0 h -3.85271 v 0 h -3.8527 v 0 h -3.8527 v 0 h -3.85271 v 0 h -3.8527 v 0 h -3.85271 v 0 h -3.8527 v 0 h -3.85271 v 0 h -3.8527 v 0 h -3.8527 v 0 h -3.85271 v 0 h -3.8527 v 0 h -3.85271 v 0 h -3.8527 v 0 h -3.85271 v 0 h -3.8527 v 0 h -3.8527 v 0 h -3.85271 v 0 h -3.8527 v 0 h -3.85271 v 0 h -3.8527 v 0 h -3.85271 v 0 h -3.8527 v 0 h -3.8527 v 0 h -3.85271 v 0 h -3.8527 v 0 h -3.85271 v 0 h -3.8527 v 0 h -3.85271 v 0 h -3.8527 v 0 h -3.8527 v 0 h -3.85271 v 0 h -3.8527 v 0 h -3.85271 v 0 h -3.8527 v 0 h -3.85271 v 0 h -3.8527 v 0 h -3.8527 v 0 h -3.85271 v 0 h -3.8527 v 0 h -3.85271 v 0 h -3.8527 v 0 h -3.85271 v 0 h -3.8527 v 0 h -3.8527 v 0 h -3.85271 v 0 h -3.8527 v 0 h -3.85271 v 0 h -3.8527 v 0 h -3.85271 v 0 h -3.8527 v 0 h -3.8527 v 0 h -3.85271 v 0 h -3.8527 v 0 h -3.85271 v 0 h -3.8527 v 0 h -3.8527 v 0 h -3.85271 v 0 h -3.8527 v 0 h -3.85271 v 0 h -3.8527 v 0 h -3.85271 v 0 h -3.8527 v 0 h -3.8527 v 0 h -3.852708 v 0 h -3.852705 v 0 h -3.852704 v 0 h -3.852704 v 0 h -3.852704 v 0 H 76.92359 v 0 h -3.852704 v 0 z"
         clip-path="url(#p15a097b377)" />
    </g>
    <g
       style="stroke-linecap:butt;stroke-linejoin:round"
       id="patch_26">
      <path
         inkscape:connector-curvature="0"
         id="path338"
         style="opacity:0.5;fill:#fde725;stroke-linecap:butt;stroke-linejoin:round"
         d="m 69.218182,384.48 v 0 h 3.852704 v 0 h 3.852704 v 0 h 3.852705 v 0 h 3.852704 v 0 h 3.852704 v 0 h 3.852704 v 0 h 3.852705 v 0 h 3.852708 v 0 h 3.8527 v 0 h 3.8527 v 0 h 3.85271 v 0 h 3.8527 v 0 h 3.85271 v 0 h 3.8527 v 0 h 3.85271 v 0 h 3.8527 v 0 h 3.8527 v 0 h 3.85271 v 0 h 3.8527 v 0 h 3.85271 v 0 h 3.8527 v 0 h 3.8527 v 0 h 3.85271 v 0 h 3.8527 v 0 h 3.85271 v 0 h 3.8527 v 0 h 3.85271 v 0 h 3.8527 v 0 h 3.8527 v 0 h 3.85271 v 0 h 3.8527 v 0 h 3.85271 v 0 h 3.8527 v 0 h 3.85271 v 0 h 3.8527 v 0 h 3.8527 v 0 h 3.85271 v -0.024 h 3.8527 v 0 h 3.85271 v 0.024 h 3.8527 v -4.39942 h 3.85271 V 384.48 h 3.8527 v -14.20797 h 3.8527 v -25.91571 h 3.85271 v -50.79769 h 3.8527 V 384.48 h 3.85271 v 0 h 3.8527 v 0 h 3.85271 v 0 h 3.8527 v 0 h 3.8527 v 0 h 3.85271 v 0 h 3.8527 v 0 h 3.85271 v 0 h 3.8527 v 0 h 3.85271 v 0 h 3.8527 v 0 h 3.8527 v 0 h 3.85271 v 0 h 3.8527 v 0 h 3.85271 v 0 h 3.8527 v 0 h 3.85271 v 0 h 3.8527 v 0 h 3.8527 v 0 h 3.85271 v 0 h 3.8527 v 0 h 3.85271 v 0 h 3.8527 v 0 h 3.85271 v 0 h 3.8527 v 0 h 3.8527 v 0 h 3.85271 v 0 h 3.8527 v 0 h 3.85271 v 0 h 3.8527 v 0 h 3.8527 v 0 h 3.85271 v 0 h 3.8527 v 0 h 3.85271 v 0 h -3.85271 v 0 h -3.8527 v 0 h -3.85271 v 0 h -3.8527 v 0 h -3.8527 v 0 h -3.85271 v 0 h -3.8527 v 0 h -3.85271 v 0 h -3.8527 v 0 h -3.8527 v 0 h -3.85271 v 0 h -3.8527 v 0 h -3.85271 v 0 h -3.8527 v 0 h -3.85271 v 0 h -3.8527 v 0 h -3.8527 v 0 h -3.85271 v 0 h -3.8527 v 0 h -3.85271 v 0 h -3.8527 v 0 h -3.85271 v 0 h -3.8527 v 0 h -3.8527 v 0 h -3.85271 v 0 h -3.8527 v 0 h -3.85271 v 0 h -3.8527 v 0 h -3.85271 v 0 h -3.8527 v 0 h -3.8527 v 0 h -3.85271 v 0 h -3.8527 v 0 h -3.85271 v 0 h -3.8527 v 0 h -3.85271 v 0 h -3.8527 v 0 h -3.8527 v 0 h -3.85271 v 0 h -3.8527 v 0 h -3.85271 v 0 h -3.8527 v 0 h -3.85271 v 0 h -3.8527 v 0 h -3.8527 v 0 h -3.85271 v 0 h -3.8527 v 0 h -3.85271 v 0 h -3.8527 v 0 h -3.85271 v 0 h -3.8527 v 0 h -3.8527 v 0 h -3.85271 v 0 h -3.8527 v 0 h -3.85271 v 0 h -3.8527 v 0 h -3.85271 v 0 h -3.8527 v 0 h -3.8527 v 0 h -3.85271 v 0 h -3.8527 v 0 h -3.85271 v 0 h -3.8527 v 0 h -3.8527 v 0 h -3.85271 v 0 h -3.8527 v 0 h -3.85271 v 0 h -3.8527 v 0 h -3.85271 v 0 h -3.8527 v 0 h -3.8527 v 0 h -3.852708 v 0 h -3.852705 v 0 h -3.852704 v 0 h -3.852704 v 0 h -3.852704 v 0 H 76.92359 v 0 h -3.852704 v 0 z"
         clip-path="url(#p15a097b377)" />
    </g>
    <g
       style="stroke-linecap:butt;stroke-linejoin:round"
       id="matplotlib.axis_3">
      <g
         style="stroke-linecap:butt;stroke-linejoin:round"
         id="xtick_7">
        <g
           style="stroke-linecap:butt;stroke-linejoin:round"
           id="line2d_12">
          <g
             style="stroke-linecap:butt;stroke-linejoin:round"
             id="g343">
            <path
               inkscape:connector-curvature="0"
               style="stroke:#000000;stroke-width:0.80000001;stroke-linecap:butt;stroke-linejoin:round"
               id="use341"
               d="m 69.218185,384.48001 v 3.5" />
          </g>
        </g>
        <g
           style="stroke-linecap:butt;stroke-linejoin:round"
           id="text_13">
          <!-- 0.0 -->
          <defs
             id="defs347">
            <path
               style="stroke-linecap:butt;stroke-linejoin:round"
               inkscape:connector-curvature="0"
               id="DejaVuSans-2e"
               d="M 10.6875,12.40625 H 21 V 0 H 10.6875 Z" />
          </defs>
          <g
             style="stroke-linecap:butt;stroke-linejoin:round"
             id="g355"
             transform="matrix(0.144,0,0,-0.144,57.767932,402.42175)">
            <path
               style="stroke-linecap:butt;stroke-linejoin:round"
               inkscape:connector-curvature="0"
               id="use349"
               d="m 31.78125,66.40625 q -7.609375,0 -11.453125,-7.5 Q 16.5,51.421875 16.5,36.375 q 0,-14.984375 3.828125,-22.484375 3.84375,-7.5 11.453125,-7.5 7.671875,0 11.5,7.5 3.84375,7.5 3.84375,22.484375 0,15.046875 -3.84375,22.53125 -3.828125,7.5 -11.5,7.5 z m 0,7.8125 q 12.265625,0 18.734375,-9.703125 6.46875,-9.6875 6.46875,-28.140625 0,-18.40625 -6.46875,-28.109375 -6.46875,-9.6875 -18.734375,-9.6875 -12.25,0 -18.71875,9.6875 Q 6.59375,17.96875 6.59375,36.375 q 0,18.453125 6.46875,28.140625 6.46875,9.703125 18.71875,9.703125 z" />
            <use
               height="100%"
               width="100%"
               y="0"
               style="stroke-linecap:butt;stroke-linejoin:round"
               id="use351"
               xlink:href="#DejaVuSans-2e"
               x="63.623047" />
            <path
               style="stroke-linecap:butt;stroke-linejoin:round"
               inkscape:connector-curvature="0"
               id="use353"
               d="m 127.19141,66.40625 q -7.60938,0 -11.45313,-7.5 -3.82812,-7.484375 -3.82812,-22.53125 0,-14.984375 3.82812,-22.484375 3.84375,-7.5 11.45313,-7.5 7.67187,0 11.5,7.5 3.84375,7.5 3.84375,22.484375 0,15.046875 -3.84375,22.53125 -3.82813,7.5 -11.5,7.5 z m 0,7.8125 q 12.26562,0 18.73437,-9.703125 6.46875,-9.6875 6.46875,-28.140625 0,-18.40625 -6.46875,-28.109375 -6.46875,-9.6875 -18.73437,-9.6875 -12.25,0 -18.71875,9.6875 -6.46875,9.703125 -6.46875,28.109375 0,18.453125 6.46875,28.140625 6.46875,9.703125 18.71875,9.703125 z" />
          </g>
        </g>
      </g>
      <g
         style="stroke-linecap:butt;stroke-linejoin:round"
         id="xtick_8">
        <g
           style="stroke-linecap:butt;stroke-linejoin:round"
           id="line2d_13">
          <g
             style="stroke-linecap:butt;stroke-linejoin:round"
             id="g361">
            <path
               inkscape:connector-curvature="0"
               style="stroke:#000000;stroke-width:0.80000001;stroke-linecap:butt;stroke-linejoin:round"
               id="use359"
               d="m 130.86145,384.48001 v 3.5" />
          </g>
        </g>
        <g
           style="stroke-linecap:butt;stroke-linejoin:round"
           id="text_14">
          <!-- 0.2 -->
          <g
             style="stroke-linecap:butt;stroke-linejoin:round"
             id="g370"
             transform="matrix(0.144,0,0,-0.144,119.4112,402.42175)">
            <path
               style="stroke-linecap:butt;stroke-linejoin:round"
               inkscape:connector-curvature="0"
               id="use364"
               d="m 31.78125,66.40625 q -7.609375,0 -11.453125,-7.5 Q 16.5,51.421875 16.5,36.375 q 0,-14.984375 3.828125,-22.484375 3.84375,-7.5 11.453125,-7.5 7.671875,0 11.5,7.5 3.84375,7.5 3.84375,22.484375 0,15.046875 -3.84375,22.53125 -3.828125,7.5 -11.5,7.5 z m 0,7.8125 q 12.265625,0 18.734375,-9.703125 6.46875,-9.6875 6.46875,-28.140625 0,-18.40625 -6.46875,-28.109375 -6.46875,-9.6875 -18.734375,-9.6875 -12.25,0 -18.71875,9.6875 Q 6.59375,17.96875 6.59375,36.375 q 0,18.453125 6.46875,28.140625 6.46875,9.703125 18.71875,9.703125 z" />
            <use
               height="100%"
               width="100%"
               y="0"
               style="stroke-linecap:butt;stroke-linejoin:round"
               id="use366"
               xlink:href="#DejaVuSans-2e"
               x="63.623047" />
            <path
               style="stroke-linecap:butt;stroke-linejoin:round"
               inkscape:connector-curvature="0"
               id="use368"
               d="m 114.59766,8.296875 h 34.42187 V 0 h -46.28125 v 8.296875 q 5.60938,5.8125 15.29688,15.59375 9.70312,9.796875 12.1875,12.640625 4.73437,5.3125 6.60937,9 1.89063,3.6875 1.89063,7.25 0,5.8125 -4.07813,9.46875 -4.07812,3.671875 -10.625,3.671875 -4.64062,0 -9.79687,-1.609375 -5.14063,-1.609375 -11,-4.890625 v 9.96875 q 5.95312,2.390625 11.125,3.609375 5.1875,1.21875 9.48437,1.21875 11.32813,0 18.0625,-5.671875 6.73438,-5.65625 6.73438,-15.125 0,-4.5 -1.6875,-8.53125 -1.67188,-4.015625 -6.125,-9.484375 -1.21875,-1.421875 -7.76563,-8.1875 -6.53125,-6.765625 -18.45312,-18.921875 z" />
          </g>
        </g>
      </g>
      <g
         style="stroke-linecap:butt;stroke-linejoin:round"
         id="xtick_9">
        <g
           style="stroke-linecap:butt;stroke-linejoin:round"
           id="line2d_14">
          <g
             style="stroke-linecap:butt;stroke-linejoin:round"
             id="g376">
            <path
               inkscape:connector-curvature="0"
               style="stroke:#000000;stroke-width:0.80000001;stroke-linecap:butt;stroke-linejoin:round"
               id="use374"
               d="m 192.50471,384.48001 v 3.5" />
          </g>
        </g>
        <g
           style="stroke-linecap:butt;stroke-linejoin:round"
           id="text_15">
          <!-- 0.4 -->
          <g
             style="stroke-linecap:butt;stroke-linejoin:round"
             id="g385"
             transform="matrix(0.144,0,0,-0.144,181.05447,402.42175)">
            <path
               style="stroke-linecap:butt;stroke-linejoin:round"
               inkscape:connector-curvature="0"
               id="use379"
               d="m 31.78125,66.40625 q -7.609375,0 -11.453125,-7.5 Q 16.5,51.421875 16.5,36.375 q 0,-14.984375 3.828125,-22.484375 3.84375,-7.5 11.453125,-7.5 7.671875,0 11.5,7.5 3.84375,7.5 3.84375,22.484375 0,15.046875 -3.84375,22.53125 -3.828125,7.5 -11.5,7.5 z m 0,7.8125 q 12.265625,0 18.734375,-9.703125 6.46875,-9.6875 6.46875,-28.140625 0,-18.40625 -6.46875,-28.109375 -6.46875,-9.6875 -18.734375,-9.6875 -12.25,0 -18.71875,9.6875 Q 6.59375,17.96875 6.59375,36.375 q 0,18.453125 6.46875,28.140625 6.46875,9.703125 18.71875,9.703125 z" />
            <use
               height="100%"
               width="100%"
               y="0"
               style="stroke-linecap:butt;stroke-linejoin:round"
               id="use381"
               xlink:href="#DejaVuSans-2e"
               x="63.623047" />
            <path
               style="stroke-linecap:butt;stroke-linejoin:round"
               inkscape:connector-curvature="0"
               id="use383"
               d="M 133.20703,64.3125 108.30078,25.390625 h 24.90625 z m -2.59375,8.59375 h 12.40625 V 25.390625 h 10.40625 V 17.1875 H 143.01953 V 0 h -9.8125 v 17.1875 h -32.90625 v 9.515625 z" />
          </g>
        </g>
      </g>
      <g
         style="stroke-linecap:butt;stroke-linejoin:round"
         id="xtick_10">
        <g
           style="stroke-linecap:butt;stroke-linejoin:round"
           id="line2d_15">
          <g
             style="stroke-linecap:butt;stroke-linejoin:round"
             id="g391">
            <path
               inkscape:connector-curvature="0"
               style="stroke:#000000;stroke-width:0.80000001;stroke-linecap:butt;stroke-linejoin:round"
               id="use389"
               d="m 254.14798,384.48001 v 3.5" />
          </g>
        </g>
        <g
           style="stroke-linecap:butt;stroke-linejoin:round"
           id="text_16">
          <!-- 0.6 -->
          <g
             style="stroke-linecap:butt;stroke-linejoin:round"
             id="g400"
             transform="matrix(0.144,0,0,-0.144,242.69774,402.42175)">
            <path
               style="stroke-linecap:butt;stroke-linejoin:round"
               inkscape:connector-curvature="0"
               id="use394"
               d="m 31.78125,66.40625 q -7.609375,0 -11.453125,-7.5 Q 16.5,51.421875 16.5,36.375 q 0,-14.984375 3.828125,-22.484375 3.84375,-7.5 11.453125,-7.5 7.671875,0 11.5,7.5 3.84375,7.5 3.84375,22.484375 0,15.046875 -3.84375,22.53125 -3.828125,7.5 -11.5,7.5 z m 0,7.8125 q 12.265625,0 18.734375,-9.703125 6.46875,-9.6875 6.46875,-28.140625 0,-18.40625 -6.46875,-28.109375 -6.46875,-9.6875 -18.734375,-9.6875 -12.25,0 -18.71875,9.6875 Q 6.59375,17.96875 6.59375,36.375 q 0,18.453125 6.46875,28.140625 6.46875,9.703125 18.71875,9.703125 z" />
            <use
               height="100%"
               width="100%"
               y="0"
               style="stroke-linecap:butt;stroke-linejoin:round"
               id="use396"
               xlink:href="#DejaVuSans-2e"
               x="63.623047" />
            <path
               style="stroke-linecap:butt;stroke-linejoin:round"
               inkscape:connector-curvature="0"
               id="use398"
               d="m 128.42578,40.375 q -6.64062,0 -10.53125,-4.546875 -3.875,-4.53125 -3.875,-12.4375 0,-7.859375 3.875,-12.4375 3.89063,-4.5625 10.53125,-4.5625 6.64063,0 10.51563,4.5625 3.875,4.578125 3.875,12.4375 0,7.90625 -3.875,12.4375 -3.875,4.546875 -10.51563,4.546875 z m 19.57813,30.921875 V 62.3125 q -3.71875,1.75 -7.5,2.671875 -3.78125,0.9375 -7.5,0.9375 -9.76563,0 -14.92188,-6.59375 -5.14062,-6.59375 -5.875,-19.921875 2.875,4.25 7.21875,6.515625 4.35938,2.265625 9.57813,2.265625 10.98437,0 17.35937,-6.671875 6.375,-6.65625 6.375,-18.125 0,-11.234375 -6.64062,-18.03125 -6.64063,-6.78125 -17.67188,-6.78125 -12.65625,0 -19.34375,9.6875 -6.6875,9.703125 -6.6875,28.109375 0,17.28125 8.20313,27.5625 8.20312,10.28125 22.01562,10.28125 3.71875,0 7.5,-0.734375 3.78125,-0.734375 7.89063,-2.1875 z" />
          </g>
        </g>
      </g>
      <g
         style="stroke-linecap:butt;stroke-linejoin:round"
         id="xtick_11">
        <g
           style="stroke-linecap:butt;stroke-linejoin:round"
           id="line2d_16">
          <g
             style="stroke-linecap:butt;stroke-linejoin:round"
             id="g406">
            <path
               inkscape:connector-curvature="0"
               style="stroke:#000000;stroke-width:0.80000001;stroke-linecap:butt;stroke-linejoin:round"
               id="use404"
               d="m 315.79126,384.48001 v 3.5" />
          </g>
        </g>
        <g
           style="stroke-linecap:butt;stroke-linejoin:round"
           id="text_17">
          <!-- 0.8 -->
          <g
             style="stroke-linecap:butt;stroke-linejoin:round"
             id="g415"
             transform="matrix(0.144,0,0,-0.144,304.341,402.42175)">
            <path
               style="stroke-linecap:butt;stroke-linejoin:round"
               inkscape:connector-curvature="0"
               id="use409"
               d="m 31.78125,66.40625 q -7.609375,0 -11.453125,-7.5 Q 16.5,51.421875 16.5,36.375 q 0,-14.984375 3.828125,-22.484375 3.84375,-7.5 11.453125,-7.5 7.671875,0 11.5,7.5 3.84375,7.5 3.84375,22.484375 0,15.046875 -3.84375,22.53125 -3.828125,7.5 -11.5,7.5 z m 0,7.8125 q 12.265625,0 18.734375,-9.703125 6.46875,-9.6875 6.46875,-28.140625 0,-18.40625 -6.46875,-28.109375 -6.46875,-9.6875 -18.734375,-9.6875 -12.25,0 -18.71875,9.6875 Q 6.59375,17.96875 6.59375,36.375 q 0,18.453125 6.46875,28.140625 6.46875,9.703125 18.71875,9.703125 z" />
            <use
               height="100%"
               width="100%"
               y="0"
               style="stroke-linecap:butt;stroke-linejoin:round"
               id="use411"
               xlink:href="#DejaVuSans-2e"
               x="63.623047" />
            <path
               style="stroke-linecap:butt;stroke-linejoin:round"
               inkscape:connector-curvature="0"
               id="use413"
               d="m 127.19141,34.625 q -7.03125,0 -11.0625,-3.765625 -4.01563,-3.765625 -4.01563,-10.34375 0,-6.59375 4.01563,-10.359375 4.03125,-3.765625 11.0625,-3.765625 7.03125,0 11.07812,3.78125 4.0625,3.796875 4.0625,10.34375 0,6.578125 -4.03125,10.34375 Q 134.28516,34.625 127.19141,34.625 Z m -9.85938,4.1875 q -6.34375,1.5625 -9.89062,5.90625 -3.53125,4.359375 -3.53125,10.609375 0,8.734375 6.21875,13.8125 6.23437,5.078125 17.0625,5.078125 10.89062,0 17.09375,-5.078125 6.20312,-5.078125 6.20312,-13.8125 0,-6.25 -3.54687,-10.609375 -3.53125,-4.34375 -9.82813,-5.90625 7.125,-1.65625 11.09375,-6.5 3.98438,-4.828125 3.98438,-11.796875 0,-10.609375 -6.46875,-16.28125 -6.46875,-5.65625 -18.53125,-5.65625 -12.04688,0 -18.53125,5.65625 -6.46875,5.671875 -6.46875,16.28125 0,6.96875 4,11.796875 4.01562,4.84375 11.14062,6.5 z m -3.60937,15.578125 q 0,-5.65625 3.53125,-8.828125 3.54687,-3.171875 9.9375,-3.171875 6.35937,0 9.9375,3.171875 3.59375,3.171875 3.59375,8.828125 0,5.671875 -3.59375,8.84375 -3.57813,3.171875 -9.9375,3.171875 -6.39063,0 -9.9375,-3.171875 -3.53125,-3.171875 -3.53125,-8.84375 z" />
          </g>
        </g>
      </g>
      <g
         style="stroke-linecap:butt;stroke-linejoin:round"
         id="xtick_12">
        <g
           style="stroke-linecap:butt;stroke-linejoin:round"
           id="line2d_17">
          <g
             style="stroke-linecap:butt;stroke-linejoin:round"
             id="g421">
            <path
               inkscape:connector-curvature="0"
               style="stroke:#000000;stroke-width:0.80000001;stroke-linecap:butt;stroke-linejoin:round"
               id="use419"
               d="m 377.43451,384.48001 v 3.5" />
          </g>
        </g>
        <g
           style="stroke-linecap:butt;stroke-linejoin:round"
           id="text_18">
          <!-- 1.0 -->
          <defs
             id="defs425">
            <path
               style="stroke-linecap:butt;stroke-linejoin:round"
               inkscape:connector-curvature="0"
               id="DejaVuSans-31"
               d="m 12.40625,8.296875 h 16.109375 v 55.625 L 10.984375,60.40625 v 8.984375 l 17.4375,3.515625 H 38.28125 V 8.296875 H 54.390625 V 0 H 12.40625 Z" />
          </defs>
          <g
             style="stroke-linecap:butt;stroke-linejoin:round"
             id="g433"
             transform="matrix(0.144,0,0,-0.144,365.98427,402.42175)">
            <use
               height="100%"
               width="100%"
               y="0"
               x="0"
               style="stroke-linecap:butt;stroke-linejoin:round"
               id="use427"
               xlink:href="#DejaVuSans-31" />
            <use
               height="100%"
               width="100%"
               y="0"
               style="stroke-linecap:butt;stroke-linejoin:round"
               id="use429"
               xlink:href="#DejaVuSans-2e"
               x="63.623047" />
            <path
               style="stroke-linecap:butt;stroke-linejoin:round"
               inkscape:connector-curvature="0"
               id="use431"
               d="m 127.19141,66.40625 q -7.60938,0 -11.45313,-7.5 -3.82812,-7.484375 -3.82812,-22.53125 0,-14.984375 3.82812,-22.484375 3.84375,-7.5 11.45313,-7.5 7.67187,0 11.5,7.5 3.84375,7.5 3.84375,22.484375 0,15.046875 -3.84375,22.53125 -3.82813,7.5 -11.5,7.5 z m 0,7.8125 q 12.26562,0 18.73437,-9.703125 6.46875,-9.6875 6.46875,-28.140625 0,-18.40625 -6.46875,-28.109375 -6.46875,-9.6875 -18.73437,-9.6875 -12.25,0 -18.71875,9.6875 -6.46875,9.703125 -6.46875,28.109375 0,18.453125 6.46875,28.140625 6.46875,9.703125 18.71875,9.703125 z" />
          </g>
        </g>
      </g>
    </g>
    <g
       style="stroke-linecap:butt;stroke-linejoin:round"
       id="matplotlib.axis_4">
      <g
         style="stroke-linecap:butt;stroke-linejoin:round"
         id="ytick_6">
        <g
           style="stroke-linecap:butt;stroke-linejoin:round"
           id="line2d_18">
          <g
             style="stroke-linecap:butt;stroke-linejoin:round"
             id="g440">
            <path
               inkscape:connector-curvature="0"
               style="stroke:#000000;stroke-width:0.80000001;stroke-linecap:butt;stroke-linejoin:round"
               id="use438"
               d="M 54,384.48001 H 50.5" />
          </g>
        </g>
        <g
           style="stroke-linecap:butt;stroke-linejoin:round"
           id="text_19">
          <!-- 0 -->
          <g
             style="stroke-linecap:butt;stroke-linejoin:round"
             id="g445"
             transform="matrix(0.144,0,0,-0.144,37.838,389.95087)">
            <path
               style="stroke-linecap:butt;stroke-linejoin:round"
               inkscape:connector-curvature="0"
               id="use443"
               d="m 31.78125,66.40625 q -7.609375,0 -11.453125,-7.5 Q 16.5,51.421875 16.5,36.375 q 0,-14.984375 3.828125,-22.484375 3.84375,-7.5 11.453125,-7.5 7.671875,0 11.5,7.5 3.84375,7.5 3.84375,22.484375 0,15.046875 -3.84375,22.53125 -3.828125,7.5 -11.5,7.5 z m 0,7.8125 q 12.265625,0 18.734375,-9.703125 6.46875,-9.6875 6.46875,-28.140625 0,-18.40625 -6.46875,-28.109375 -6.46875,-9.6875 -18.734375,-9.6875 -12.25,0 -18.71875,9.6875 Q 6.59375,17.96875 6.59375,36.375 q 0,18.453125 6.46875,28.140625 6.46875,9.703125 18.71875,9.703125 z" />
          </g>
        </g>
      </g>
      <g
         style="stroke-linecap:butt;stroke-linejoin:round"
         id="ytick_7">
        <g
           style="stroke-linecap:butt;stroke-linejoin:round"
           id="line2d_19">
          <g
             style="stroke-linecap:butt;stroke-linejoin:round"
             id="g451">
            <path
               inkscape:connector-curvature="0"
               style="stroke:#000000;stroke-width:0.80000001;stroke-linecap:butt;stroke-linejoin:round"
               id="use449"
               d="M 54,347.05487 H 50.5" />
          </g>
        </g>
        <g
           style="stroke-linecap:butt;stroke-linejoin:round"
           id="text_20">
          <!-- 20 -->
          <g
             style="stroke-linecap:butt;stroke-linejoin:round"
             id="g458"
             transform="matrix(0.144,0,0,-0.144,28.676,352.52575)">
            <path
               style="stroke-linecap:butt;stroke-linejoin:round"
               inkscape:connector-curvature="0"
               id="use454"
               d="M 19.1875,8.296875 H 53.609375 V 0 H 7.328125 v 8.296875 q 5.609375,5.8125 15.296875,15.59375 9.703125,9.796875 12.1875,12.640625 4.734375,5.3125 6.609375,9 1.890625,3.6875 1.890625,7.25 0,5.8125 -4.078125,9.46875 -4.078125,3.671875 -10.625,3.671875 -4.640625,0 -9.796875,-1.609375 -5.140625,-1.609375 -11,-4.890625 v 9.96875 Q 13.765625,71.78125 18.9375,73 q 5.1875,1.21875 9.484375,1.21875 11.328125,0 18.0625,-5.671875 6.734375,-5.65625 6.734375,-15.125 0,-4.5 -1.6875,-8.53125 Q 49.859375,40.875 45.40625,35.40625 44.1875,33.984375 37.640625,27.21875 31.109375,20.453125 19.1875,8.296875 Z" />
            <path
               style="stroke-linecap:butt;stroke-linejoin:round"
               inkscape:connector-curvature="0"
               id="use456"
               d="m 95.404297,66.40625 q -7.609375,0 -11.453125,-7.5 -3.828125,-7.484375 -3.828125,-22.53125 0,-14.984375 3.828125,-22.484375 3.84375,-7.5 11.453125,-7.5 7.671873,0 11.500003,7.5 3.84375,7.5 3.84375,22.484375 0,15.046875 -3.84375,22.53125 -3.82813,7.5 -11.500003,7.5 z m 0,7.8125 q 12.265623,0 18.734373,-9.703125 6.46875,-9.6875 6.46875,-28.140625 0,-18.40625 -6.46875,-28.109375 -6.46875,-9.6875 -18.734373,-9.6875 -12.25,0 -18.71875,9.6875 -6.46875,9.703125 -6.46875,28.109375 0,18.453125 6.46875,28.140625 6.46875,9.703125 18.71875,9.703125 z" />
          </g>
        </g>
      </g>
      <g
         style="stroke-linecap:butt;stroke-linejoin:round"
         id="ytick_8">
        <g
           style="stroke-linecap:butt;stroke-linejoin:round"
           id="line2d_20">
          <g
             style="stroke-linecap:butt;stroke-linejoin:round"
             id="g464">
            <path
               inkscape:connector-curvature="0"
               style="stroke:#000000;stroke-width:0.80000001;stroke-linecap:butt;stroke-linejoin:round"
               id="use462"
               d="M 54,309.62973 H 50.5" />
          </g>
        </g>
        <g
           style="stroke-linecap:butt;stroke-linejoin:round"
           id="text_21">
          <!-- 40 -->
          <g
             style="stroke-linecap:butt;stroke-linejoin:round"
             id="g471"
             transform="matrix(0.144,0,0,-0.144,28.676,315.10062)">
            <path
               style="stroke-linecap:butt;stroke-linejoin:round"
               inkscape:connector-curvature="0"
               id="use467"
               d="M 37.796875,64.3125 12.890625,25.390625 h 24.90625 z m -2.59375,8.59375 h 12.40625 V 25.390625 h 10.40625 V 17.1875 H 47.609375 V 0 h -9.8125 V 17.1875 H 4.890625 v 9.515625 z" />
            <path
               style="stroke-linecap:butt;stroke-linejoin:round"
               inkscape:connector-curvature="0"
               id="use469"
               d="m 95.404297,66.40625 q -7.609375,0 -11.453125,-7.5 -3.828125,-7.484375 -3.828125,-22.53125 0,-14.984375 3.828125,-22.484375 3.84375,-7.5 11.453125,-7.5 7.671873,0 11.500003,7.5 3.84375,7.5 3.84375,22.484375 0,15.046875 -3.84375,22.53125 -3.82813,7.5 -11.500003,7.5 z m 0,7.8125 q 12.265623,0 18.734373,-9.703125 6.46875,-9.6875 6.46875,-28.140625 0,-18.40625 -6.46875,-28.109375 -6.46875,-9.6875 -18.734373,-9.6875 -12.25,0 -18.71875,9.6875 -6.46875,9.703125 -6.46875,28.109375 0,18.453125 6.46875,28.140625 6.46875,9.703125 18.71875,9.703125 z" />
          </g>
        </g>
      </g>
      <g
         style="stroke-linecap:butt;stroke-linejoin:round"
         id="ytick_9">
        <g
           style="stroke-linecap:butt;stroke-linejoin:round"
           id="line2d_21">
          <g
             style="stroke-linecap:butt;stroke-linejoin:round"
             id="g477">
            <path
               inkscape:connector-curvature="0"
               style="stroke:#000000;stroke-width:0.80000001;stroke-linecap:butt;stroke-linejoin:round"
               id="use475"
               d="M 54,272.20462 H 50.5" />
          </g>
        </g>
        <g
           style="stroke-linecap:butt;stroke-linejoin:round"
           id="text_22">
          <!-- 60 -->
          <g
             style="stroke-linecap:butt;stroke-linejoin:round"
             id="g484"
             transform="matrix(0.144,0,0,-0.144,28.676,277.67549)">
            <path
               style="stroke-linecap:butt;stroke-linejoin:round"
               inkscape:connector-curvature="0"
               id="use480"
               d="m 33.015625,40.375 q -6.640625,0 -10.53125,-4.546875 -3.875,-4.53125 -3.875,-12.4375 0,-7.859375 3.875,-12.4375 3.890625,-4.5625 10.53125,-4.5625 6.640625,0 10.515625,4.5625 3.875,4.578125 3.875,12.4375 0,7.90625 -3.875,12.4375 Q 39.65625,40.375 33.015625,40.375 Z M 52.59375,71.296875 V 62.3125 q -3.71875,1.75 -7.5,2.671875 -3.78125,0.9375 -7.5,0.9375 -9.765625,0 -14.921875,-6.59375 -5.140625,-6.59375 -5.875,-19.921875 2.875,4.25 7.21875,6.515625 4.359375,2.265625 9.578125,2.265625 10.984375,0 17.359375,-6.671875 6.375,-6.65625 6.375,-18.125 0,-11.234375 -6.640625,-18.03125 -6.640625,-6.78125 -17.671875,-6.78125 -12.65625,0 -19.34375,9.6875 -6.6875,9.703125 -6.6875,28.109375 0,17.28125 8.203125,27.5625 8.203125,10.28125 22.015625,10.28125 3.71875,0 7.5,-0.734375 3.78125,-0.734375 7.890625,-2.1875 z" />
            <path
               style="stroke-linecap:butt;stroke-linejoin:round"
               inkscape:connector-curvature="0"
               id="use482"
               d="m 95.404297,66.40625 q -7.609375,0 -11.453125,-7.5 -3.828125,-7.484375 -3.828125,-22.53125 0,-14.984375 3.828125,-22.484375 3.84375,-7.5 11.453125,-7.5 7.671873,0 11.500003,7.5 3.84375,7.5 3.84375,22.484375 0,15.046875 -3.84375,22.53125 -3.82813,7.5 -11.500003,7.5 z m 0,7.8125 q 12.265623,0 18.734373,-9.703125 6.46875,-9.6875 6.46875,-28.140625 0,-18.40625 -6.46875,-28.109375 -6.46875,-9.6875 -18.734373,-9.6875 -12.25,0 -18.71875,9.6875 -6.46875,9.703125 -6.46875,28.109375 0,18.453125 6.46875,28.140625 6.46875,9.703125 18.71875,9.703125 z" />
          </g>
        </g>
      </g>
      <g
         style="stroke-linecap:butt;stroke-linejoin:round"
         id="ytick_10">
        <g
           style="stroke-linecap:butt;stroke-linejoin:round"
           id="line2d_22">
          <g
             style="stroke-linecap:butt;stroke-linejoin:round"
             id="g490">
            <path
               inkscape:connector-curvature="0"
               style="stroke:#000000;stroke-width:0.80000001;stroke-linecap:butt;stroke-linejoin:round"
               id="use488"
               d="M 54,234.77948 H 50.5" />
          </g>
        </g>
        <g
           style="stroke-linecap:butt;stroke-linejoin:round"
           id="text_23">
          <!-- 80 -->
          <g
             style="stroke-linecap:butt;stroke-linejoin:round"
             id="g497"
             transform="matrix(0.144,0,0,-0.144,28.676,240.25036)">
            <path
               style="stroke-linecap:butt;stroke-linejoin:round"
               inkscape:connector-curvature="0"
               id="use493"
               d="m 31.78125,34.625 q -7.03125,0 -11.0625,-3.765625 -4.015625,-3.765625 -4.015625,-10.34375 0,-6.59375 4.015625,-10.359375 4.03125,-3.765625 11.0625,-3.765625 7.03125,0 11.078125,3.78125 4.0625,3.796875 4.0625,10.34375 0,6.578125 -4.03125,10.34375 Q 38.875,34.625 31.78125,34.625 Z m -9.859375,4.1875 Q 15.578125,40.375 12.03125,44.71875 8.5,49.078125 8.5,55.328125 q 0,8.734375 6.21875,13.8125 6.234375,5.078125 17.0625,5.078125 10.890625,0 17.09375,-5.078125 6.203125,-5.078125 6.203125,-13.8125 0,-6.25 -3.546875,-10.609375 Q 48,40.375 41.703125,38.8125 q 7.125,-1.65625 11.09375,-6.5 3.984375,-4.828125 3.984375,-11.796875 0,-10.609375 -6.46875,-16.28125 -6.46875,-5.65625 -18.53125,-5.65625 -12.046875,0 -18.53125,5.65625 -6.46875,5.671875 -6.46875,16.28125 0,6.96875 4,11.796875 4.015625,4.84375 11.140625,6.5 z M 18.3125,54.390625 q 0,-5.65625 3.53125,-8.828125 3.546875,-3.171875 9.9375,-3.171875 6.359375,0 9.9375,3.171875 3.59375,3.171875 3.59375,8.828125 0,5.671875 -3.59375,8.84375 -3.578125,3.171875 -9.9375,3.171875 -6.390625,0 -9.9375,-3.171875 Q 18.3125,60.0625 18.3125,54.390625 Z" />
            <path
               style="stroke-linecap:butt;stroke-linejoin:round"
               inkscape:connector-curvature="0"
               id="use495"
               d="m 95.404297,66.40625 q -7.609375,0 -11.453125,-7.5 -3.828125,-7.484375 -3.828125,-22.53125 0,-14.984375 3.828125,-22.484375 3.84375,-7.5 11.453125,-7.5 7.671873,0 11.500003,7.5 3.84375,7.5 3.84375,22.484375 0,15.046875 -3.84375,22.53125 -3.82813,7.5 -11.500003,7.5 z m 0,7.8125 q 12.265623,0 18.734373,-9.703125 6.46875,-9.6875 6.46875,-28.140625 0,-18.40625 -6.46875,-28.109375 -6.46875,-9.6875 -18.734373,-9.6875 -12.25,0 -18.71875,9.6875 -6.46875,9.703125 -6.46875,28.109375 0,18.453125 6.46875,28.140625 6.46875,9.703125 18.71875,9.703125 z" />
          </g>
        </g>
      </g>
    </g>
    <g
       style="stroke-linecap:butt;stroke-linejoin:round"
       id="patch_27">
      <path
         inkscape:connector-curvature="0"
         id="path502"
         style="fill:none;stroke:#000000;stroke-width:0.80000001;stroke-linecap:square;stroke-linejoin:miter"
         d="M 54,384.48 V 233.28" />
    </g>
    <g
       style="stroke-linecap:butt;stroke-linejoin:round"
       id="patch_28">
      <path
         inkscape:connector-curvature="0"
         id="path505"
         style="fill:none;stroke:#000000;stroke-width:0.80000001;stroke-linecap:square;stroke-linejoin:miter"
         d="M 388.8,384.48 V 233.28" />
    </g>
    <g
       style="stroke-linecap:butt;stroke-linejoin:round"
       id="patch_29">
      <path
         inkscape:connector-curvature="0"
         id="path508"
         style="fill:none;stroke:#000000;stroke-width:0.80000001;stroke-linecap:square;stroke-linejoin:miter"
         d="M 54,384.48 H 388.8" />
    </g>
    <g
       style="stroke-linecap:butt;stroke-linejoin:round"
       id="patch_30">
      <path
         inkscape:connector-curvature="0"
         id="path511"
         style="fill:none;stroke:#000000;stroke-width:0.80000001;stroke-linecap:square;stroke-linejoin:miter"
         d="M 54,233.28 H 388.8" />
    </g>
    <g
       transform="translate(-194.80193,179.26955)"
       style="stroke-linecap:butt;stroke-linejoin:round"
       id="legend_1">
      <g
         style="stroke-linecap:butt;stroke-linejoin:round"
         id="patch_13">
        <path
           inkscape:connector-curvature="0"
           id="path175"
           style="opacity:0.8;fill:#ffffff;stroke:#cccccc;stroke-linecap:butt;stroke-linejoin:miter"
           d="M 256.38075,190.179 H 378.72 q 2.88,0 2.88,-2.88 V 61.92 q 0,-2.88 -2.88,-2.88 H 256.38075 q -2.88,0 -2.88,2.88 v 125.379 q 0,2.88 2.88,2.88 z" />
      </g>
      <g
         style="stroke-linecap:butt;stroke-linejoin:round"
         id="patch_14">
        <path
           inkscape:connector-curvature="0"
           id="path178"
           style="opacity:0.5;fill:#440154;stroke-linecap:butt;stroke-linejoin:round"
           d="m 259.26075,75.74175 h 28.8 v -10.08 h -28.8 z" />
      </g>
      <g
         style="stroke-linecap:butt;stroke-linejoin:round"
         id="text_7">
        <!-- 30,-20 -->
        <defs
           id="defs184">
          <path
             style="stroke-linecap:butt;stroke-linejoin:round"
             inkscape:connector-curvature="0"
             id="DejaVuSans-33"
             d="M 40.578125,39.3125 Q 47.65625,37.796875 51.625,33 q 3.984375,-4.78125 3.984375,-11.8125 0,-10.78125 -7.421875,-16.703125 -7.421875,-5.90625 -21.09375,-5.90625 -4.578125,0 -9.4375,0.90625 -4.859375,0.90625 -10.03125,2.71875 v 9.515625 q 4.09375,-2.390625 8.96875,-3.609375 4.890625,-1.21875 10.21875,-1.21875 9.265625,0 14.125,3.65625 4.859375,3.65625 4.859375,10.640625 0,6.453125 -4.515625,10.078125 -4.515625,3.640625 -12.5625,3.640625 h -8.5 v 8.109375 h 8.890625 q 7.265625,0 11.125,2.90625 3.859375,2.90625 3.859375,8.375 0,5.609375 -3.984375,8.609375 -3.96875,3.015625 -11.390625,3.015625 -4.0625,0 -8.703125,-0.890625 Q 15.375,64.15625 9.8125,62.3125 v 8.78125 q 5.625,1.5625 10.53125,2.34375 4.90625,0.78125 9.25,0.78125 11.234375,0 17.765625,-5.109375 6.546875,-5.09375 6.546875,-13.78125 0,-6.0625 -3.46875,-10.234375 -3.46875,-4.171875 -9.859375,-5.78125 z" />
          <path
             style="stroke-linecap:butt;stroke-linejoin:round"
             inkscape:connector-curvature="0"
             id="DejaVuSans-2c"
             d="M 11.71875,12.40625 H 22.015625 V 4 l -8,-15.625 H 7.71875 l 4,15.625 z" />
          <path
             style="stroke-linecap:butt;stroke-linejoin:round"
             inkscape:connector-curvature="0"
             id="DejaVuSans-2d"
             d="m 4.890625,31.390625 h 26.3125 v -8 h -26.3125 z" />
        </defs>
        <g
           style="stroke-linecap:butt;stroke-linejoin:round"
           id="g198"
           transform="matrix(0.144,0,0,-0.144,299.58075,75.74175)">
          <use
             height="100%"
             width="100%"
             y="0"
             x="0"
             style="stroke-linecap:butt;stroke-linejoin:round"
             id="use186"
             xlink:href="#DejaVuSans-33" />
          <path
             d="m 95.404297,66.40625 q -7.609375,0 -11.453125,-7.5 -3.828125,-7.484375 -3.828125,-22.53125 0,-14.984375 3.828125,-22.484375 3.84375,-7.5 11.453125,-7.5 7.671873,0 11.500003,7.5 3.84375,7.5 3.84375,22.484375 0,15.046875 -3.84375,22.53125 -3.82813,7.5 -11.500003,7.5 z m 0,7.8125 q 12.265623,0 18.734373,-9.703125 6.46875,-9.6875 6.46875,-28.140625 0,-18.40625 -6.46875,-28.109375 -6.46875,-9.6875 -18.734373,-9.6875 -12.25,0 -18.71875,9.6875 -6.46875,9.703125 -6.46875,28.109375 0,18.453125 6.46875,28.140625 6.46875,9.703125 18.71875,9.703125 z"
             id="use188"
             inkscape:connector-curvature="0"
             style="stroke-linecap:butt;stroke-linejoin:round" />
          <use
             height="100%"
             width="100%"
             y="0"
             style="stroke-linecap:butt;stroke-linejoin:round"
             id="use190"
             xlink:href="#DejaVuSans-2c"
             x="127.24609" />
          <use
             height="100%"
             width="100%"
             y="0"
             style="stroke-linecap:butt;stroke-linejoin:round"
             id="use192"
             xlink:href="#DejaVuSans-2d"
             x="159.0332" />
          <path
             d="m 214.30469,8.296875 h 34.42187 V 0 h -46.28125 v 8.296875 q 5.60938,5.8125 15.29688,15.59375 9.70312,9.796875 12.1875,12.640625 4.73437,5.3125 6.60937,9 1.89063,3.6875 1.89063,7.25 0,5.8125 -4.07813,9.46875 -4.07812,3.671875 -10.625,3.671875 -4.64062,0 -9.79687,-1.609375 -5.14063,-1.609375 -11,-4.890625 v 9.96875 q 5.95312,2.390625 11.125,3.609375 5.1875,1.21875 9.48437,1.21875 11.32813,0 18.0625,-5.671875 6.73438,-5.65625 6.73438,-15.125 0,-4.5 -1.6875,-8.53125 -1.67188,-4.015625 -6.125,-9.484375 -1.21875,-1.421875 -7.76563,-8.1875 -6.53125,-6.765625 -18.45312,-18.921875 z"
             id="use194"
             inkscape:connector-curvature="0"
             style="stroke-linecap:butt;stroke-linejoin:round" />
          <path
             d="m 290.52148,66.40625 q -7.60937,0 -11.45312,-7.5 -3.82813,-7.484375 -3.82813,-22.53125 0,-14.984375 3.82813,-22.484375 3.84375,-7.5 11.45312,-7.5 7.67188,0 11.5,7.5 3.84375,7.5 3.84375,22.484375 0,15.046875 -3.84375,22.53125 -3.82812,7.5 -11.5,7.5 z m 0,7.8125 q 12.26563,0 18.73438,-9.703125 6.46875,-9.6875 6.46875,-28.140625 0,-18.40625 -6.46875,-28.109375 -6.46875,-9.6875 -18.73438,-9.6875 -12.25,0 -18.71875,9.6875 -6.46875,9.703125 -6.46875,28.109375 0,18.453125 6.46875,28.140625 6.46875,9.703125 18.71875,9.703125 z"
             id="use196"
             inkscape:connector-curvature="0"
             style="stroke-linecap:butt;stroke-linejoin:round" />
        </g>
      </g>
      <g
         style="stroke-linecap:butt;stroke-linejoin:round"
         id="patch_15">
        <path
           inkscape:connector-curvature="0"
           id="path201"
           style="opacity:0.5;fill:#414487;stroke-linecap:butt;stroke-linejoin:round"
           d="m 259.26075,96.87825 h 28.8 v -10.08 h -28.8 z" />
      </g>
      <g
         style="stroke-linecap:butt;stroke-linejoin:round"
         id="text_8">
        <!-- uniform -->
        <defs
           id="defs211">
          <path
             style="stroke-linecap:butt;stroke-linejoin:round"
             inkscape:connector-curvature="0"
             id="DejaVuSans-75"
             d="M 8.5,21.578125 V 54.6875 h 8.984375 V 21.921875 q 0,-7.765625 3.015625,-11.65625 3.03125,-3.875 9.09375,-3.875 7.265625,0 11.484375,4.640625 4.234375,4.640625 4.234375,12.65625 v 31 h 8.984375 V 0 H 45.3125 V 8.40625 Q 42.046875,3.421875 37.71875,1 33.40625,-1.421875 27.6875,-1.421875 18.265625,-1.421875 13.375,4.4375 8.5,10.296875 8.5,21.578125 Z M 31.109375,56 Z" />
          <path
             style="stroke-linecap:butt;stroke-linejoin:round"
             inkscape:connector-curvature="0"
             id="DejaVuSans-6e"
             d="M 54.890625,33.015625 V 0 H 45.90625 v 32.71875 q 0,7.765625 -3.03125,11.609375 -3.03125,3.859375 -9.078125,3.859375 -7.28125,0 -11.484375,-4.640625 -4.203125,-4.625 -4.203125,-12.640625 V 0 h -9.03125 v 54.6875 h 9.03125 v -8.5 q 3.234375,4.9375 7.59375,7.375 4.375,2.4375 10.09375,2.4375 9.421875,0 14.25,-5.828125 4.84375,-5.828125 4.84375,-17.15625 z" />
          <path
             style="stroke-linecap:butt;stroke-linejoin:round"
             inkscape:connector-curvature="0"
             id="DejaVuSans-69"
             d="M 9.421875,54.6875 H 18.40625 V 0 H 9.421875 Z m 0,21.296875 H 18.40625 V 64.59375 H 9.421875 Z" />
          <path
             style="stroke-linecap:butt;stroke-linejoin:round"
             inkscape:connector-curvature="0"
             id="DejaVuSans-66"
             d="M 37.109375,75.984375 V 68.5 h -8.59375 q -4.828125,0 -6.71875,-1.953125 -1.875,-1.953125 -1.875,-7.03125 V 54.6875 H 34.71875 V 47.703125 H 19.921875 V 0 h -9.03125 V 47.703125 H 2.296875 V 54.6875 h 8.59375 V 58.5 q 0,9.125 4.25,13.296875 4.25,4.1875 13.46875,4.1875 z" />
          <path
             style="stroke-linecap:butt;stroke-linejoin:round"
             inkscape:connector-curvature="0"
             id="DejaVuSans-6f"
             d="m 30.609375,48.390625 q -7.21875,0 -11.421875,-5.640625 -4.203125,-5.640625 -4.203125,-15.453125 0,-9.8125 4.171875,-15.453125 4.1875,-5.640625 11.453125,-5.640625 7.1875,0 11.375,5.65625 4.203125,5.671875 4.203125,15.4375 0,9.71875 -4.203125,15.40625 -4.1875,5.6875 -11.375,5.6875 z m 0,7.609375 q 11.71875,0 18.40625,-7.625 6.703125,-7.609375 6.703125,-21.078125 0,-13.421875 -6.703125,-21.078125 -6.6875,-7.640625 -18.40625,-7.640625 -11.765625,0 -18.4375,7.640625 -6.65625,7.65625 -6.65625,21.078125 0,13.46875 6.65625,21.078125 Q 18.84375,56 30.609375,56 Z" />
          <path
             style="stroke-linecap:butt;stroke-linejoin:round"
             inkscape:connector-curvature="0"
             id="DejaVuSans-72"
             d="m 41.109375,46.296875 q -1.515625,0.875 -3.296875,1.28125 Q 36.03125,48 33.890625,48 26.265625,48 22.1875,43.046875 18.109375,38.09375 18.109375,28.8125 V 0 h -9.03125 v 54.6875 h 9.03125 v -8.5 q 2.84375,4.984375 7.375,7.390625 Q 30.03125,56 36.53125,56 q 0.921875,0 2.046875,-0.125 1.125,-0.109375 2.484375,-0.359375 z" />
          <path
             style="stroke-linecap:butt;stroke-linejoin:round"
             inkscape:connector-curvature="0"
             id="DejaVuSans-6d"
             d="M 52,44.1875 Q 55.375,50.25 60.0625,53.125 64.75,56 71.09375,56 q 8.546875,0 13.1875,-5.984375 4.640625,-5.96875 4.640625,-17 V 0 h -9.03125 v 32.71875 q 0,7.859375 -2.796875,11.65625 -2.78125,3.8125 -8.484375,3.8125 -6.984375,0 -11.046875,-4.640625 -4.046875,-4.625 -4.046875,-12.640625 V 0 h -9.03125 v 32.71875 q 0,7.90625 -2.78125,11.6875 -2.78125,3.78125 -8.59375,3.78125 -6.890625,0 -10.953125,-4.65625 -4.046875,-4.65625 -4.046875,-12.625 V 0 h -9.03125 v 54.6875 h 9.03125 v -8.5 q 3.078125,5.03125 7.375,7.421875 Q 29.78125,56 35.6875,56 41.65625,56 45.828125,52.96875 50,49.953125 52,44.1875 Z" />
        </defs>
        <g
           style="stroke-linecap:butt;stroke-linejoin:round"
           id="g227"
           transform="matrix(0.144,0,0,-0.144,299.58075,96.87825)">
          <use
             height="100%"
             width="100%"
             y="0"
             x="0"
             style="stroke-linecap:butt;stroke-linejoin:round"
             id="use213"
             xlink:href="#DejaVuSans-75" />
          <use
             height="100%"
             width="100%"
             y="0"
             style="stroke-linecap:butt;stroke-linejoin:round"
             id="use215"
             xlink:href="#DejaVuSans-6e"
             x="63.378906" />
          <use
             height="100%"
             width="100%"
             y="0"
             style="stroke-linecap:butt;stroke-linejoin:round"
             id="use217"
             xlink:href="#DejaVuSans-69"
             x="126.75781" />
          <use
             height="100%"
             width="100%"
             y="0"
             style="stroke-linecap:butt;stroke-linejoin:round"
             id="use219"
             xlink:href="#DejaVuSans-66"
             x="154.54102" />
          <use
             height="100%"
             width="100%"
             y="0"
             style="stroke-linecap:butt;stroke-linejoin:round"
             id="use221"
             xlink:href="#DejaVuSans-6f"
             x="189.74609" />
          <use
             height="100%"
             width="100%"
             y="0"
             style="stroke-linecap:butt;stroke-linejoin:round"
             id="use223"
             xlink:href="#DejaVuSans-72"
             x="250.92773" />
          <use
             height="100%"
             width="100%"
             y="0"
             style="stroke-linecap:butt;stroke-linejoin:round"
             id="use225"
             xlink:href="#DejaVuSans-6d"
             x="292.02539" />
        </g>
      </g>
      <g
         style="stroke-linecap:butt;stroke-linejoin:round"
         id="patch_16">
        <path
           inkscape:connector-curvature="0"
           id="path230"
           style="opacity:0.5;fill:#2a788e;stroke-linecap:butt;stroke-linejoin:round"
           d="m 259.26075,118.01475 h 28.8 v -10.08 h -28.8 z" />
      </g>
      <g
         style="stroke-linecap:butt;stroke-linejoin:round"
         id="text_9">
        <!-- boltzmann -->
        <defs
           id="defs238">
          <path
             style="stroke-linecap:butt;stroke-linejoin:round"
             inkscape:connector-curvature="0"
             id="DejaVuSans-62"
             d="m 48.6875,27.296875 q 0,9.90625 -4.078125,15.546875 -4.078125,5.640625 -11.203125,5.640625 -7.140625,0 -11.21875,-5.640625 -4.078125,-5.640625 -4.078125,-15.546875 0,-9.90625 4.078125,-15.546875 4.078125,-5.640625 11.21875,-5.640625 7.125,0 11.203125,5.640625 4.078125,5.640625 4.078125,15.546875 z m -30.578125,19.09375 q 2.84375,4.875 7.15625,7.234375 Q 29.59375,56 35.59375,56 q 9.96875,0 16.1875,-7.90625 6.234375,-7.90625 6.234375,-20.796875 0,-12.890625 -6.234375,-20.8125 -6.21875,-7.90625 -16.1875,-7.90625 -6,0 -10.328125,2.375 -4.3125,2.375 -7.15625,7.25 V 0 h -9.03125 v 75.984375 h 9.03125 z" />
          <path
             style="stroke-linecap:butt;stroke-linejoin:round"
             inkscape:connector-curvature="0"
             id="DejaVuSans-6c"
             d="M 9.421875,75.984375 H 18.40625 V 0 H 9.421875 Z" />
          <path
             style="stroke-linecap:butt;stroke-linejoin:round"
             inkscape:connector-curvature="0"
             id="DejaVuSans-74"
             d="M 18.3125,70.21875 V 54.6875 h 18.5 v -6.984375 h -18.5 v -29.6875 q 0,-6.6875 1.828125,-8.59375 1.828125,-1.90625 7.453125,-1.90625 H 36.8125 V 0 H 27.59375 Q 17.1875,0 13.234375,3.875 9.28125,7.765625 9.28125,18.015625 v 29.6875 H 2.6875 V 54.6875 h 6.59375 v 15.53125 z" />
          <path
             style="stroke-linecap:butt;stroke-linejoin:round"
             inkscape:connector-curvature="0"
             id="DejaVuSans-7a"
             d="M 5.515625,54.6875 H 48.1875 V 46.484375 L 14.40625,7.171875 H 48.1875 V 0 H 4.296875 v 8.203125 l 33.796875,39.3125 H 5.515625 Z" />
          <path
             style="stroke-linecap:butt;stroke-linejoin:round"
             inkscape:connector-curvature="0"
             id="DejaVuSans-61"
             d="m 34.28125,27.484375 q -10.890625,0 -15.09375,-2.484375 -4.203125,-2.484375 -4.203125,-8.5 0,-4.78125 3.15625,-7.59375 3.15625,-2.796875 8.5625,-2.796875 7.484375,0 12,5.296875 4.515625,5.296875 4.515625,14.078125 v 2 z m 17.921875,3.71875 V 0 H 43.21875 v 8.296875 q -3.078125,-4.96875 -7.671875,-7.34375 -4.59375,-2.375 -11.234375,-2.375 -8.390625,0 -13.359375,4.71875 Q 6,8.015625 6,15.921875 q 0,9.21875 6.171875,13.90625 6.1875,4.6875 18.4375,4.6875 H 43.21875 v 0.890625 q 0,6.203125 -4.078125,9.59375 -4.078125,3.390625 -11.453125,3.390625 -4.6875,0 -9.140625,-1.125 -4.4375,-1.125 -8.53125,-3.375 v 8.3125 q 4.921875,1.90625 9.5625,2.84375 Q 24.21875,56 28.609375,56 q 11.875,0 17.734375,-6.15625 5.859375,-6.140625 5.859375,-18.640625 z" />
        </defs>
        <g
           style="stroke-linecap:butt;stroke-linejoin:round"
           id="g258"
           transform="matrix(0.144,0,0,-0.144,299.58075,118.01475)">
          <use
             height="100%"
             width="100%"
             y="0"
             x="0"
             style="stroke-linecap:butt;stroke-linejoin:round"
             id="use240"
             xlink:href="#DejaVuSans-62" />
          <use
             height="100%"
             width="100%"
             y="0"
             style="stroke-linecap:butt;stroke-linejoin:round"
             id="use242"
             xlink:href="#DejaVuSans-6f"
             x="63.476562" />
          <use
             height="100%"
             width="100%"
             y="0"
             style="stroke-linecap:butt;stroke-linejoin:round"
             id="use244"
             xlink:href="#DejaVuSans-6c"
             x="124.6582" />
          <use
             height="100%"
             width="100%"
             y="0"
             style="stroke-linecap:butt;stroke-linejoin:round"
             id="use246"
             xlink:href="#DejaVuSans-74"
             x="152.44141" />
          <use
             height="100%"
             width="100%"
             y="0"
             style="stroke-linecap:butt;stroke-linejoin:round"
             id="use248"
             xlink:href="#DejaVuSans-7a"
             x="191.65039" />
          <use
             height="100%"
             width="100%"
             y="0"
             style="stroke-linecap:butt;stroke-linejoin:round"
             id="use250"
             xlink:href="#DejaVuSans-6d"
             x="244.14062" />
          <use
             height="100%"
             width="100%"
             y="0"
             style="stroke-linecap:butt;stroke-linejoin:round"
             id="use252"
             xlink:href="#DejaVuSans-61"
             x="341.55273" />
          <use
             height="100%"
             width="100%"
             y="0"
             style="stroke-linecap:butt;stroke-linejoin:round"
             id="use254"
             xlink:href="#DejaVuSans-6e"
             x="402.83203" />
          <use
             height="100%"
             width="100%"
             y="0"
             style="stroke-linecap:butt;stroke-linejoin:round"
             id="use256"
             xlink:href="#DejaVuSans-6e"
             x="466.21094" />
        </g>
      </g>
      <g
         style="stroke-linecap:butt;stroke-linejoin:round"
         id="patch_17">
        <path
           inkscape:connector-curvature="0"
           id="path261"
           style="opacity:0.5;fill:#22a884;stroke-linecap:butt;stroke-linejoin:round"
           d="m 259.26075,139.15125 h 28.8 v -10.08 h -28.8 z" />
      </g>
      <g
         style="stroke-linecap:butt;stroke-linejoin:round"
         id="text_10">
        <!-- 20,-30 -->
        <g
           style="stroke-linecap:butt;stroke-linejoin:round"
           id="g276"
           transform="matrix(0.144,0,0,-0.144,299.58075,139.15125)">
          <path
             d="M 19.1875,8.296875 H 53.609375 V 0 H 7.328125 v 8.296875 q 5.609375,5.8125 15.296875,15.59375 9.703125,9.796875 12.1875,12.640625 4.734375,5.3125 6.609375,9 1.890625,3.6875 1.890625,7.25 0,5.8125 -4.078125,9.46875 -4.078125,3.671875 -10.625,3.671875 -4.640625,0 -9.796875,-1.609375 -5.140625,-1.609375 -11,-4.890625 v 9.96875 Q 13.765625,71.78125 18.9375,73 q 5.1875,1.21875 9.484375,1.21875 11.328125,0 18.0625,-5.671875 6.734375,-5.65625 6.734375,-15.125 0,-4.5 -1.6875,-8.53125 Q 49.859375,40.875 45.40625,35.40625 44.1875,33.984375 37.640625,27.21875 31.109375,20.453125 19.1875,8.296875 Z"
             id="use264"
             inkscape:connector-curvature="0"
             style="stroke-linecap:butt;stroke-linejoin:round" />
          <path
             d="m 95.404297,66.40625 q -7.609375,0 -11.453125,-7.5 -3.828125,-7.484375 -3.828125,-22.53125 0,-14.984375 3.828125,-22.484375 3.84375,-7.5 11.453125,-7.5 7.671873,0 11.500003,7.5 3.84375,7.5 3.84375,22.484375 0,15.046875 -3.84375,22.53125 -3.82813,7.5 -11.500003,7.5 z m 0,7.8125 q 12.265623,0 18.734373,-9.703125 6.46875,-9.6875 6.46875,-28.140625 0,-18.40625 -6.46875,-28.109375 -6.46875,-9.6875 -18.734373,-9.6875 -12.25,0 -18.71875,9.6875 -6.46875,9.703125 -6.46875,28.109375 0,18.453125 6.46875,28.140625 6.46875,9.703125 18.71875,9.703125 z"
             id="use266"
             inkscape:connector-curvature="0"
             style="stroke-linecap:butt;stroke-linejoin:round" />
          <use
             height="100%"
             width="100%"
             y="0"
             style="stroke-linecap:butt;stroke-linejoin:round"
             id="use268"
             xlink:href="#DejaVuSans-2c"
             x="127.24609" />
          <use
             height="100%"
             width="100%"
             y="0"
             style="stroke-linecap:butt;stroke-linejoin:round"
             id="use270"
             xlink:href="#DejaVuSans-2d"
             x="159.0332" />
          <use
             height="100%"
             width="100%"
             y="0"
             style="stroke-linecap:butt;stroke-linejoin:round"
             id="use272"
             xlink:href="#DejaVuSans-33"
             x="195.11719" />
          <path
             d="m 290.52148,66.40625 q -7.60937,0 -11.45312,-7.5 -3.82813,-7.484375 -3.82813,-22.53125 0,-14.984375 3.82813,-22.484375 3.84375,-7.5 11.45312,-7.5 7.67188,0 11.5,7.5 3.84375,7.5 3.84375,22.484375 0,15.046875 -3.84375,22.53125 -3.82812,7.5 -11.5,7.5 z m 0,7.8125 q 12.26563,0 18.73438,-9.703125 6.46875,-9.6875 6.46875,-28.140625 0,-18.40625 -6.46875,-28.109375 -6.46875,-9.6875 -18.73438,-9.6875 -12.25,0 -18.71875,9.6875 -6.46875,9.703125 -6.46875,28.109375 0,18.453125 6.46875,28.140625 6.46875,9.703125 18.71875,9.703125 z"
             id="use274"
             inkscape:connector-curvature="0"
             style="stroke-linecap:butt;stroke-linejoin:round" />
        </g>
      </g>
      <g
         style="stroke-linecap:butt;stroke-linejoin:round"
         id="patch_18">
        <path
           inkscape:connector-curvature="0"
           id="path279"
           style="opacity:0.5;fill:#7ad151;stroke-linecap:butt;stroke-linejoin:round"
           d="m 259.26075,160.28775 h 28.8 v -10.08 h -28.8 z" />
      </g>
      <g
         style="stroke-linecap:butt;stroke-linejoin:round"
         id="text_11">
        <!-- 30,-30 -->
        <g
           style="stroke-linecap:butt;stroke-linejoin:round"
           id="g294"
           transform="matrix(0.144,0,0,-0.144,299.58075,160.28775)">
          <use
             height="100%"
             width="100%"
             y="0"
             x="0"
             style="stroke-linecap:butt;stroke-linejoin:round"
             id="use282"
             xlink:href="#DejaVuSans-33" />
          <path
             d="m 95.404297,66.40625 q -7.609375,0 -11.453125,-7.5 -3.828125,-7.484375 -3.828125,-22.53125 0,-14.984375 3.828125,-22.484375 3.84375,-7.5 11.453125,-7.5 7.671873,0 11.500003,7.5 3.84375,7.5 3.84375,22.484375 0,15.046875 -3.84375,22.53125 -3.82813,7.5 -11.500003,7.5 z m 0,7.8125 q 12.265623,0 18.734373,-9.703125 6.46875,-9.6875 6.46875,-28.140625 0,-18.40625 -6.46875,-28.109375 -6.46875,-9.6875 -18.734373,-9.6875 -12.25,0 -18.71875,9.6875 -6.46875,9.703125 -6.46875,28.109375 0,18.453125 6.46875,28.140625 6.46875,9.703125 18.71875,9.703125 z"
             id="use284"
             inkscape:connector-curvature="0"
             style="stroke-linecap:butt;stroke-linejoin:round" />
          <use
             height="100%"
             width="100%"
             y="0"
             style="stroke-linecap:butt;stroke-linejoin:round"
             id="use286"
             xlink:href="#DejaVuSans-2c"
             x="127.24609" />
          <use
             height="100%"
             width="100%"
             y="0"
             style="stroke-linecap:butt;stroke-linejoin:round"
             id="use288"
             xlink:href="#DejaVuSans-2d"
             x="159.0332" />
          <use
             height="100%"
             width="100%"
             y="0"
             style="stroke-linecap:butt;stroke-linejoin:round"
             id="use290"
             xlink:href="#DejaVuSans-33"
             x="195.11719" />
          <path
             d="m 290.52148,66.40625 q -7.60937,0 -11.45312,-7.5 -3.82813,-7.484375 -3.82813,-22.53125 0,-14.984375 3.82813,-22.484375 3.84375,-7.5 11.45312,-7.5 7.67188,0 11.5,7.5 3.84375,7.5 3.84375,22.484375 0,15.046875 -3.84375,22.53125 -3.82812,7.5 -11.5,7.5 z m 0,7.8125 q 12.26563,0 18.73438,-9.703125 6.46875,-9.6875 6.46875,-28.140625 0,-18.40625 -6.46875,-28.109375 -6.46875,-9.6875 -18.73438,-9.6875 -12.25,0 -18.71875,9.6875 -6.46875,9.703125 -6.46875,28.109375 0,18.453125 6.46875,28.140625 6.46875,9.703125 18.71875,9.703125 z"
             id="use292"
             inkscape:connector-curvature="0"
             style="stroke-linecap:butt;stroke-linejoin:round" />
        </g>
      </g>
      <g
         style="stroke-linecap:butt;stroke-linejoin:round"
         id="patch_19">
        <path
           inkscape:connector-curvature="0"
           id="path297"
           style="opacity:0.5;fill:#fde725;stroke-linecap:butt;stroke-linejoin:round"
           d="m 259.26075,181.42425 h 28.8 v -10.08 h -28.8 z" />
      </g>
      <g
         style="stroke-linecap:butt;stroke-linejoin:round"
         id="text_12">
        <!-- 25,-25 -->
        <defs
           id="defs301">
          <path
             style="stroke-linecap:butt;stroke-linejoin:round"
             inkscape:connector-curvature="0"
             id="DejaVuSans-35"
             d="m 10.796875,72.90625 h 38.71875 v -8.3125 h -29.6875 V 46.734375 q 2.140625,0.734375 4.28125,1.09375 2.15625,0.359375 4.3125,0.359375 Q 40.625,48.1875 47.75,41.5 54.890625,34.8125 54.890625,23.390625 54.890625,11.625 47.5625,5.09375 40.234375,-1.421875 26.90625,-1.421875 q -4.59375,0 -9.359375,0.78125 -4.75,0.78125 -9.828125,2.34375 V 11.625 q 4.390625,-2.390625 9.078125,-3.5625 4.6875,-1.171875 9.90625,-1.171875 8.453125,0 13.375,4.4375 4.9375,4.4375 4.9375,12.0625 0,7.609375 -4.9375,12.046875 -4.921875,4.453125 -13.375,4.453125 -3.953125,0 -7.890625,-0.875 -3.921875,-0.875 -8.015625,-2.734375 z" />
        </defs>
        <g
           style="stroke-linecap:butt;stroke-linejoin:round"
           id="g315"
           transform="matrix(0.144,0,0,-0.144,299.58075,181.42425)">
          <path
             d="M 19.1875,8.296875 H 53.609375 V 0 H 7.328125 v 8.296875 q 5.609375,5.8125 15.296875,15.59375 9.703125,9.796875 12.1875,12.640625 4.734375,5.3125 6.609375,9 1.890625,3.6875 1.890625,7.25 0,5.8125 -4.078125,9.46875 -4.078125,3.671875 -10.625,3.671875 -4.640625,0 -9.796875,-1.609375 -5.140625,-1.609375 -11,-4.890625 v 9.96875 Q 13.765625,71.78125 18.9375,73 q 5.1875,1.21875 9.484375,1.21875 11.328125,0 18.0625,-5.671875 6.734375,-5.65625 6.734375,-15.125 0,-4.5 -1.6875,-8.53125 Q 49.859375,40.875 45.40625,35.40625 44.1875,33.984375 37.640625,27.21875 31.109375,20.453125 19.1875,8.296875 Z"
             id="use303"
             inkscape:connector-curvature="0"
             style="stroke-linecap:butt;stroke-linejoin:round" />
          <use
             height="100%"
             width="100%"
             y="0"
             style="stroke-linecap:butt;stroke-linejoin:round"
             id="use305"
             xlink:href="#DejaVuSans-35"
             x="63.623047" />
          <use
             height="100%"
             width="100%"
             y="0"
             style="stroke-linecap:butt;stroke-linejoin:round"
             id="use307"
             xlink:href="#DejaVuSans-2c"
             x="127.24609" />
          <use
             height="100%"
             width="100%"
             y="0"
             style="stroke-linecap:butt;stroke-linejoin:round"
             id="use309"
             xlink:href="#DejaVuSans-2d"
             x="159.0332" />
          <path
             d="m 214.30469,8.296875 h 34.42187 V 0 h -46.28125 v 8.296875 q 5.60938,5.8125 15.29688,15.59375 9.70312,9.796875 12.1875,12.640625 4.73437,5.3125 6.60937,9 1.89063,3.6875 1.89063,7.25 0,5.8125 -4.07813,9.46875 -4.07812,3.671875 -10.625,3.671875 -4.64062,0 -9.79687,-1.609375 -5.14063,-1.609375 -11,-4.890625 v 9.96875 q 5.95312,2.390625 11.125,3.609375 5.1875,1.21875 9.48437,1.21875 11.32813,0 18.0625,-5.671875 6.73438,-5.65625 6.73438,-15.125 0,-4.5 -1.6875,-8.53125 -1.67188,-4.015625 -6.125,-9.484375 -1.21875,-1.421875 -7.76563,-8.1875 -6.53125,-6.765625 -18.45312,-18.921875 z"
             id="use311"
             inkscape:connector-curvature="0"
             style="stroke-linecap:butt;stroke-linejoin:round" />
          <use
             height="100%"
             width="100%"
             y="0"
             style="stroke-linecap:butt;stroke-linejoin:round"
             id="use313"
             xlink:href="#DejaVuSans-35"
             x="258.74023" />
        </g>
      </g>
    </g>
  </g>
  <g
     transform="matrix(0,-0.144,-0.144,0,10.94175,183.84849)"
     id="g654"
     style="stroke-linecap:butt;stroke-linejoin:round">
    <use
       xlink:href="#DejaVuSans-52"
       id="use610"
       style="stroke-linecap:butt;stroke-linejoin:round"
       x="0"
       y="0"
       width="100%"
       height="100%" />
    <use
       x="69.419922"
       xlink:href="#DejaVuSans-65"
       id="use612"
       style="stroke-linecap:butt;stroke-linejoin:round"
       y="0"
       width="100%"
       height="100%" />
    <use
       x="130.94336"
       xlink:href="#DejaVuSans-6c"
       id="use614"
       style="stroke-linecap:butt;stroke-linejoin:round"
       y="0"
       width="100%"
       height="100%" />
    <use
       x="158.72656"
       xlink:href="#DejaVuSans-61"
       id="use616"
       style="stroke-linecap:butt;stroke-linejoin:round"
       y="0"
       width="100%"
       height="100%" />
    <use
       x="220.00586"
       xlink:href="#DejaVuSans-74"
       id="use618"
       style="stroke-linecap:butt;stroke-linejoin:round"
       y="0"
       width="100%"
       height="100%" />
    <use
       x="259.21484"
       xlink:href="#DejaVuSans-69"
       id="use620"
       style="stroke-linecap:butt;stroke-linejoin:round"
       y="0"
       width="100%"
       height="100%" />
    <use
       x="286.99805"
       xlink:href="#DejaVuSans-76"
       id="use622"
       style="stroke-linecap:butt;stroke-linejoin:round"
       y="0"
       width="100%"
       height="100%" />
    <use
       x="346.17773"
       xlink:href="#DejaVuSans-65"
       id="use624"
       style="stroke-linecap:butt;stroke-linejoin:round"
       y="0"
       width="100%"
       height="100%" />
    <use
       x="407.70117"
       xlink:href="#DejaVuSans-20"
       id="use626"
       style="stroke-linecap:butt;stroke-linejoin:round"
       y="0"
       width="100%"
       height="100%" />
    <use
       x="439.48828"
       xlink:href="#DejaVuSans-46"
       id="use628"
       style="stroke-linecap:butt;stroke-linejoin:round"
       y="0"
       width="100%"
       height="100%" />
    <use
       x="496.89844"
       xlink:href="#DejaVuSans-72"
       id="use630"
       style="stroke-linecap:butt;stroke-linejoin:round"
       y="0"
       width="100%"
       height="100%" />
    <use
       x="537.98047"
       xlink:href="#DejaVuSans-65"
       id="use632"
       style="stroke-linecap:butt;stroke-linejoin:round"
       y="0"
       width="100%"
       height="100%" />
    <use
       x="599.50391"
       xlink:href="#DejaVuSans-71"
       id="use634"
       style="stroke-linecap:butt;stroke-linejoin:round"
       y="0"
       width="100%"
       height="100%" />
    <use
       x="662.98047"
       xlink:href="#DejaVuSans-75"
       id="use636"
       style="stroke-linecap:butt;stroke-linejoin:round"
       y="0"
       width="100%"
       height="100%" />
    <use
       x="726.35938"
       xlink:href="#DejaVuSans-65"
       id="use638"
       style="stroke-linecap:butt;stroke-linejoin:round"
       y="0"
       width="100%"
       height="100%" />
    <use
       x="787.88281"
       xlink:href="#DejaVuSans-6e"
       id="use640"
       style="stroke-linecap:butt;stroke-linejoin:round"
       y="0"
       width="100%"
       height="100%" />
    <use
       x="851.26172"
       xlink:href="#DejaVuSans-63"
       id="use642"
       style="stroke-linecap:butt;stroke-linejoin:round"
       y="0"
       width="100%"
       height="100%" />
    <use
       x="906.24219"
       xlink:href="#DejaVuSans-79"
       id="use644"
       style="stroke-linecap:butt;stroke-linejoin:round"
       y="0"
       width="100%"
       height="100%" />
    <use
       x="965.42188"
       xlink:href="#DejaVuSans-20"
       id="use646"
       style="stroke-linecap:butt;stroke-linejoin:round"
       y="0"
       width="100%"
       height="100%" />
    <use
       x="997.20898"
       xlink:href="#DejaVuSans-28"
       id="use648"
       style="stroke-linecap:butt;stroke-linejoin:round"
       y="0"
       width="100%"
       height="100%" />
    <use
       x="1036.2227"
       xlink:href="#DejaVuSans-25"
       id="use650"
       style="stroke-linecap:butt;stroke-linejoin:round"
       y="0"
       width="100%"
       height="100%" />
    <use
       x="1131.2422"
       xlink:href="#DejaVuSans-29"
       id="use652"
       style="stroke-linecap:butt;stroke-linejoin:round"
       y="0"
       width="100%"
       height="100%" />
  </g>
  <defs
     id="defs664">
    <clipPath
       id="p189c9f1584"
       style="stroke-linecap:butt;stroke-linejoin:round">
      <rect
         height="151.2"
         width="334.79999"
         x="54"
         y="51.84"
         id="rect658"
         style="stroke-linecap:butt;stroke-linejoin:round" />
    </clipPath>
    <clipPath
       id="p15a097b377"
       style="stroke-linecap:butt;stroke-linejoin:round">
      <rect
         height="151.2"
         width="334.79999"
         x="54"
         y="233.28"
         id="rect661"
         style="stroke-linecap:butt;stroke-linejoin:round" />
    </clipPath>
  </defs>
</svg>
