<?xml version="1.0" encoding="UTF-8" standalone="no"?>
<!-- Created with Inkscape (http://www.inkscape.org/) -->

<svg
   xmlns:dc="http://purl.org/dc/elements/1.1/"
   xmlns:cc="http://creativecommons.org/ns#"
   xmlns:rdf="http://www.w3.org/1999/02/22-rdf-syntax-ns#"
   xmlns:svg="http://www.w3.org/2000/svg"
   xmlns="http://www.w3.org/2000/svg"
   xmlns:sodipodi="http://sodipodi.sourceforge.net/DTD/sodipodi-0.dtd"
   xmlns:inkscape="http://www.inkscape.org/namespaces/inkscape"
   version="1.1"
   id="svg2"
   xml:space="preserve"
   width="1056"
   height="816"
   viewBox="0 0 1056 816"
   sodipodi:docname="statistics-overall.svg"
   inkscape:version="0.92.3 (2405546, 2018-03-11)"><metadata
     id="metadata8"><rdf:RDF><cc:Work
         rdf:about=""><dc:format>image/svg+xml</dc:format><dc:type
           rdf:resource="http://purl.org/dc/dcmitype/StillImage" /><dc:title></dc:title></cc:Work></rdf:RDF></metadata><defs
     id="defs6"><clipPath
       clipPathUnits="userSpaceOnUse"
       id="clipPath18"><path
         d="m 0.96003,1.8311e-4 h 791.04 V 612.00018 h -791.04 z"
         id="path16"
         inkscape:connector-curvature="0"
         style="clip-rule:evenodd" /></clipPath><clipPath
       clipPathUnits="userSpaceOnUse"
       id="clipPath88"><path
         d="m 0.96002,9.36 h 781.56 V 612 h -781.56 z"
         id="path86"
         inkscape:connector-curvature="0"
         style="clip-rule:evenodd" /></clipPath><clipPath
       clipPathUnits="userSpaceOnUse"
       id="clipPath100"><path
         d="m 0.96002,9.36 h 781.56 V 612 h -781.56 z"
         id="path98"
         inkscape:connector-curvature="0"
         style="clip-rule:evenodd" /></clipPath><clipPath
       clipPathUnits="userSpaceOnUse"
       id="clipPath112"><path
         d="m 0.96002,9.36 h 781.56 V 612 h -781.56 z"
         id="path110"
         inkscape:connector-curvature="0"
         style="clip-rule:evenodd" /></clipPath><clipPath
       clipPathUnits="userSpaceOnUse"
       id="clipPath124"><path
         d="m 0.96002,9.36 h 781.56 V 612 h -781.56 z"
         id="path122"
         inkscape:connector-curvature="0"
         style="clip-rule:evenodd" /></clipPath><clipPath
       clipPathUnits="userSpaceOnUse"
       id="clipPath136"><path
         d="m 0.96002,9.36 h 781.56 V 612 h -781.56 z"
         id="path134"
         inkscape:connector-curvature="0"
         style="clip-rule:evenodd" /></clipPath><clipPath
       clipPathUnits="userSpaceOnUse"
       id="clipPath148"><path
         d="m 0.96002,9.36 h 781.56 V 612 h -781.56 z"
         id="path146"
         inkscape:connector-curvature="0"
         style="clip-rule:evenodd" /></clipPath><clipPath
       clipPathUnits="userSpaceOnUse"
       id="clipPath160"><path
         d="m 0.96002,9.36 h 781.56 V 612 h -781.56 z"
         id="path158"
         inkscape:connector-curvature="0"
         style="clip-rule:evenodd" /></clipPath><clipPath
       clipPathUnits="userSpaceOnUse"
       id="clipPath172"><path
         d="m 0.96002,9.36 h 781.56 V 612 h -781.56 z"
         id="path170"
         inkscape:connector-curvature="0"
         style="clip-rule:evenodd" /></clipPath><clipPath
       clipPathUnits="userSpaceOnUse"
       id="clipPath184"><path
         d="m 0.96002,9.36 h 781.56 V 612 h -781.56 z"
         id="path182"
         inkscape:connector-curvature="0"
         style="clip-rule:evenodd" /></clipPath><clipPath
       clipPathUnits="userSpaceOnUse"
       id="clipPath196"><path
         d="m 0.96002,9.36 h 781.56 V 612 h -781.56 z"
         id="path194"
         inkscape:connector-curvature="0"
         style="clip-rule:evenodd" /></clipPath><clipPath
       clipPathUnits="userSpaceOnUse"
       id="clipPath208"><path
         d="m 0.96002,9.36 h 781.56 V 612 h -781.56 z"
         id="path206"
         inkscape:connector-curvature="0"
         style="clip-rule:evenodd" /></clipPath><clipPath
       clipPathUnits="userSpaceOnUse"
       id="clipPath220"><path
         d="m 0.96002,9.36 h 781.56 V 612 h -781.56 z"
         id="path218"
         inkscape:connector-curvature="0"
         style="clip-rule:evenodd" /></clipPath><clipPath
       clipPathUnits="userSpaceOnUse"
       id="clipPath232"><path
         d="m 0.96002,9.36 h 781.56 V 612 h -781.56 z"
         id="path230"
         inkscape:connector-curvature="0"
         style="clip-rule:evenodd" /></clipPath><clipPath
       clipPathUnits="userSpaceOnUse"
       id="clipPath244"><path
         d="m 0.96002,9.36 h 781.56 V 612 h -781.56 z"
         id="path242"
         inkscape:connector-curvature="0"
         style="clip-rule:evenodd" /></clipPath><clipPath
       clipPathUnits="userSpaceOnUse"
       id="clipPath256"><path
         d="m 0.96002,9.36 h 781.56 V 612 h -781.56 z"
         id="path254"
         inkscape:connector-curvature="0"
         style="clip-rule:evenodd" /></clipPath><clipPath
       clipPathUnits="userSpaceOnUse"
       id="clipPath268"><path
         d="m 0.96002,9.36 h 781.56 V 612 h -781.56 z"
         id="path266"
         inkscape:connector-curvature="0"
         style="clip-rule:evenodd" /></clipPath><clipPath
       clipPathUnits="userSpaceOnUse"
       id="clipPath280"><path
         d="m 0.96002,9.36 h 781.56 V 612 h -781.56 z"
         id="path278"
         inkscape:connector-curvature="0"
         style="clip-rule:evenodd" /></clipPath><clipPath
       clipPathUnits="userSpaceOnUse"
       id="clipPath294"><path
         d="m 0.96002,9.36 h 781.56 V 612 h -781.56 z"
         id="path292"
         inkscape:connector-curvature="0"
         style="clip-rule:evenodd" /></clipPath><clipPath
       clipPathUnits="userSpaceOnUse"
       id="clipPath308"><path
         d="m 0.96002,9.36 h 781.56 V 612 h -781.56 z"
         id="path306"
         inkscape:connector-curvature="0"
         style="clip-rule:evenodd" /></clipPath><clipPath
       clipPathUnits="userSpaceOnUse"
       id="clipPath322"><path
         d="m 0.96002,9.36 h 781.56 V 612 h -781.56 z"
         id="path320"
         inkscape:connector-curvature="0"
         style="clip-rule:evenodd" /></clipPath><clipPath
       clipPathUnits="userSpaceOnUse"
       id="clipPath336"><path
         d="m 0.96002,9.36 h 781.56 V 612 h -781.56 z"
         id="path334"
         inkscape:connector-curvature="0"
         style="clip-rule:evenodd" /></clipPath></defs><sodipodi:namedview
     pagecolor="#ffffff"
     bordercolor="#666666"
     borderopacity="1"
     objecttolerance="10"
     gridtolerance="10"
     guidetolerance="10"
     inkscape:pageopacity="0"
     inkscape:pageshadow="2"
     inkscape:window-width="1920"
     inkscape:window-height="1025"
     id="namedview4"
     showgrid="false"
     inkscape:zoom="0.98288143"
     inkscape:cx="524.43904"
     inkscape:cy="408"
     inkscape:window-x="1920"
     inkscape:window-y="27"
     inkscape:window-maximized="1"
     inkscape:current-layer="g10" /><g
     id="g10"
     inkscape:groupmode="layer"
     inkscape:label="statistics-overall"
     transform="matrix(1.3333333,0,0,-1.3333333,0,816)"><g
       id="g12"><g
         id="g14"
         clip-path="url(#clipPath18)"><path
           d="m 0.96,9.2479 h 781.65 v 602.75 H 0.96 Z"
           style="fill:#ffffff;fill-opacity:1;fill-rule:evenodd;stroke:none"
           id="path20"
           inkscape:connector-curvature="0" /></g></g><path
       d="M 80.272,120.96 H 781.47 M 80.272,162.48 H 781.47 M 80.272,204 H 781.47 M 80.272,245.4 H 781.47 M 80.272,286.92 H 781.47 M 80.272,328.44 H 781.47 M 80.272,369.84 H 781.47 M 80.272,411.36 H 781.47 M 80.272,452.87 H 781.47"
       style="fill:none;stroke:#d9d9d9;stroke-width:0.75;stroke-linecap:butt;stroke-linejoin:round;stroke-miterlimit:10;stroke-dasharray:none;stroke-opacity:1"
       id="path22"
       inkscape:connector-curvature="0" /><path
       d="m 91.92,124.44 h 23.4 V 79.493 H 91.92 Z M 208.8,121.8 h 23.4 V 79.493 h -23.4 z m 116.88,33.72 h 23.4 V 79.493 h -23.4 z m 116.88,-44.16 h 23.4 V 79.493 h -23.4 z m 116.88,-4.68 h 23.4 V 79.493 h -23.4 z m 116.88,2.64 H 699.6 V 79.493 h -23.28 z"
       style="fill:#ff5050;fill-opacity:1;fill-rule:nonzero;stroke:#000000;stroke-opacity:1;stroke-width:0.75000002;stroke-miterlimit:4;stroke-dasharray:none"
       id="path24"
       inkscape:connector-curvature="0" /><path
       d="m 115.32,145.44 h 23.4 V 79.493 h -23.4 z m 116.88,-7.56 h 23.4 V 79.493 h -23.4 z m 116.88,51.6 h 23.4 V 79.493 h -23.4 z m 116.88,-56.52 h 23.4 V 79.493 h -23.4 z m 116.88,12.84 h 23.28 V 79.493 H 582.84 Z M 699.6,128.28 H 723 V 79.493 h -23.4 z"
       style="fill:#85b4e0;fill-opacity:1;fill-rule:nonzero;stroke:#000000;stroke-opacity:1;stroke-width:0.75000002;stroke-miterlimit:4;stroke-dasharray:none"
       id="path26"
       inkscape:connector-curvature="0" /><path
       d="m 138.72,259.32 h 23.4 V 79.493 h -23.4 z M 255.6,229.56 H 279 V 79.493 h -23.4 z m 116.88,17.16 h 23.28 V 79.493 h -23.28 z m 116.88,-66.6 h 23.28 V 79.493 h -23.28 z m 116.76,13.92 h 23.4 V 79.493 h -23.4 z M 723,166.92 h 23.4 V 79.493 H 723 Z"
       style="fill:#810000;fill-opacity:1;fill-rule:nonzero;stroke:#000000;stroke-opacity:1;stroke-width:0.75000002;stroke-miterlimit:4;stroke-dasharray:none"
       id="path28"
       inkscape:connector-curvature="0" /><path
       d="M 162.12,392.64 H 185.4 V 79.493 H 162.12 Z M 279,332.52 h 23.28 V 79.493 H 279 Z m 116.76,15.12 h 23.4 V 79.493 h -23.4 z m 116.88,-103.8 h 23.4 V 79.493 h -23.4 z M 629.52,279 h 23.4 V 79.493 h -23.4 z M 746.4,227.16 h 23.4 V 79.493 h -23.4 z"
       style="fill:#192c5a;fill-opacity:1;fill-rule:nonzero;stroke:#000000;stroke-width:0.75000002;stroke-miterlimit:4;stroke-dasharray:none;stroke-opacity:1"
       id="path30"
       inkscape:connector-curvature="0" /><path
       d="m 103.68,124.44 v -10.45 m 0,10.45 v 10.57 m -2.29,-21.02 h 4.5 m -4.5,21.02 h 4.5"
       style="fill:none;stroke:#7f7f7f;stroke-width:2;stroke-linecap:butt;stroke-linejoin:round;stroke-miterlimit:10;stroke-dasharray:none;stroke-opacity:1"
       id="path32"
       inkscape:connector-curvature="0" /><path
       d="m 220.56,121.8 v -9.14 m 0,9.14 v 9.18 m -2.3,-18.32 h 4.5 m -4.5,18.32 h 4.5"
       style="fill:none;stroke:#7f7f7f;stroke-width:2;stroke-linecap:butt;stroke-linejoin:round;stroke-miterlimit:10;stroke-dasharray:none;stroke-opacity:1"
       id="path34"
       inkscape:connector-curvature="0" /><path
       d="m 337.32,155.52 v -12.48 m 0,12.48 v 12.56 m -2.19,-25.04 h 4.5 m -4.5,25.04 h 4.5"
       style="fill:none;stroke:#7f7f7f;stroke-width:2;stroke-linecap:butt;stroke-linejoin:round;stroke-miterlimit:10;stroke-dasharray:none;stroke-opacity:1"
       id="path36"
       inkscape:connector-curvature="0" /><path
       d="m 454.2,111.36 v -10.15 m 0,10.15 v 10.22 m -2.21,-20.37 h 4.5 m -4.5,20.37 h 4.5"
       style="fill:none;stroke:#7f7f7f;stroke-width:2;stroke-linecap:butt;stroke-linejoin:round;stroke-miterlimit:10;stroke-dasharray:none;stroke-opacity:1"
       id="path38"
       inkscape:connector-curvature="0" /><path
       d="M 571.08,106.68 V 93.536 m 0,13.144 v 13.07 m -2.22,-26.214 h 4.5 m -4.5,26.214 h 4.5"
       style="fill:none;stroke:#7f7f7f;stroke-width:2;stroke-linecap:butt;stroke-linejoin:round;stroke-miterlimit:10;stroke-dasharray:none;stroke-opacity:1"
       id="path40"
       inkscape:connector-curvature="0" /><path
       d="m 687.96,109.32 v -9.28 m 0,9.28 v 9.21 m -2.24,-18.49 h 4.5 m -4.5,18.49 h 4.5"
       style="fill:none;stroke:#7f7f7f;stroke-width:2;stroke-linecap:butt;stroke-linejoin:round;stroke-miterlimit:10;stroke-dasharray:none;stroke-opacity:1"
       id="path42"
       inkscape:connector-curvature="0" /><path
       d="m 126.96,145.44 v -14.49 m 0,14.49 v 14.58 m -2.19,-29.07 h 4.5 m -4.5,29.07 h 4.5"
       style="fill:none;stroke:#7f7f7f;stroke-width:2;stroke-linecap:butt;stroke-linejoin:round;stroke-miterlimit:10;stroke-dasharray:none;stroke-opacity:1"
       id="path44"
       inkscape:connector-curvature="0" /><path
       d="m 243.84,137.88 v -12.6 m 0,12.6 v 12.66 m -2.21,-25.26 h 4.5 m -4.5,25.26 h 4.5"
       style="fill:none;stroke:#7f7f7f;stroke-width:2;stroke-linecap:butt;stroke-linejoin:round;stroke-miterlimit:10;stroke-dasharray:none;stroke-opacity:1"
       id="path46"
       inkscape:connector-curvature="0" /><path
       d="m 360.72,189.48 v -17.77 m 0,17.77 v 17.66 m -2.22,-35.43 h 4.5 m -4.5,35.43 h 4.5"
       style="fill:none;stroke:#7f7f7f;stroke-width:2;stroke-linecap:butt;stroke-linejoin:round;stroke-miterlimit:10;stroke-dasharray:none;stroke-opacity:1"
       id="path48"
       inkscape:connector-curvature="0" /><path
       d="m 477.6,132.96 v -15.22 m 0,15.22 v 15.29 m -2.24,-30.51 h 4.5 m -4.5,30.51 h 4.5"
       style="fill:none;stroke:#7f7f7f;stroke-width:2;stroke-linecap:butt;stroke-linejoin:round;stroke-miterlimit:10;stroke-dasharray:none;stroke-opacity:1"
       id="path50"
       inkscape:connector-curvature="0" /><path
       d="m 594.48,145.8 v -19.52 m 0,19.52 v 19.44 m -2.25,-38.96 h 4.5 m -4.5,38.96 h 4.5"
       style="fill:none;stroke:#7f7f7f;stroke-width:2;stroke-linecap:butt;stroke-linejoin:round;stroke-miterlimit:10;stroke-dasharray:none;stroke-opacity:1"
       id="path52"
       inkscape:connector-curvature="0" /><path
       d="m 711.36,128.28 v -13.22 m 0,13.22 v 13.15 m -2.26,-26.37 h 4.5 m -4.5,26.37 h 4.5"
       style="fill:none;stroke:#7f7f7f;stroke-width:2;stroke-linecap:butt;stroke-linejoin:round;stroke-miterlimit:10;stroke-dasharray:none;stroke-opacity:1"
       id="path54"
       inkscape:connector-curvature="0" /><path
       d="m 150.36,259.32 v -36.39 m 0,36.39 v 36.31 m -2.22,-72.7 h 4.5 m -4.5,72.7 h 4.5"
       style="fill:none;stroke:#7f7f7f;stroke-width:2;stroke-linecap:butt;stroke-linejoin:round;stroke-miterlimit:10;stroke-dasharray:none;stroke-opacity:1"
       id="path56"
       inkscape:connector-curvature="0" /><path
       d="m 267.24,229.56 v -32.99 m 0,32.99 v 33.02 m -2.23,-66.01 h 4.5 m -4.5,66.01 h 4.5"
       style="fill:none;stroke:#7f7f7f;stroke-width:2;stroke-linecap:butt;stroke-linejoin:round;stroke-miterlimit:10;stroke-dasharray:none;stroke-opacity:1"
       id="path58"
       inkscape:connector-curvature="0" /><path
       d="m 384.12,246.72 v -31.81 m 0,31.81 v 31.74 m -2.25,-63.55 h 4.5 m -4.5,63.55 h 4.5"
       style="fill:none;stroke:#7f7f7f;stroke-width:2;stroke-linecap:butt;stroke-linejoin:round;stroke-miterlimit:10;stroke-dasharray:none;stroke-opacity:1"
       id="path60"
       inkscape:connector-curvature="0" /><path
       d="M 501,180.12 V 154.8 m 0,25.32 v 25.2 m -2.26,-50.52 h 4.5 m -4.5,50.52 h 4.5"
       style="fill:none;stroke:#7f7f7f;stroke-width:2;stroke-linecap:butt;stroke-linejoin:round;stroke-miterlimit:10;stroke-dasharray:none;stroke-opacity:1"
       id="path62"
       inkscape:connector-curvature="0" /><path
       d="m 617.88,194.04 v -30.08 m 0,30.08 v 30.11 m -2.28,-60.19 h 4.5 m -4.5,60.19 h 4.5"
       style="fill:none;stroke:#7f7f7f;stroke-width:2;stroke-linecap:butt;stroke-linejoin:round;stroke-miterlimit:10;stroke-dasharray:none;stroke-opacity:1"
       id="path64"
       inkscape:connector-curvature="0" /><path
       d="m 734.76,166.92 v -22.96 m 0,22.96 v 22.97 m -2.29,-45.93 h 4.5 m -4.5,45.93 h 4.5"
       style="fill:none;stroke:#7f7f7f;stroke-width:2;stroke-linecap:butt;stroke-linejoin:round;stroke-miterlimit:10;stroke-dasharray:none;stroke-opacity:1"
       id="path66"
       inkscape:connector-curvature="0" /><path
       d="m 173.76,392.64 v -53.55 m 0,53.55 v 53.54 m -2.25,-107.09 h 4.5 m -4.5,107.09 h 4.5"
       style="fill:none;stroke:#7f7f7f;stroke-width:2;stroke-linecap:butt;stroke-linejoin:round;stroke-miterlimit:10;stroke-dasharray:none;stroke-opacity:1"
       id="path68"
       inkscape:connector-curvature="0" /><path
       d="m 290.64,332.52 v -44.91 m 0,44.91 v 44.88 m -2.26,-89.79 h 4.5 m -4.5,89.79 h 4.5"
       style="fill:none;stroke:#7f7f7f;stroke-width:2;stroke-linecap:butt;stroke-linejoin:round;stroke-miterlimit:10;stroke-dasharray:none;stroke-opacity:1"
       id="path70"
       inkscape:connector-curvature="0" /><path
       d="m 407.52,347.64 v -43.36 m 0,43.36 v 43.46 m -2.27,-86.82 h 4.5 m -4.5,86.82 h 4.5"
       style="fill:none;stroke:#7f7f7f;stroke-width:2;stroke-linecap:butt;stroke-linejoin:round;stroke-miterlimit:10;stroke-dasharray:none;stroke-opacity:1"
       id="path72"
       inkscape:connector-curvature="0" /><path
       d="m 524.4,243.84 v -35.2 m 0,35.2 v 35.2 m -2.29,-70.4 h 4.5 m -4.5,70.4 h 4.5"
       style="fill:none;stroke:#7f7f7f;stroke-width:2;stroke-linecap:butt;stroke-linejoin:round;stroke-miterlimit:10;stroke-dasharray:none;stroke-opacity:1"
       id="path74"
       inkscape:connector-curvature="0" /><path
       d="m 641.28,279 v -40.87 m 0,40.87 v 40.95 m -2.3,-81.82 h 4.5 m -4.5,81.82 h 4.5"
       style="fill:none;stroke:#7f7f7f;stroke-width:2;stroke-linecap:butt;stroke-linejoin:round;stroke-miterlimit:10;stroke-dasharray:none;stroke-opacity:1"
       id="path76"
       inkscape:connector-curvature="0" /><path
       d="m 758.04,227.16 v -34.6 m 0,34.6 v 34.6 m -2.2,-69.2 h 4.5 m -4.5,69.2 h 4.5"
       style="fill:none;stroke:#7f7f7f;stroke-width:2;stroke-linecap:butt;stroke-linejoin:round;stroke-miterlimit:10;stroke-dasharray:none;stroke-opacity:1"
       id="path78"
       inkscape:connector-curvature="0" /><path
       d="M 80.272,79.493 H 781.47"
       style="fill:none;stroke:#d9d9d9;stroke-width:0.75;stroke-linecap:butt;stroke-linejoin:round;stroke-miterlimit:10;stroke-dasharray:none;stroke-opacity:1"
       id="path80"
       inkscape:connector-curvature="0" /><g
       id="g82"><g
         id="g84"
         clip-path="url(#clipPath88)"><text
           transform="matrix(1,0,0,-1,54.792,73.656)"
           style="font-variant:normal;font-weight:normal;font-size:18px;font-family:Arial;-inkscape-font-specification:Arial;writing-mode:lr-tb;fill:#000000;fill-opacity:1;fill-rule:nonzero;stroke:none"
           id="text92"><tspan
             x="0"
             y="0"
             id="tspan90">0</tspan></text>
</g></g><g
       id="g94"><g
         id="g96"
         clip-path="url(#clipPath100)"><text
           transform="matrix(1,0,0,-1,54.792,115.15)"
           style="font-variant:normal;font-weight:normal;font-size:18px;font-family:Arial;-inkscape-font-specification:Arial;writing-mode:lr-tb;fill:#000000;fill-opacity:1;fill-rule:nonzero;stroke:none"
           id="text104"><tspan
             x="0"
             y="0"
             id="tspan102">5</tspan></text>
</g></g><g
       id="g106"><g
         id="g108"
         clip-path="url(#clipPath112)"><text
           transform="matrix(1,0,0,-1,44.784,156.65)"
           style="font-variant:normal;font-weight:normal;font-size:18px;font-family:Arial;-inkscape-font-specification:Arial;writing-mode:lr-tb;fill:#000000;fill-opacity:1;fill-rule:nonzero;stroke:none"
           id="text116"><tspan
             x="0 9.96"
             y="0"
             sodipodi:role="line"
             id="tspan114">10</tspan></text>
</g></g><g
       id="g118"><g
         id="g120"
         clip-path="url(#clipPath124)"><text
           transform="matrix(1,0,0,-1,44.784,198.14)"
           style="font-variant:normal;font-weight:normal;font-size:18px;font-family:Arial;-inkscape-font-specification:Arial;writing-mode:lr-tb;fill:#000000;fill-opacity:1;fill-rule:nonzero;stroke:none"
           id="text128"><tspan
             x="0 9.96"
             y="0"
             sodipodi:role="line"
             id="tspan126">15</tspan></text>
</g></g><g
       id="g130"><g
         id="g132"
         clip-path="url(#clipPath136)"><text
           transform="matrix(1,0,0,-1,44.784,239.64)"
           style="font-variant:normal;font-weight:normal;font-size:18.02400017px;font-family:Arial;-inkscape-font-specification:Arial;writing-mode:lr-tb;fill:#000000;fill-opacity:1;fill-rule:nonzero;stroke:none"
           id="text140"><tspan
             x="0 9.9600439"
             y="0"
             sodipodi:role="line"
             id="tspan138">20</tspan></text>
</g></g><g
       id="g142"><g
         id="g144"
         clip-path="url(#clipPath148)"><text
           transform="matrix(1,0,0,-1,44.784,281.11)"
           style="font-variant:normal;font-weight:normal;font-size:18px;font-family:Arial;-inkscape-font-specification:Arial;writing-mode:lr-tb;fill:#000000;fill-opacity:1;fill-rule:nonzero;stroke:none"
           id="text152"><tspan
             x="0 9.96"
             y="0"
             sodipodi:role="line"
             id="tspan150">25</tspan></text>
</g></g><g
       id="g154"><g
         id="g156"
         clip-path="url(#clipPath160)"><text
           transform="matrix(1,0,0,-1,44.784,322.61)"
           style="font-variant:normal;font-weight:normal;font-size:18px;font-family:Arial;-inkscape-font-specification:Arial;writing-mode:lr-tb;fill:#000000;fill-opacity:1;fill-rule:nonzero;stroke:none"
           id="text164"><tspan
             x="0 9.96"
             y="0"
             sodipodi:role="line"
             id="tspan162">30</tspan></text>
</g></g><g
       id="g166"><g
         id="g168"
         clip-path="url(#clipPath172)"><text
           transform="matrix(1,0,0,-1,44.784,364.1)"
           style="font-variant:normal;font-weight:normal;font-size:18px;font-family:Arial;-inkscape-font-specification:Arial;writing-mode:lr-tb;fill:#000000;fill-opacity:1;fill-rule:nonzero;stroke:none"
           id="text176"><tspan
             x="0 9.96"
             y="0"
             sodipodi:role="line"
             id="tspan174">35</tspan></text>
</g></g><g
       id="g178"><g
         id="g180"
         clip-path="url(#clipPath184)"><text
           transform="matrix(1,0,0,-1,44.784,405.6)"
           style="font-variant:normal;font-weight:normal;font-size:18px;font-family:Arial;-inkscape-font-specification:Arial;writing-mode:lr-tb;fill:#000000;fill-opacity:1;fill-rule:nonzero;stroke:none"
           id="text188"><tspan
             x="0 9.96"
             y="0"
             sodipodi:role="line"
             id="tspan186">40</tspan></text>
</g></g><g
       id="g190"><g
         id="g192"
         clip-path="url(#clipPath196)"><text
           transform="matrix(1,0,0,-1,44.784,447.1)"
           style="font-variant:normal;font-weight:normal;font-size:18px;font-family:Arial;-inkscape-font-specification:Arial;writing-mode:lr-tb;fill:#000000;fill-opacity:1;fill-rule:nonzero;stroke:none"
           id="text200"><tspan
             x="0 9.96"
             y="0"
             sodipodi:role="line"
             id="tspan198">45</tspan></text>
</g></g><g
       id="g202"><g
         id="g204"
         clip-path="url(#clipPath208)"><text
           transform="matrix(1,0,0,-1,118.73,48.552)"
           style="font-variant:normal;font-weight:normal;font-size:24px;font-family:Arial;-inkscape-font-specification:Arial;writing-mode:lr-tb;fill:#000000;fill-opacity:1;fill-rule:nonzero;stroke:none"
           id="text212"><tspan
             x="0 13.344 25.344 32.015999"
             y="0"
             sodipodi:role="line"
             id="tspan210">2str</tspan></text>
</g></g><g
       id="g214"><g
         id="g216"
         clip-path="url(#clipPath220)"><text
           transform="matrix(1,0,0,-1,235.61,48.552)"
           style="font-variant:normal;font-weight:normal;font-size:24px;font-family:Arial;-inkscape-font-specification:Arial;writing-mode:lr-tb;fill:#000000;fill-opacity:1;fill-rule:nonzero;stroke:none"
           id="text224"><tspan
             x="0 13.344 25.344 32.015999"
             y="0"
             sodipodi:role="line"
             id="tspan222">3str</tspan></text>
</g></g><g
       id="g226"><g
         id="g228"
         clip-path="url(#clipPath232)"><text
           transform="matrix(1,0,0,-1,352.49,48.552)"
           style="font-variant:normal;font-weight:normal;font-size:24px;font-family:Arial;-inkscape-font-specification:Arial;writing-mode:lr-tb;fill:#000000;fill-opacity:1;fill-rule:nonzero;stroke:none"
           id="text236"><tspan
             x="0 13.344 25.344 32.015999"
             y="0"
             sodipodi:role="line"
             id="tspan234">4str</tspan></text>
</g></g><g
       id="g238"><g
         id="g240"
         clip-path="url(#clipPath244)"><text
           transform="matrix(1,0,0,-1,460.01,48.552)"
           style="font-variant:normal;font-weight:normal;font-size:24px;font-family:Arial;-inkscape-font-specification:Arial;writing-mode:lr-tb;fill:#000000;fill-opacity:1;fill-rule:nonzero;stroke:none"
           id="text248"><tspan
             x="0 16.007999 32.015999 45.360001"
             y="0"
             sodipodi:role="line"
             id="tspan246">PK60</tspan></text>
</g></g><g
       id="g250"><g
         id="g252"
         clip-path="url(#clipPath256)"><text
           transform="matrix(1,0,0,-1,576.89,48.552)"
           style="font-variant:normal;font-weight:normal;font-size:24px;font-family:Arial;-inkscape-font-specification:Arial;writing-mode:lr-tb;fill:#000000;fill-opacity:1;fill-rule:nonzero;stroke:none"
           id="text260"><tspan
             x="0 16.007999 32.015999 45.360001"
             y="0"
             sodipodi:role="line"
             id="tspan258">PK80</tspan></text>
</g></g><g
       id="g262"><g
         id="g264"
         clip-path="url(#clipPath268)"><text
           transform="matrix(1,0,0,-1,695.11,48.552)"
           style="font-variant:normal;font-weight:normal;font-size:24px;font-family:Arial;-inkscape-font-specification:Arial;writing-mode:lr-tb;fill:#000000;fill-opacity:1;fill-rule:nonzero;stroke:none"
           id="text272"><tspan
             x="0 13.344 29.351999 42.695999"
             y="0"
             sodipodi:role="line"
             id="tspan270">LE80</tspan></text>
</g></g><g
       id="g274"><g
         id="g276"
         clip-path="url(#clipPath280)"><text
           transform="matrix(-4.4e-8,1,1,4.4e-8,30.624,195.94)"
           style="font-variant:normal;font-weight:normal;font-size:27.95999908px;font-family:Arial;-inkscape-font-specification:Arial;writing-mode:lr-tb;fill:#000000;fill-opacity:1;fill-rule:nonzero;stroke:none"
           id="text284"><tspan
             x="0 23.29068 38.836441 45.04356 52.900318 59.107441 79.294563 94.840317 102.66912 118.21488 132.27876"
             y="0"
             sodipodi:role="line"
             id="tspan282">MultiDefect</tspan></text>
</g></g><path
       d="M 28.733,21.155 H 38.788 V 31.21 H 28.733 Z"
       style="fill:#ff5050;fill-opacity:1;fill-rule:evenodd;stroke:#000000;stroke-opacity:1;stroke-width:0.75000002;stroke-miterlimit:4;stroke-dasharray:none"
       id="path286"
       inkscape:connector-curvature="0" /><g
       id="g288"><g
         id="g290"
         clip-path="url(#clipPath294)"><text
           transform="matrix(1,0,0,-1,43.44,19.704)"
           style="font-variant:normal;font-weight:normal;font-size:20.04000092px;font-family:Arial;-inkscape-font-specification:Arial;writing-mode:lr-tb;fill:#000000;fill-opacity:1;fill-rule:nonzero;stroke:none"
           id="text298"><tspan
             x="0 14.40876 28.87764 42.24432 56.65308 67.795319 78.937561 92.304237 98.8974 103.34628 114.48852 120.05964 125.63076 137.33412 142.82507 158.4162 169.55844 175.12956"
             y="0"
             sodipodi:role="line"
             id="tspan296">RNARedPrint + Opt.</tspan></text>
</g></g><path
       d="m 246.27,21.155 h 10.055 V 31.21 H 246.27 Z"
       style="fill:#85b4e0;fill-opacity:1;fill-rule:evenodd;stroke:#000000;stroke-opacity:1;stroke-width:0.75000002;stroke-miterlimit:4;stroke-dasharray:none"
       id="path300"
       inkscape:connector-curvature="0" /><g
       id="g302"><g
         id="g304"
         clip-path="url(#clipPath308)"><text
           transform="matrix(1,0,0,-1,261.02,19.704)"
           style="font-variant:normal;font-weight:normal;font-size:20.04000092px;font-family:Arial;-inkscape-font-specification:Arial;writing-mode:lr-tb;fill:#000000;fill-opacity:1;fill-rule:nonzero;stroke:none"
           id="text312"><tspan
             x="0 14.40876 28.87764 42.24432 55.611 60.059879 71.202118 82.34436 95.650917 102.24408 106.69296 117.8352 123.40632 128.97745 140.6808 146.17175 161.76288 172.90512 178.47624"
             y="0"
             sodipodi:role="line"
             id="tspan310">RNABluePrint + Opt.</tspan></text>
</g></g><path
       d="m 467.16,21.155 h 10.055 V 31.21 H 467.16 Z"
       style="fill:#810000;fill-opacity:1;fill-rule:evenodd;stroke:#000000;stroke-opacity:1;stroke-width:0.75000002;stroke-miterlimit:4;stroke-dasharray:none"
       id="path314"
       inkscape:connector-curvature="0" /><g
       id="g316"><g
         id="g318"
         clip-path="url(#clipPath322)"><text
           transform="matrix(1,0,0,-1,481.94,19.704)"
           style="font-variant:normal;font-weight:normal;font-size:20.04000092px;font-family:Arial;-inkscape-font-specification:Arial;writing-mode:lr-tb;fill:#000000;fill-opacity:1;fill-rule:nonzero;stroke:none"
           id="text326"><tspan
             x="0 14.40876 28.87764 42.24432 56.65308 67.795319 78.937561 92.304237 98.8974 103.34628 114.48852"
             y="0"
             sodipodi:role="line"
             id="tspan324">RNARedPrint</tspan></text>
</g></g><path
       d="m 624.12,21.155 h 10.055 V 31.21 H 624.12 Z"
       style="fill:#192c5a;fill-opacity:1;fill-rule:evenodd;stroke:#000000;stroke-opacity:1;stroke-width:0.75000002;stroke-miterlimit:4;stroke-dasharray:none"
       id="path328"
       inkscape:connector-curvature="0" /><g
       id="g330"><g
         id="g332"
         clip-path="url(#clipPath336)"><text
           transform="matrix(1,0,0,-1,638.93,19.704)"
           style="font-variant:normal;font-weight:normal;font-size:20.04000092px;font-family:Arial;-inkscape-font-specification:Arial;writing-mode:lr-tb;fill:#000000;fill-opacity:1;fill-rule:nonzero;stroke:none"
           id="text340"><tspan
             x="0 14.40876 28.87764 42.24432 55.611 60.059879 71.202118 82.34436 95.650917 102.24408 106.69296 117.8352"
             y="0"
             sodipodi:role="line"
             id="tspan338">RNABluePrint</tspan></text>
</g></g></g></svg>